<?xml version="1.0" encoding="UTF-8" standalone="no"?>
<!-- Created with Inkscape (http://www.inkscape.org/) -->

<svg
   version="1.1"
   id="svg2"
   width="541.21332"
   height="525.21332"
   viewBox="0 0 541.21332 525.21332"
   sodipodi:docname="Mobile.eps"
   xmlns:inkscape="http://www.inkscape.org/namespaces/inkscape"
   xmlns:sodipodi="http://sodipodi.sourceforge.net/DTD/sodipodi-0.dtd"
   xmlns="http://www.w3.org/2000/svg"
   xmlns:svg="http://www.w3.org/2000/svg">
  <defs
     id="defs6">
    <clipPath
       clipPathUnits="userSpaceOnUse"
       id="clipPath90">
      <path
         d="M 779.141,2238.51 449.859,2346 l -29.296,77.42 -66.965,2.09 -121.371,23.02 14.652,-25.11 152.758,-110.9 37.668,-18.84 344.488,-179.85 -2.652,124.68"
         id="path88" />
    </clipPath>
    <clipPath
       clipPathUnits="userSpaceOnUse"
       id="clipPath104">
      <path
         d="m 420.563,2423.42 -31.387,18.84 -62.781,-23.03 10.464,-12.55 83.704,16.74"
         id="path102" />
    </clipPath>
    <clipPath
       clipPathUnits="userSpaceOnUse"
       id="clipPath118">
      <path
         d="m 849.047,2936.26 c 0,0 -5.094,-45 7.598,-73.93 12.691,-28.93 83.242,-126.78 83.242,-126.78 L 808.188,2629.97 c 0,0 -54.551,110.3 -64.985,127.8 -10.433,17.49 -22.855,94.44 11.02,149.31 33.879,54.88 82.699,69.4 94.824,29.18"
         id="path116" />
    </clipPath>
    <clipPath
       clipPathUnits="userSpaceOnUse"
       id="clipPath132">
      <path
         d="m 889.789,3018.59 c -8.086,49.85 -65.348,151.77 -156.258,147.79 -59.019,-2.59 -86.558,-14.51 -112.23,-28.97 -13.082,-7.36 -48.309,-31.93 -57.934,-43.44 -44.476,-53.23 -59.746,-67.89 -51.453,-108.65 -1.848,-12.44 2.953,-35.54 7.551,-47.79 13.625,-36.34 22.879,-60.06 34.637,-77.33 -3.61,-16.93 -12.946,-61.49 -13.457,-71.7 -0.473,-9.44 29.843,-3.09 45.367,0.77 28.621,-63.96 81,-108.35 97.347,-113.46 28.364,-8.86 73.317,37.81 97.071,73.98 23.754,36.17 5.84,76.95 5.91,93.12 0.07,16.17 53.539,51.78 73.25,63.06 19.719,11.28 38.289,62.76 30.199,112.62"
         id="path130" />
    </clipPath>
    <clipPath
       clipPathUnits="userSpaceOnUse"
       id="clipPath224">
      <path
         d="m 998.82,2661.45 c 0,0 70.88,-48.32 72.5,-162.47 0.7,-49.58 -4.45,-96.67 -15.94,-178.61 -11.49,-81.93 -82.978,-348.52 -138.497,-380.92 -55.512,-32.39 -141.953,28.79 -141.953,28.79 l -417.442,277.09 -100.847,81.99 -49.508,94.43 14.902,29.51 123.414,-94.74 -66.269,61.24 13.004,16.58 23.949,-16.73 70.113,-26.15 15.324,-100.34 21.578,-14.83 398.868,-145.27 c 0,0 -4.953,214.85 -1.262,256.01 3.684,41.15 8.785,144.4 52.828,219.26 l 125.238,55.16"
         id="path222" />
    </clipPath>
  </defs>
  <sodipodi:namedview
     id="namedview4"
     pagecolor="#ffffff"
     bordercolor="#000000"
     borderopacity="0.25"
     inkscape:showpageshadow="2"
     inkscape:pageopacity="0.0"
     inkscape:pagecheckerboard="0"
     inkscape:deskcolor="#d1d1d1" />
  <g
     id="g8"
     inkscape:groupmode="layer"
     inkscape:label="ink_ext_XXXXXX"
     transform="matrix(1.3333333,0,0,-1.3333333,0,525.21333)">
    <g
       id="g10"
       transform="scale(0.1)">
      <path
         d="M 3643.62,3347.19 C 3394.8,3914.49 2797.6,4128.07 2326.4,3747.34 2142.46,3598.72 2027.59,3362.23 1802.3,3267.37 1590.96,3178.39 1323.13,3204.65 1094.52,3156.45 607.758,3053.82 -47.3203,2666.4 2.69922,2070.56 24.6328,1809.34 200.891,1519.18 287.891,1274.84 388.035,993.57 448.203,641.832 712.617,473.711 1166.46,185.121 1713.87,421.051 2123.11,653.82 c 219.88,125.071 341.11,201.989 577.98,159.11 219.36,-39.7 416.85,-180 631.17,-13.938 160.9,124.68 174.16,377.448 309.25,525.818 152.21,167.18 306.57,179.3 385.61,430.62 95.88,304.85 -45.36,495.37 -140.91,767.8 -95.05,271 -125.38,556.69 -242.59,823.96"
         style="fill:#a0d61e;fill-opacity:1;fill-rule:nonzero;stroke:none"
         id="path12" />
      <path
         d="m 1163.42,340.609 c -42.54,0.86 -84.9,4.411 -126.99,11.012 3.31,31.828 5.56,65.238 5.57,97.231 -0.02,121.078 -26.8,368.578 -40.2,469.179 -1.73,12.91 -2.534,31.09 -2.534,52.918 -0.004,71.581 8.574,182.471 19.734,283.151 5.58,50.35 11.8,98.17 17.9,137.28 6.09,39.07 12.14,69.61 17.1,84.7 18.05,55.25 52.77,157.2 52.83,238.45 -0.01,2.35 -0.03,4.68 -0.09,6.99 11.9,2.28 18.59,3.6 18.59,3.6 l 1.89,55.76 c 2.12,4.34 3.38,9.2 4.27,14.17 1.45,8.32 1.75,17.19 2.09,25.06 3.74,88.4 18.47,309.22 29.84,436.37 V 340.609 m -330.627,69.45 C 792.148,427.551 752.008,448.66 712.617,473.711 448.203,641.832 388.035,993.57 287.891,1274.84 c -87,244.34 -263.2582,534.5 -285.19178,795.72 -1.804689,21.53 -2.6914075,42.79 -2.69922,63.77 -0.125,342.65 234.324,611.79 523.797,791.68 11.355,-29.95 19.836,-50.43 30.305,-65.81 -3.61,-16.93 -12.946,-61.49 -13.457,-71.7 -0.004,-0.07 -0.004,-0.14 -0.004,-0.21 v 0 c -0.008,-3.47 4.312,-4.72 10.519,-4.72 10.133,0 25.293,3.32 34.852,5.7 28.621,-63.96 81,-108.35 97.347,-113.46 2.383,-0.74 4.883,-1.1 7.477,-1.1 20.035,0 45.711,21.04 66.723,45.08 9.054,-17.74 19.605,-38.77 28.328,-56.24 3.824,-7.66 7.293,-14.64 10.136,-20.35 -7.085,-10.23 -13.437,-20.12 -18.593,-29.24 -34.86,-61.91 -47.84,-154.9 -60.043,-227.8 -1.961,-11.79 -2.739,-25.77 -2.739,-41.36 0.008,-24.1 1.879,-52.12 4.356,-81.38 l -265.301,86.6 -28.41,75.08 c -0.023,0.07 -0.047,0.13 -0.074,0.2 l -1.149,3.04 -2.047,0.06 -30.265,18.16 c -0.793,0.48 -1.684,0.72 -2.578,0.72 -0.582,0 -1.168,-0.1 -1.735,-0.31 l -40.918,-15.01 -102.757,19.49 -79.879,64.23 -8.336,-10.36 62.699,-50.42 -16.766,-33.19 51.188,-97.64 101.836,-82.79 366.828,-243.49 -22.602,-182.31 c -0.379,-1.21 -1.019,-3.79 -1.023,-7.41 -0.043,-4.4 1.015,-10.31 4.539,-16.79 l -3.828,-62.92 c -0.61,-10.06 6.844,-18.8 16.871,-19.77 2.969,-0.29 6.266,-0.6 9.848,-0.94 -6.079,-48.9 -17.579,-154.53 -17.582,-253.87 0,-27.74 0.898,-55 3.07,-80.42 6.328,-74.05 16.387,-189.82 24.863,-292.92 4.234,-51.56 8.078,-99.94 10.859,-138.35 2.782,-38.371 4.5,-66.93 4.493,-78.27 0.015,-6.468 1.242,-16.05 3.332,-28.511 7.336,-43.43 25.582,-120.969 42.515,-197.379 16.93,-76.321 32.528,-151.711 34.477,-189.34 0.715,-13.578 1.246,-26.418 1.621,-38.531 M 3108.96,719.762 c -0.87,0 -1.73,0 -2.6,0.008 v 185.121 c 10.14,-8.75 16.4,-13.782 16.4,-13.782 L 3206.53,816 c 5.63,-5.012 10.41,-8.27 14.15,-9.578 l 0.7,-1.063 c 0.7,-1.05 1.65,-1.82 2.72,-2.277 -3.87,-14.652 -7.58,-29.211 -11.15,-43.742 -2.4,-0.86 -4.12,-3.141 -4.15,-5.84 0,-0.031 0,-0.051 0,-0.078 v 0 0 c 0.01,-1.641 0.65,-3.133 1.68,-4.242 -1.28,-5.309 -2.54,-10.649 -3.78,-15.942 -32.76,-9.508 -65.28,-13.476 -97.74,-13.476 m 112.5,18.136 c 0.47,2.012 0.95,4 1.43,6.012 1.38,-1.18 3.16,-2.39 5.34,-3.609 -2.26,-0.832 -4.52,-1.629 -6.77,-2.403 m 8.42,21.661 -3.18,0.031 c 13.68,55.5 29.57,112.012 47.44,168.461 0.77,-0.469 1.66,-0.77 2.61,-0.871 l 3.7,-0.36 c 14.23,-11.34 54.22,-26.922 128.14,-46.261 -21.48,-30.637 -46.34,-58.329 -76.33,-81.567 -9.38,-7.273 -18.72,-13.941 -28.03,-20.07 L 3240,762.762 c -3.89,-1 -7.27,-2.063 -10.12,-3.203 m -0.6,62.8 c -3.66,24.84 -24.95,78.891 -72.27,170.973 -12.94,25.168 -30.48,58.538 -50.65,89.788 v 139.83 c 46.47,-50.45 96.1,-90.4 96.1,-90.4 l 83.77,-75.11 c 6.12,-5.45 11.23,-8.82 15.1,-9.88 -27.55,-74.869 -51.74,-150.65 -72.05,-225.201 m 49.05,118.84 c 19.71,61.211 41.73,122.321 65.74,181.971 l 6.77,-0.34 c 15.26,-13.02 62.78,-30.56 153.2,-51.66 -14,-34.12 -28.13,-68.08 -43.85,-100.67 -25.88,-3.699 -42.57,-6.969 -42.57,-6.969 l -121.12,-17.09 c -8.32,-1.211 -14.49,-2.961 -18.17,-5.242 m 30.15,125.571 c -4.82,26.05 -26.26,79.42 -71.78,167.99 -28.29,55.06 -78.61,149.35 -130.34,174.84 v 251.79 c 20.8,-115.59 166.11,-286.1 166.11,-286.1 l 87.79,-114.88 c 6.78,-8.8 12.7,-14.42 17.46,-16.43 l 2.39,-5.41 c -25.75,-55.96 -49.69,-113.53 -71.63,-171.8 m 41.85,71.81 c 13.52,32.98 27.65,65.49 42.33,97.3 6.51,14.1 14.33,29.14 23.27,44.93 l 0.24,0.02 6.01,0.86 c 18.24,-10.12 71.61,-18.08 171.63,-20.48 -16.83,-26.87 -31.56,-55.55 -45.2,-85.14 -21.69,-3.96 -34.96,-6.94 -34.96,-6.94 l -142.57,-24.11 c -9.39,-1.63 -16.42,-3.79 -20.75,-6.44 m 39.98,121.07 c 0.19,2.31 0.29,4.89 0.29,7.71 0,34.25 -14.33,106.66 -50.43,228.79 -27.47,92.95 -82.3,267.29 -164.16,267.29 -14.69,0 -30.24,-5.61 -46.66,-18.3 -12.16,-9.39 -19.5,-21.67 -22.99,-36.01 V 3563.9 c 0,107.3 -86.99,194.29 -194.29,194.29 h -572 c 158.52,123.61 330.56,180.87 498.49,180.87 328.95,0 641.92,-219.93 805.06,-591.87 117.21,-267.27 147.54,-552.96 242.59,-823.96 73.06,-208.31 172.84,-368.73 172.89,-569 0.02,-61.63 -9.41,-127.05 -31.98,-198.8 -60.88,-193.58 -166.45,-245.25 -281.31,-335.17 -90.37,-23.73 -173.29,-60.84 -173.29,-60.84 l -134.94,-51.97 c -2.97,-1.16 -5.68,-2.33 -8.1,-3.5 30.7,50.81 70.99,107.86 114.55,165.27 0.84,-0.11 1.75,-0.17 2.7,-0.17 27.58,-0.01 102.16,46.54 238.79,165.79 72.8,63.53 199.21,178.08 199.29,270.26 0.03,33.51 -16.64,64.07 -58.64,88.15 -14.2,8.14 -28.53,11.83 -42.78,11.83 -137.7,0 -271.23,-343.91 -271.23,-343.91 l -70.75,-154.2 c -4.74,-10.47 -7.21,-19.06 -7.21,-25.4 0,-1.5 0.14,-2.88 0.42,-4.12 -18.43,-24.29 -36.3,-48.53 -53.12,-72.27 10.01,35.98 18.82,107.18 23.88,223.88 0.97,22.47 1.98,49.57 1.98,78.26 0,104.88 -13.38,231.11 -90.69,231.11 -9.04,0 -18.96,-1.73 -29.82,-5.41 -38.25,-12.98 -51.49,-55.58 -51.49,-108.32 0,-118.42 66.73,-287.96 66.73,-287.96 l 45.73,-137.17 c 2.94,-8.71 6.03,-15.17 9.19,-19.09 l 0.53,-8.91 c 0.02,-0.27 0.05,-0.53 0.1,-0.79 -27,-39.86 -50.25,-77.65 -67.33,-111.13 m -2879.919,990.21 -84.926,30.93 -19.258,13.24 -1.59,10.38 30.406,-15.2 75.368,-39.35 m 653.029,187.79 c -11.49,75.13 -37.45,144.62 -72.64,200.82 -45.12,72.01 -105.565,122.5 -170.878,134.03 -8.441,12.11 -18.086,26.14 -27.164,39.78 -14.191,21.31 -27.093,41.96 -31.496,52.07 -4.871,11.01 -7.039,25.19 -7.82,37.96 2.293,1.4 4.371,2.63 6.168,3.66 19.719,11.28 38.289,62.76 30.199,112.62 -3.055,18.84 -13.137,45.11 -29.398,70.3 79.914,29.11 159.019,51.73 234.129,67.56 22.61,4.77 45.61,8.81 68.9,12.3 v -731.1"
         style="fill:#e3f19c;fill-opacity:1;fill-rule:nonzero;stroke:none"
         id="path14" />
      <path
         d="M 204.637,96.2813 C 204.637,43.1016 896.715,0 1750.42,0 c 853.72,0 1545.79,43.1016 1545.79,96.2813 0,53.1677 -692.07,96.2697 -1545.79,96.2697 -853.705,0 -1545.783,-43.102 -1545.783,-96.2697"
         style="fill:#a0d61e;fill-opacity:1;fill-rule:nonzero;stroke:none"
         id="path16" />
      <path
         d="M 1750.42,0 C 896.715,0 204.637,43.1016 204.637,96.2813 c 0,40.8277 408.261,75.7307 984.393,89.7307 33.5,-58.453 96.49,-97.8206 168.68,-97.8206 h 1554.36 c 55.2,0 105.03,23.0276 140.41,59.9996 21.11,-2.05 40.95,-4.152 59.57,-6.3 l 8.59,-53.6996 h 131.48 l 4.76,29.7576 c 25.73,-6.969 39.33,-14.219 39.33,-21.6677 C 3296.21,43.1016 2604.14,0 1750.42,0"
         style="fill:#eff6bf;fill-opacity:1;fill-rule:nonzero;stroke:none"
         id="path18" />
      <path
         d="M 2912.07,88.1914 H 1357.71 c -107.3,0 -194.29,86.9886 -194.29,194.2966 V 3563.9 c 0,107.3 86.99,194.29 194.29,194.29 h 1554.36 c 107.3,0 194.29,-86.99 194.29,-194.29 V 282.488 c 0,-107.308 -86.99,-194.2966 -194.29,-194.2966"
         style="fill:#1d2a30;fill-opacity:1;fill-rule:nonzero;stroke:none"
         id="path20" />
      <path
         d="M 1249.78,491.18 H 3020.01 V 3355.21 H 1249.78 Z"
         style="fill:#ffffff;fill-opacity:1;fill-rule:nonzero;stroke:none"
         id="path22" />
      <path
         d="m 3020.01,491.18 v 6.679 H 1256.46 V 3348.52 H 3013.33 V 491.18 h 6.68 v 6.679 -6.679 h 6.69 V 3361.9 H 1243.09 V 484.488 H 3026.7 v 6.692 h -6.69"
         style="fill:#1d2a30;fill-opacity:1;fill-rule:nonzero;stroke:none"
         id="path24" />
      <path
         d="m 2518.61,2466.79 c 0,211.92 -171.8,383.71 -383.71,383.71 -211.93,0 -383.72,-171.79 -383.72,-383.71 0,-211.92 171.79,-383.72 383.72,-383.72 211.91,0 383.71,171.8 383.71,383.72"
         style="fill:#a0d61e;fill-opacity:1;fill-rule:nonzero;stroke:none"
         id="path26" />
      <path
         d="M 2638.6,671.332 H 1631.19 c -9.51,0 -17.22,7.719 -17.22,17.219 0,9.508 7.71,17.23 17.22,17.23 H 2638.6 c 9.51,0 17.22,-7.722 17.22,-17.23 0,-9.5 -7.71,-17.219 -17.22,-17.219"
         style="fill:#a0d61e;fill-opacity:1;fill-rule:nonzero;stroke:none"
         id="path28" />
      <path
         d="M 2671.5,1660.8 H 1598.29 c -22.13,0 -40.06,17.93 -40.06,40.06 v 126.55 c 0,22.12 17.93,40.05 40.06,40.05 H 2671.5 c 22.13,0 40.06,-17.93 40.06,-40.05 v -126.55 c 0,-22.13 -17.93,-40.06 -40.06,-40.06"
         style="fill:#a0d61e;fill-opacity:1;fill-rule:nonzero;stroke:none"
         id="path30" />
      <path
         d="M 2671.5,1274.13 H 1598.29 c -22.13,0 -40.06,17.94 -40.06,40.06 v 126.55 c 0,22.12 17.93,40.06 40.06,40.06 H 2671.5 c 22.13,0 40.06,-17.94 40.06,-40.06 v -126.55 c 0,-22.12 -17.93,-40.06 -40.06,-40.06"
         style="fill:#a0d61e;fill-opacity:1;fill-rule:nonzero;stroke:none"
         id="path32" />
      <path
         d="m 2325.92,2275.42 -112.87,64.99 v 53.72 c 15.41,17.99 27.38,41.25 34.69,67.67 3.45,-1.19 7.46,-2.08 12.13,-2.08 14.01,0 22.89,43.41 24.34,74.36 16.31,34.52 -5.9,54.69 -5.9,54.69 0,0 9.21,9.22 15.36,46.09 6.14,36.87 -21.51,21.51 -43.02,55.31 -21.5,33.8 -36.88,70.67 -107.54,70.67 -70.67,0 -92.18,-58.38 -92.18,-58.38 0,0 -30.73,0 -52.24,-6.15 -21.51,-6.14 -27.65,-76.81 -9.22,-104.46 8.33,-12.49 11.62,-31.85 12.75,-49.35 -4.89,6.02 -10.02,7.64 -12.75,-5.96 -6.14,-30.73 18.44,-73.75 18.44,-73.75 l 12.77,3.65 c 7.14,-28.37 19.73,-53.26 36.06,-72.31 v -53.72 l -112.88,-64.99 c -26.87,-15.47 -43.43,-44.12 -43.43,-75.12 v -37.16 c 64.85,-50.15 146.14,-80.07 234.47,-80.07 88.32,0 169.61,29.92 234.46,80.07 v 37.16 c 0,31 -16.56,59.65 -43.44,75.12"
         style="fill:#1d2a30;fill-opacity:1;fill-rule:nonzero;stroke:none"
         id="path34" />
      <path
         d="m 1704.37,1325.51 c -2.6,0 -4.92,0.97 -6.96,2.91 -2.05,1.96 -3.07,4.27 -3.07,6.97 0,1.8 0.49,3.48 1.49,5.09 l 17.96,28.88 -35.02,-1.2 c -3.09,0 -5.51,0.92 -7.25,2.76 -1.75,1.86 -2.62,4.08 -2.62,6.66 0,2.5 0.87,4.69 2.62,6.6 1.74,1.89 4.16,2.85 7.25,2.85 l 34.57,-1.36 -17.8,28.73 c -1,1.71 -1.5,3.44 -1.5,5.23 0,2.7 1.02,5.02 3.06,6.97 2.05,1.94 4.37,2.93 6.97,2.93 3.39,0 6.08,-1.75 8.08,-5.26 l 17.05,-30.82 16.92,30.68 c 2.29,3.69 5.18,5.53 8.67,5.53 2.6,0 4.84,-0.99 6.74,-2.98 1.89,-2.01 2.84,-4.35 2.84,-7.05 0,-1.59 -0.44,-3.23 -1.34,-4.93 l -18.11,-29.03 35.17,1.36 c 3.09,0 5.48,-0.94 7.18,-2.79 1.69,-1.84 2.54,-4.06 2.54,-6.66 0,-2.58 -0.85,-4.8 -2.54,-6.66 -1.7,-1.84 -4.09,-2.76 -7.18,-2.76 l -35.32,1.2 17.51,-28.58 c 1,-1.7 1.49,-3.45 1.49,-5.25 0,-2.69 -1.02,-5.04 -3.06,-7.03 -2.05,-1.99 -4.32,-2.99 -6.81,-2.99 -3.4,0 -6.04,1.79 -7.93,5.39 l -16.77,30.07 -16.61,-30.07 c -2.09,-3.6 -4.84,-5.39 -8.22,-5.39"
         style="fill:#1d2a30;fill-opacity:1;fill-rule:nonzero;stroke:none"
         id="path36" />
      <path
         d="m 1866.58,1325.51 c -2.6,0 -4.92,0.97 -6.96,2.91 -2.04,1.96 -3.07,4.27 -3.07,6.97 0,1.8 0.5,3.48 1.5,5.09 l 17.96,28.88 -35.02,-1.2 c -3.09,0 -5.51,0.92 -7.25,2.76 -1.75,1.86 -2.63,4.08 -2.63,6.66 0,2.5 0.88,4.69 2.63,6.6 1.74,1.89 4.16,2.85 7.25,2.85 l 34.57,-1.36 -17.81,28.73 c -1,1.71 -1.5,3.44 -1.5,5.23 0,2.7 1.03,5.02 3.07,6.97 2.05,1.94 4.37,2.93 6.96,2.93 3.39,0 6.09,-1.75 8.08,-5.26 l 17.06,-30.82 16.91,30.68 c 2.29,3.69 5.19,5.53 8.68,5.53 2.59,0 4.84,-0.99 6.73,-2.98 1.9,-2.01 2.86,-4.35 2.86,-7.05 0,-1.59 -0.45,-3.23 -1.35,-4.93 l -18.12,-29.03 35.17,1.36 c 3.1,0 5.49,-0.94 7.19,-2.79 1.69,-1.84 2.54,-4.06 2.54,-6.66 0,-2.58 -0.85,-4.8 -2.54,-6.66 -1.7,-1.84 -4.09,-2.76 -7.19,-2.76 l -35.31,1.2 17.51,-28.58 c 0.99,-1.7 1.49,-3.45 1.49,-5.25 0,-2.69 -1.02,-5.04 -3.07,-7.03 -2.04,-1.99 -4.31,-2.99 -6.81,-2.99 -3.39,0 -6.03,1.79 -7.93,5.39 l -16.76,30.07 -16.61,-30.07 c -2.1,-3.6 -4.84,-5.39 -8.23,-5.39"
         style="fill:#1d2a30;fill-opacity:1;fill-rule:nonzero;stroke:none"
         id="path38" />
      <path
         d="m 2028.79,1325.51 c -2.58,0 -4.91,0.97 -6.95,2.91 -2.05,1.96 -3.07,4.27 -3.07,6.97 0,1.8 0.5,3.48 1.5,5.09 l 17.96,28.88 -35.02,-1.2 c -3.1,0 -5.52,0.92 -7.26,2.76 -1.75,1.86 -2.62,4.08 -2.62,6.66 0,2.5 0.87,4.69 2.62,6.6 1.74,1.89 4.16,2.85 7.26,2.85 l 34.57,-1.36 -17.81,28.73 c -1,1.71 -1.5,3.44 -1.5,5.23 0,2.7 1.03,5.02 3.07,6.97 2.04,1.94 4.36,2.93 6.96,2.93 3.39,0 6.08,-1.75 8.08,-5.26 l 17.06,-30.82 16.91,30.68 c 2.3,3.69 5.19,5.53 8.68,5.53 2.59,0 4.84,-0.99 6.73,-2.98 1.9,-2.01 2.84,-4.35 2.84,-7.05 0,-1.59 -0.45,-3.23 -1.34,-4.93 l -18.11,-29.03 35.17,1.36 c 3.09,0 5.48,-0.94 7.18,-2.79 1.69,-1.84 2.54,-4.06 2.54,-6.66 0,-2.58 -0.85,-4.8 -2.54,-6.66 -1.7,-1.84 -4.09,-2.76 -7.18,-2.76 l -35.32,1.2 17.51,-28.58 c 1,-1.7 1.5,-3.45 1.5,-5.25 0,-2.69 -1.03,-5.04 -3.07,-7.03 -2.05,-1.99 -4.32,-2.99 -6.81,-2.99 -3.39,0 -6.04,1.79 -7.93,5.39 l -16.76,30.07 -16.61,-30.07 c -2.09,-3.6 -4.84,-5.39 -8.24,-5.39"
         style="fill:#1d2a30;fill-opacity:1;fill-rule:nonzero;stroke:none"
         id="path40" />
      <path
         d="m 2191.01,1325.51 c -2.59,0 -4.91,0.97 -6.95,2.91 -2.05,1.96 -3.07,4.27 -3.07,6.97 0,1.8 0.5,3.48 1.5,5.09 l 17.95,28.88 -35.02,-1.2 c -3.09,0 -5.51,0.92 -7.25,2.76 -1.75,1.86 -2.62,4.08 -2.62,6.66 0,2.5 0.87,4.69 2.62,6.6 1.74,1.89 4.16,2.85 7.25,2.85 l 34.57,-1.36 -17.81,28.73 c -0.99,1.71 -1.49,3.44 -1.49,5.23 0,2.7 1.02,5.02 3.06,6.97 2.05,1.94 4.37,2.93 6.97,2.93 3.39,0 6.08,-1.75 8.07,-5.26 l 17.06,-30.82 16.92,30.68 c 2.29,3.69 5.18,5.53 8.68,5.53 2.59,0 4.83,-0.99 6.73,-2.98 1.89,-2.01 2.84,-4.35 2.84,-7.05 0,-1.59 -0.45,-3.23 -1.35,-4.93 l -18.1,-29.03 35.16,1.36 c 3.1,0 5.49,-0.94 7.19,-2.79 1.69,-1.84 2.54,-4.06 2.54,-6.66 0,-2.58 -0.85,-4.8 -2.54,-6.66 -1.7,-1.84 -4.09,-2.76 -7.19,-2.76 l -35.31,1.2 17.51,-28.58 c 1,-1.7 1.49,-3.45 1.49,-5.25 0,-2.69 -1.02,-5.04 -3.06,-7.03 -2.05,-1.99 -4.32,-2.99 -6.81,-2.99 -3.4,0 -6.04,1.79 -7.94,5.39 l -16.76,30.07 -16.61,-30.07 c -2.09,-3.6 -4.83,-5.39 -8.23,-5.39"
         style="fill:#1d2a30;fill-opacity:1;fill-rule:nonzero;stroke:none"
         id="path42" />
      <path
         d="m 2353.23,1325.51 c -2.59,0 -4.91,0.97 -6.96,2.91 -2.05,1.96 -3.06,4.27 -3.06,6.97 0,1.8 0.5,3.48 1.49,5.09 l 17.96,28.88 -35.02,-1.2 c -3.09,0 -5.52,0.92 -7.25,2.76 -1.75,1.86 -2.62,4.08 -2.62,6.66 0,2.5 0.87,4.69 2.62,6.6 1.73,1.89 4.16,2.85 7.25,2.85 l 34.57,-1.36 -17.81,28.73 c -1,1.71 -1.5,3.44 -1.5,5.23 0,2.7 1.03,5.02 3.07,6.97 2.04,1.94 4.37,2.93 6.96,2.93 3.39,0 6.09,-1.75 8.08,-5.26 l 17.06,-30.82 16.92,30.68 c 2.29,3.69 5.18,5.53 8.68,5.53 2.58,0 4.83,-0.99 6.73,-2.98 1.89,-2.01 2.84,-4.35 2.84,-7.05 0,-1.59 -0.45,-3.23 -1.35,-4.93 l -18.11,-29.03 35.17,1.36 c 3.1,0 5.49,-0.94 7.19,-2.79 1.69,-1.84 2.54,-4.06 2.54,-6.66 0,-2.58 -0.85,-4.8 -2.54,-6.66 -1.7,-1.84 -4.09,-2.76 -7.19,-2.76 l -35.31,1.2 17.51,-28.58 c 0.99,-1.7 1.49,-3.45 1.49,-5.25 0,-2.69 -1.02,-5.04 -3.07,-7.03 -2.05,-1.99 -4.31,-2.99 -6.8,-2.99 -3.4,0 -6.05,1.79 -7.94,5.39 l -16.76,30.07 -16.61,-30.07 c -2.09,-3.6 -4.83,-5.39 -8.23,-5.39"
         style="fill:#1d2a30;fill-opacity:1;fill-rule:nonzero;stroke:none"
         id="path44" />
      <path
         d="m 2515.44,1325.51 c -2.58,0 -4.91,0.97 -6.95,2.91 -2.05,1.96 -3.07,4.27 -3.07,6.97 0,1.8 0.5,3.48 1.5,5.09 l 17.96,28.88 -35.02,-1.2 c -3.1,0 -5.52,0.92 -7.26,2.76 -1.75,1.86 -2.61,4.08 -2.61,6.66 0,2.5 0.86,4.69 2.61,6.6 1.74,1.89 4.16,2.85 7.26,2.85 l 34.57,-1.36 -17.81,28.73 c -1,1.71 -1.5,3.44 -1.5,5.23 0,2.7 1.03,5.02 3.07,6.97 2.04,1.94 4.36,2.93 6.96,2.93 3.39,0 6.09,-1.75 8.08,-5.26 l 17.06,-30.82 16.91,30.68 c 2.3,3.69 5.19,5.53 8.68,5.53 2.59,0 4.84,-0.99 6.73,-2.98 1.9,-2.01 2.84,-4.35 2.84,-7.05 0,-1.59 -0.45,-3.23 -1.34,-4.93 l -18.11,-29.03 35.17,1.36 c 3.09,0 5.48,-0.94 7.18,-2.79 1.69,-1.84 2.54,-4.06 2.54,-6.66 0,-2.58 -0.85,-4.8 -2.54,-6.66 -1.7,-1.84 -4.09,-2.76 -7.18,-2.76 l -35.32,1.2 17.51,-28.58 c 1,-1.7 1.5,-3.45 1.5,-5.25 0,-2.69 -1.03,-5.04 -3.07,-7.03 -2.05,-1.99 -4.31,-2.99 -6.8,-2.99 -3.4,0 -6.05,1.79 -7.94,5.39 l -16.76,30.07 -16.61,-30.07 c -2.09,-3.6 -4.84,-5.39 -8.24,-5.39"
         style="fill:#1d2a30;fill-opacity:1;fill-rule:nonzero;stroke:none"
         id="path46" />
      <path
         d="m 1256.46,3240.5 h 1756.87 v 108.027 H 1256.46 Z"
         style="fill:#a0d61e;fill-opacity:1;fill-rule:nonzero;stroke:none"
         id="path48" />
      <path
         d="m 3020.01,3240.5 h -6.68 v 108.02 H 1256.46 V 3240.5 h -6.68 v 110.94 H 3020.01 V 3240.5"
         style="fill:#1d2919;fill-opacity:1;fill-rule:nonzero;stroke:none"
         id="path50" />
      <path
         d="m 2327.33,3555.67 h -384.87 c -14.5,0 -26.24,11.74 -26.24,26.24 0,14.49 11.74,26.24 26.24,26.24 h 384.87 c 14.49,0 26.24,-11.75 26.24,-26.24 0,-14.5 -11.75,-26.24 -26.24,-26.24"
         style="fill:#a0d61e;fill-opacity:1;fill-rule:nonzero;stroke:none"
         id="path52" />
      <path
         d="m 2327.33,3555.67 v 6.69 h -384.87 c -10.8,0.02 -19.54,8.75 -19.56,19.55 0.02,10.8 8.76,19.53 19.56,19.55 h 384.87 c 10.8,-0.02 19.53,-8.75 19.55,-19.55 -0.02,-10.8 -8.75,-19.53 -19.55,-19.55 v -6.69 -6.69 c 18.18,0 32.92,14.74 32.93,32.93 -0.01,18.19 -14.74,32.92 -32.93,32.93 h -384.87 c -18.19,-0.01 -32.93,-14.74 -32.93,-32.93 0,-18.19 14.74,-32.93 32.93,-32.93 h 384.87 v 6.69"
         style="fill:#1d2a30;fill-opacity:1;fill-rule:nonzero;stroke:none"
         id="path54" />
      <path
         d="m 2239.86,329.461 c 0,57.969 -46.99,104.961 -104.97,104.961 -57.97,0 -104.96,-46.992 -104.96,-104.961 0,-57.969 46.99,-104.973 104.96,-104.973 57.98,0 104.97,47.004 104.97,104.973"
         style="fill:#a0d61e;fill-opacity:1;fill-rule:nonzero;stroke:none"
         id="path56" />
      <path
         d="m 2188.09,276.262 h -106.4 V 382.66 h 106.4 V 276.262"
         style="fill:#a0d61e;fill-opacity:1;fill-rule:nonzero;stroke:none"
         id="path58" />
      <path
         d="m 2188.09,276.262 v 6.679 h -99.71 v 93.028 h 93.02 v -99.707 h 6.69 v 6.679 -6.679 h 6.69 V 382.66 c 0,1.762 -0.72,3.481 -1.96,4.731 -1.25,1.25 -2.97,1.961 -4.73,1.961 h -106.4 c -1.76,0 -3.48,-0.711 -4.72,-1.961 -1.25,-1.25 -1.96,-2.969 -1.96,-4.731 V 276.262 c 0,-1.774 0.71,-3.492 1.96,-4.731 1.24,-1.25 2.96,-1.961 4.72,-1.961 h 106.4 c 1.76,0 3.48,0.711 4.73,1.961 1.24,1.239 1.96,2.957 1.96,4.731 h -6.69"
         style="fill:#1d2a30;fill-opacity:1;fill-rule:nonzero;stroke:none"
         id="path60" />
      <path
         d="m 3247.86,524.039 c -31.77,-18.547 -0.65,-25.75 144.82,3.231 68.17,13.582 206.91,43.589 159.8,102.742 -45.27,56.82 -231.23,-63.543 -231.23,-63.543 l -73.39,-42.43 m 293.55,982.931 c -30.4,-67.13 32.33,-56.97 244.11,127.87 99.27,86.63 298.2,268.1 140.65,358.41 -151.37,86.77 -314.01,-332.08 -314.01,-332.08 l -70.75,-154.2 M 3240,762.762 c -51.43,-13.172 -14.95,-38.742 189.95,-63.153 96.02,-11.437 292.72,-31.148 263.95,80.661 -27.65,107.41 -335.27,12.339 -335.27,12.339 L 3240,762.762 m 56.5,183.679 c -52.55,-7.652 -18.99,-36.929 182.16,-82.961 94.26,-21.558 287.77,-62.031 271.02,52.192 -16.09,109.748 -332.06,47.859 -332.06,47.859 l -121.12,-17.09 m 74.58,198.579 c -61.85,-10.74 -21.24,-44.26 217.92,-92.13 112.09,-22.44 342.05,-64.019 318.56,70.42 -22.56,129.16 -393.91,45.82 -393.91,45.82 l -142.57,-24.11 m 66.5,162.43 c -58.47,-22.81 -12.01,-47.59 231.9,-46.98 114.31,0.3 347.94,5.27 298.2,132.35 -47.78,122.1 -395.16,-33.4 -395.16,-33.4 l -134.94,-51.97 M 3206.53,816 c 36.5,-32.461 37.23,8.52 -49.52,177.332 -40.66,79.118 -126.8,239.258 -197.27,159.808 -67.69,-76.33 163.02,-262.031 163.02,-262.031 L 3206.53,816 m 79.7,241.44 c 36.5,-32.45 37.23,8.51 -49.53,177.32 -40.66,79.12 -126.79,239.27 -197.26,159.83 -67.7,-76.34 163.02,-262.04 163.02,-262.04 l 83.77,-75.11 m 74.03,202.97 c 38.33,-49.72 49.05,1.84 -20.09,235.74 -32.4,109.63 -102.84,332.44 -210.82,248.99 -103.74,-80.17 143.12,-369.85 143.12,-369.85 l 87.79,-114.88 m 41.83,276.33 c 0,0 -139.4,354.14 -15.24,396.28 129.23,43.86 123.48,-189.76 118.53,-303.96 -10.57,-243.68 -37.47,-288.96 -57.56,-229.49 l -45.73,137.17"
         style="fill:#a0d61e;fill-opacity:1;fill-rule:nonzero;stroke:none"
         id="path62" />
      <path
         d="m 3256.65,507.801 c -1.48,0 -2.87,0.019 -4.17,0.07 15.9,7.938 33.73,14.481 53.65,18.84 2.93,0.641 4.92,3.238 4.92,6.121 v 0 0 c 0,0.438 -0.05,0.887 -0.15,1.34 -0.63,2.937 -3.27,4.91 -6.14,4.91 -0.43,0 -0.87,-0.051 -1.31,-0.141 -25.43,-5.562 -47.62,-14.511 -66.89,-25.351 0.25,2.73 4.2,6.308 11.3,10.449 l 73.39,42.43 c 0,0 121.71,78.781 192.17,78.781 16.63,0 30.41,-4.391 39.06,-15.238 6.6,-8.293 9.55,-16.012 9.56,-23.192 0.05,-44.05 -110.74,-67.871 -169.36,-79.55 -69.73,-13.891 -113.18,-19.469 -136.03,-19.469 m 297.61,182.75 c -44.43,0 -90.59,5.039 -124.31,9.058 -129.67,15.45 -191.89,31.36 -207.06,44.301 0.25,1.051 0.51,2.141 0.77,3.192 l 238.24,-2.231 h 0.06 c 3.43,0 6.23,2.758 6.26,6.199 0,0.032 0,0.051 0,0.078 v 0 0 c -0.02,3.422 -2.77,6.211 -6.2,6.243 l -232.14,2.168 c 2.85,1.14 6.23,2.203 10.12,3.203 l 118.63,29.847 c 0,0 125.61,38.821 223.52,38.821 55.3,0 101.77,-12.391 111.75,-51.16 1.93,-7.508 2.85,-14.43 2.85,-20.79 -0.02,-55.128 -68.9,-68.929 -142.49,-68.929 m -333.58,115.871 c -3.74,1.308 -8.52,4.566 -14.15,9.578 l -83.77,75.109 c 0,0 -49.6,39.922 -96.06,90.36 -4.5,4.883 -8.98,9.883 -13.37,14.929 -35.55,40.922 -66.03,86.542 -66.03,122.692 0,12.73 3.78,24.29 12.44,34.05 13.39,15.1 27.33,21.54 41.43,21.54 60.12,0 122.91,-117.27 155.84,-181.348 47.32,-92.082 68.61,-146.133 72.27,-170.973 -0.41,-1.48 -0.8,-2.937 -1.2,-4.418 L 3127.99,969.18 c -1.21,1.808 -3.19,2.8 -5.23,2.8 -1.18,0 -2.38,-0.332 -3.45,-1.039 -1.82,-1.211 -2.81,-3.211 -2.8,-5.25 v 0 0 c 0,-1.179 0.33,-2.371 1.03,-3.429 l 103.14,-155.84 m 427.3,32.137 c -56.59,0 -124.28,14.621 -169.32,24.921 -119.65,27.379 -180.01,48.84 -198.21,63.34 l 206.27,-20.398 0.63,-0.031 c 3.17,0 5.9,2.41 6.22,5.648 0.02,0.211 0.03,0.43 0.03,0.641 v 0 0 c -0.01,3.172 -2.42,5.879 -5.65,6.199 l -209.97,20.762 c -0.04,0.007 -0.09,0.007 -0.14,0.019 0.16,0.512 0.33,1.02 0.49,1.539 3.68,2.281 9.85,4.031 18.17,5.242 l 121.12,17.09 c 0,0 88.77,17.391 174.6,17.391 76.1,0 149.9,-13.672 157.46,-65.25 0.69,-4.723 1.03,-9.172 1.02,-13.371 -0.04,-48.93 -45.75,-63.742 -102.72,-63.742 m 130.56,190.191 c -64.44,0 -138.99,14.02 -189.54,24.14 -146.69,29.36 -218.68,53.32 -238.16,69.94 l 265.39,-13.38 0.33,-0.01 c 3.31,0 6.07,2.6 6.24,5.95 0,0.1 0.01,0.21 0.01,0.32 v 0 0 c 0,3.3 -2.6,6.07 -5.95,6.24 l -267.81,13.51 c 0.43,1.04 0.85,2.08 1.28,3.12 4.33,2.65 11.36,4.81 20.75,6.44 l 142.57,24.11 c 0,0 117.88,26.45 224.84,26.45 82.89,0 159.22,-15.88 169.07,-72.27 1.14,-6.49 1.68,-12.56 1.68,-18.26 -0.06,-59.03 -59.15,-76.3 -130.7,-76.3 m -477.21,18.81 c -3.87,1.06 -8.98,4.43 -15.1,9.88 l -83.77,75.11 c 0,0 -49.63,39.95 -96.1,90.4 -40.9,44.41 -79.36,96.97 -79.36,137.59 0,12.72 3.78,24.28 12.44,34.05 13.38,15.09 27.33,21.53 41.43,21.53 60.11,0 122.89,-117.27 155.83,-181.36 45.52,-88.57 66.96,-141.94 71.78,-167.99 -0.58,-1.54 -1.17,-3.13 -1.75,-4.67 l -193.78,248.99 c -1.24,1.58 -3.08,2.4 -4.95,2.4 -1.34,0 -2.69,-0.42 -3.83,-1.31 -1.58,-1.23 -2.41,-3.06 -2.42,-4.91 v 0 0 c 0,-1.36 0.43,-2.72 1.32,-3.88 l 198.53,-255.1 c -0.09,-0.25 -0.18,-0.48 -0.27,-0.73 m 76.39,196.42 c -4.76,2.01 -10.68,7.63 -17.46,16.43 l -87.79,114.88 c 0,0 -145.31,170.51 -166.11,286.1 -1.6,8.88 -2.46,17.44 -2.47,25.57 -0.01,23.98 7.43,44.25 25.46,58.18 16.42,12.69 31.97,18.3 46.66,18.3 81.86,0 136.69,-174.34 164.16,-267.29 36.1,-122.13 50.43,-194.54 50.43,-228.79 0,-2.82 -0.1,-5.4 -0.29,-7.71 -1.06,-2.08 -2.09,-4.13 -3.11,-6.17 l -148.13,335.27 c -1.03,2.34 -3.32,3.73 -5.72,3.73 -0.85,0 -1.71,-0.17 -2.53,-0.54 -2.34,-1.03 -3.73,-3.31 -3.73,-5.71 v 0 0 c -0.01,-0.85 0.17,-1.71 0.53,-2.54 l 150.1,-339.71 m 282.93,16.48 c -143.72,0 -216.52,9.06 -238.47,21.23 l 361.91,51.7 c 3.12,0.46 5.38,3.14 5.37,6.22 v 0 0 c 0,0.29 -0.02,0.58 -0.06,0.87 -0.45,3.14 -3.17,5.37 -6.26,5.37 -0.28,0 -0.55,-0.02 -0.83,-0.05 l -358.42,-51.21 c 1.83,3.1 3.69,6.22 5.59,9.36 2.42,1.17 5.13,2.34 8.1,3.5 l 134.94,51.97 c 0,0 179.12,80.18 297.81,80.18 46.6,0 83.88,-12.36 97.35,-46.78 4.69,-11.98 6.86,-22.87 6.85,-32.77 -0.09,-95.21 -201.51,-99.31 -305.05,-99.58 -2.98,0 -5.92,-0.01 -8.83,-0.01 m -203.64,120.02 c -3.16,3.92 -6.25,10.38 -9.19,19.09 l -45.73,137.17 c 0,0 -66.73,169.54 -66.73,287.96 0,52.74 13.24,95.34 51.49,108.32 10.86,3.68 20.78,5.41 29.82,5.41 77.31,0 90.69,-126.23 90.69,-231.11 0,-28.69 -1.01,-55.79 -1.98,-78.26 -5.06,-116.7 -13.87,-187.9 -23.88,-223.88 -4.2,-5.92 -8.31,-11.79 -12.37,-17.64 l -23.34,389.07 c -0.21,3.26 -2.97,5.91 -6.07,5.91 -0.18,0 -0.37,-0.01 -0.55,-0.03 -3.34,-0.2 -5.9,-2.97 -5.9,-6.26 v 0 0 c 0.01,-0.12 0.01,-0.24 0.02,-0.36 l 23.72,-395.39 m 89.72,88.57 c -0.95,0 -1.86,0.06 -2.7,0.17 138.43,182.46 309.98,368.77 312.5,371.5 1.11,1.21 1.66,2.74 1.66,4.27 v 0 0 c -0.01,1.68 -0.68,3.35 -2.01,4.58 -1.2,1.1 -2.73,1.66 -4.25,1.66 -1.68,0 -3.37,-0.68 -4.6,-2.02 -2.52,-2.73 -173.81,-188.77 -312.71,-371.76 -0.28,1.24 -0.42,2.62 -0.42,4.12 0,6.34 2.47,14.93 7.21,25.4 l 70.75,154.2 c 0,0 133.53,343.91 271.23,343.91 14.25,0 28.58,-3.69 42.78,-11.83 42,-24.08 58.67,-54.64 58.64,-88.15 -0.08,-92.18 -126.49,-206.73 -199.29,-270.26 -136.63,-119.25 -211.21,-165.8 -238.79,-165.79"
         style="fill:#badd16;fill-opacity:1;fill-rule:nonzero;stroke:none"
         id="path64" />
      <path
         d="m 3136.99,381.891 c 0.41,1.16 42.57,117.129 169.14,144.82 3.38,0.738 5.51,4.078 4.77,7.461 -0.73,3.379 -4.12,5.476 -7.45,4.769 -133.55,-29.23 -177.85,-151.679 -178.28,-152.91 -1.14,-3.261 0.58,-6.832 3.84,-7.98 l 2.07,-0.352 c 2.58,0 5,1.61 5.91,4.192 m 331.23,369.179 c 0.03,3.461 -2.75,6.289 -6.2,6.321 l -246.9,2.308 h -0.06 c -3.42,0 -6.23,-2.758 -6.26,-6.199 -0.03,-3.461 2.75,-6.289 6.2,-6.32 l 246.9,-2.309 h 0.06 c 3.43,0 6.23,2.758 6.26,6.199 m -238.16,52.52 c 2.88,1.91 3.68,5.801 1.77,8.68 l -103.84,156.91 c -1.91,2.879 -5.78,3.679 -8.68,1.761 -2.88,-1.91 -3.67,-5.8 -1.77,-8.679 l 103.84,-156.903 c 1.21,-1.82 3.21,-2.808 5.24,-2.808 1.18,0 2.38,0.34 3.44,1.039 m 263.51,108.449 c 0.34,3.43 -2.18,6.5 -5.62,6.84 l -209.97,20.762 c -3.36,0.328 -6.5,-2.161 -6.84,-5.61 -0.34,-3.441 2.18,-6.5 5.61,-6.851 l 209.97,-20.758 0.63,-0.031 c 3.17,0 5.9,2.41 6.22,5.648 m 129.23,203.351 c 0.17,3.44 -2.48,6.38 -5.94,6.56 l -274.58,13.85 c -3.47,0.33 -6.39,-2.48 -6.56,-5.94 -0.18,-3.45 2.48,-6.39 5.93,-6.56 l 274.58,-13.85 0.33,-0.01 c 3.31,0 6.07,2.6 6.24,5.95 m -311.59,-69.24 c 2.72,2.13 3.21,6.05 1.09,8.79 l -199.35,256.15 c -2.13,2.71 -6.05,3.2 -8.78,1.09 -2.73,-2.13 -3.22,-6.05 -1.1,-8.79 l 199.35,-256.15 c 1.24,-1.58 3.07,-2.41 4.94,-2.41 1.35,0 2.7,0.43 3.85,1.32 m 104.96,234.68 367.92,52.56 c 3.41,0.5 5.8,3.67 5.31,7.09 -0.49,3.42 -3.66,5.76 -7.09,5.32 l -367.92,-52.57 c -3.42,-0.5 -5.8,-3.66 -5.31,-7.09 0.45,-3.12 3.12,-5.37 6.19,-5.37 l 0.9,0.06 m -26.66,-48.04 c 3.16,1.4 4.59,5.09 3.19,8.25 l -153.63,347.71 c -1.4,3.17 -5.1,4.61 -8.25,3.19 -3.17,-1.4 -4.59,-5.09 -3.2,-8.25 l 153.63,-347.71 c 1.04,-2.34 3.32,-3.73 5.73,-3.73 l 2.53,0.54 m 74.65,132.9 c 3.46,0.2 6.09,3.17 5.88,6.62 l -24.25,404.3 c -0.22,3.45 -3.3,6.22 -6.62,5.88 -3.46,-0.21 -6.09,-3.18 -5.88,-6.62 l 24.25,-404.3 c 0.21,-3.33 2.96,-5.89 6.24,-5.89 l 0.38,0.01 M 3165.03,290.242 c 3.45,0.227 6.06,3.207 5.83,6.668 -15.72,235.84 75.48,621.961 221.8,938.97 93.52,202.62 460.18,600.84 463.87,604.84 2.34,2.54 2.19,6.5 -0.35,8.85 -2.52,2.33 -6.5,2.19 -8.85,-0.36 -3.7,-4.01 -371.69,-403.68 -466.04,-608.07 -149.43,-323.788 -239.02,-703.581 -222.93,-945.07 0.23,-3.3 2.98,-5.84 6.24,-5.84 l 0.43,0.012 m -28.04,91.649 c 0.41,1.16 42.57,117.129 169.14,144.82 3.38,0.738 5.51,4.078 4.77,7.461 -0.73,3.379 -4.12,5.476 -7.45,4.769 -133.55,-29.23 -177.85,-151.679 -178.28,-152.91 -1.14,-3.261 0.58,-6.832 3.84,-7.98 l 2.07,-0.352 c 2.58,0 5,1.61 5.91,4.192 m 331.23,369.179 c 0.03,3.461 -2.75,6.289 -6.2,6.321 l -246.9,2.308 h -0.06 c -3.42,0 -6.23,-2.758 -6.26,-6.199 -0.03,-3.461 2.75,-6.289 6.2,-6.32 l 246.9,-2.309 h 0.06 c 3.43,0 6.23,2.758 6.26,6.199 m -238.16,52.52 c 2.88,1.91 3.68,5.801 1.77,8.68 l -103.84,156.91 c -1.91,2.879 -5.78,3.679 -8.68,1.761 -2.88,-1.91 -3.67,-5.8 -1.77,-8.679 l 103.84,-156.903 c 1.21,-1.82 3.21,-2.808 5.24,-2.808 1.18,0 2.38,0.34 3.44,1.039 m 263.51,108.449 c 0.34,3.43 -2.18,6.5 -5.62,6.84 l -209.97,20.762 c -3.36,0.328 -6.5,-2.161 -6.84,-5.61 -0.34,-3.441 2.18,-6.5 5.61,-6.851 l 209.97,-20.758 0.63,-0.031 c 3.17,0 5.9,2.41 6.22,5.648 m 129.23,203.351 c 0.17,3.44 -2.48,6.38 -5.94,6.56 l -274.58,13.85 c -3.47,0.33 -6.39,-2.48 -6.56,-5.94 -0.18,-3.45 2.48,-6.39 5.93,-6.56 l 274.58,-13.85 0.33,-0.01 c 3.31,0 6.07,2.6 6.24,5.95 m -311.59,-69.24 c 2.72,2.13 3.21,6.05 1.09,8.79 l -199.35,256.15 c -2.13,2.71 -6.05,3.2 -8.78,1.09 -2.73,-2.13 -3.22,-6.05 -1.1,-8.79 l 199.35,-256.15 c 1.24,-1.58 3.07,-2.41 4.94,-2.41 1.35,0 2.7,0.43 3.85,1.32 m 104.96,234.68 367.92,52.56 c 3.41,0.5 5.8,3.67 5.31,7.09 -0.49,3.42 -3.66,5.76 -7.09,5.32 l -367.92,-52.57 c -3.42,-0.5 -5.8,-3.66 -5.31,-7.09 0.45,-3.12 3.12,-5.37 6.19,-5.37 l 0.9,0.06 m -26.66,-48.04 c 3.16,1.4 4.59,5.09 3.19,8.25 l -153.63,347.71 c -1.4,3.17 -5.1,4.61 -8.25,3.19 -3.17,-1.4 -4.59,-5.09 -3.2,-8.25 l 153.63,-347.71 c 1.04,-2.34 3.32,-3.73 5.73,-3.73 l 2.53,0.54 m 74.65,132.9 c 3.46,0.2 6.09,3.17 5.88,6.62 l -24.25,404.3 c -0.22,3.45 -3.3,6.22 -6.62,5.88 -3.46,-0.21 -6.09,-3.18 -5.88,-6.62 l 24.25,-404.3 c 0.21,-3.33 2.96,-5.89 6.24,-5.89 l 0.38,0.01 M 3165.03,290.242 c 3.45,0.227 6.06,3.207 5.83,6.668 -15.72,235.84 75.48,621.961 221.8,938.97 93.52,202.62 460.18,600.84 463.87,604.84 2.34,2.54 2.19,6.5 -0.35,8.85 -2.52,2.33 -6.5,2.19 -8.85,-0.36 -3.7,-4.01 -371.69,-403.68 -466.04,-608.07 -149.43,-323.788 -239.02,-703.581 -222.93,-945.07 0.23,-3.3 2.98,-5.84 6.24,-5.84 l 0.43,0.012 m 50.03,463.199 246.9,-2.312 -246.9,2.312 m 11.55,55.368 -103.84,156.91 103.84,-156.91 m 50.76,124.601 209.97,-20.762 -209.97,20.762 m 64.6,196.14 274.58,-13.85 -274.58,13.85 m -34.61,-78.46 -199.35,256.15 199.35,-256.15 m 475.84,288.51 -367.92,-52.57 367.92,52.57 m -396.22,-101.09 -153.63,347.71 153.63,-347.71 m 76.81,133.43 -24.25,404.3 24.25,-404.3"
         style="fill:#a0d61e;fill-opacity:1;fill-rule:nonzero;stroke:none"
         id="path66" />
      <path
         d="M 3194.46,466.5 H 3177 c 28.03,30.02 68.98,59.859 126.45,72.441 0.44,0.09 0.88,0.141 1.31,0.141 2.87,0 5.51,-1.973 6.14,-4.91 0.1,-0.453 0.15,-0.902 0.15,-1.34 0,-2.883 -1.99,-5.48 -4.92,-6.121 -19.92,-4.359 -37.75,-10.902 -53.65,-18.84 -23.29,-11.633 -42.46,-26.25 -58.02,-41.371 m -19.54,0 h -12.97 c 7.98,87.262 24.57,183.219 48.53,282.68 v 0 0 c -1.03,1.109 -1.67,2.601 -1.68,4.242 0,0.027 0,0.047 0,0.078 0.03,2.699 1.75,4.98 4.15,5.84 3.57,14.531 7.28,29.09 11.15,43.742 v 0 0 c -1.07,0.457 -2.02,1.227 -2.72,2.277 l -103.84,156.903 c -0.7,1.058 -1.03,2.25 -1.03,3.429 -0.01,2.039 0.98,4.039 2.8,5.25 1.07,0.707 2.27,1.039 3.45,1.039 2.04,0 4.02,-0.992 5.23,-2.8 l 100.09,-151.239 c 20.63,76.231 45.31,153.75 73.52,230.349 v 0 0 l -198.53,255.1 c -0.89,1.16 -1.32,2.52 -1.32,3.88 0.01,1.85 0.84,3.68 2.42,4.91 1.14,0.89 2.49,1.31 3.83,1.31 1.87,0 3.71,-0.82 4.95,-2.4 l 193.78,-248.99 c 22.4,59.84 46.95,119.03 73.38,176.47 v 0 0 l -152.49,345.12 c -0.36,0.83 -0.54,1.69 -0.53,2.54 0,2.4 1.39,4.68 3.73,5.71 0.82,0.37 1.68,0.54 2.53,0.54 2.4,0 4.69,-1.39 5.72,-3.73 l 148.13,-335.27 c 17.33,34.98 41.76,74.97 70.44,117.3 v 0 0 c -0.05,0.26 -0.08,0.52 -0.1,0.79 l -24.25,404.3 c -0.01,0.12 -0.01,0.24 -0.02,0.36 0,3.29 2.56,6.06 5.9,6.26 0.18,0.02 0.37,0.03 0.55,0.03 3.1,0 5.86,-2.65 6.07,-5.91 l 23.34,-389.07 c 142.95,206.19 375.26,458.49 378.2,461.67 1.23,1.34 2.92,2.02 4.6,2.02 1.52,0 3.05,-0.56 4.25,-1.66 1.33,-1.23 2,-2.9 2.01,-4.58 0,-1.53 -0.55,-3.06 -1.66,-4.27 -2.52,-2.73 -174.07,-189.04 -312.5,-371.5 -46.25,-60.97 -88.82,-121.52 -120.14,-174.63 v 0 0 l 358.42,51.21 c 0.28,0.03 0.55,0.05 0.83,0.05 3.09,0 5.81,-2.23 6.26,-5.37 0.04,-0.29 0.06,-0.58 0.06,-0.87 0.01,-3.08 -2.25,-5.76 -5.37,-6.22 l -361.91,-51.7 -6.01,-0.86 -0.24,-0.02 c -8.94,-15.79 -16.76,-30.83 -23.27,-44.93 -14.68,-31.81 -28.81,-64.32 -42.33,-97.3 -0.43,-1.04 -0.85,-2.08 -1.28,-3.12 v 0 0 l 267.81,-13.51 c 3.35,-0.17 5.95,-2.94 5.95,-6.24 0,-0.11 -0.01,-0.22 -0.01,-0.32 -0.17,-3.35 -2.93,-5.95 -6.24,-5.95 l -0.33,0.01 -272.16,13.72 c -24.21,-60.15 -46.4,-121.78 -66.23,-183.51 v 0 0 c 0.05,-0.012 0.1,-0.012 0.14,-0.019 l 209.97,-20.762 c 3.23,-0.32 5.64,-3.027 5.65,-6.199 0,-0.211 -0.01,-0.43 -0.03,-0.641 -0.32,-3.238 -3.05,-5.648 -6.22,-5.648 l -0.63,0.031 -209.97,20.758 c -0.95,0.101 -1.84,0.402 -2.61,0.871 -17.87,-56.449 -33.76,-112.961 -47.44,-168.461 v 0 0 l 235.32,-2.199 c 3.43,-0.032 6.18,-2.821 6.2,-6.243 0,-0.027 0,-0.046 0,-0.078 -0.03,-3.441 -2.83,-6.199 -6.26,-6.199 h -0.06 l -238.24,2.231 c -0.26,-1.051 -0.52,-2.141 -0.77,-3.192 -23.42,-97.711 -39.84,-192.031 -47.97,-277.41"
         style="fill:#7bcb29;fill-opacity:1;fill-rule:nonzero;stroke:none"
         id="path68" />
      <path
         d="m 3327.93,466.5 h -283.08 v -58.57 h 24.66 l 51.13,-319.7386 h 131.48 l 51.14,319.7386 h 24.67 v 58.57"
         style="fill:#a0d61e;fill-opacity:1;fill-rule:nonzero;stroke:none"
         id="path70" />
      <path
         d="M 3252.12,88.1914 H 3120.64 L 3098.4,227.262 3069.51,407.93 h -24.66 v 58.57 h 283.08 v -58.57 h -24.67 L 3252.12,88.1914"
         style="fill:#badd16;fill-opacity:1;fill-rule:nonzero;stroke:none"
         id="path72" />
      <path
         d="M 779.141,2238.51 449.859,2346 l -29.296,77.42 -66.965,2.09 -121.371,23.02 14.652,-25.11 152.758,-110.9 37.668,-18.84 344.488,-179.85 -2.652,124.68"
         style="fill:#ffffff;fill-opacity:1;fill-rule:nonzero;stroke:none"
         id="path74" />
      <path
         d="m 779.141,2238.51 1.558,4.77 -326.996,106.74 -29.633,78.32 -69.922,2.18 -131.808,25 20.738,-35.54 153.945,-111.77 38,-19 351.969,-183.76 -2.906,136.73 -3.387,1.1 -1.558,-4.77 -5.02,-0.11 2.473,-116.19 -337.004,175.94 -37.336,18.67 -151.57,110.05 -8.571,14.68 110.938,-21.04 64.004,-2 28.961,-76.54 331.566,-108.23 1.559,4.77 -5.02,-0.11 5.02,0.11"
         style="fill:#1d2a30;fill-opacity:1;fill-rule:nonzero;stroke:none"
         id="path76" />
      <path
         d="m 420.563,2423.42 -31.387,18.84 -62.781,-23.03 10.464,-12.55 83.704,16.74"
         style="fill:#ffffff;fill-opacity:1;fill-rule:nonzero;stroke:none"
         id="path78" />
      <path
         d="m 420.563,2423.42 2.582,4.31 -31.387,18.83 c -1.309,0.79 -2.879,0.93 -4.313,0.41 l -62.777,-23.02 c -1.527,-0.56 -2.699,-1.84 -3.121,-3.41 -0.422,-1.58 -0.051,-3.27 0.992,-4.52 l 10.465,-12.55 c 1.18,-1.42 3.035,-2.07 4.84,-1.71 l 83.703,16.74 c 2.035,0.41 3.605,2.02 3.961,4.07 0.355,2.04 -0.582,4.09 -2.363,5.16 l -2.582,-4.31 -0.989,4.93 -80.769,-16.16 -3.992,4.78 53.835,19.75 29.332,-17.6 2.583,4.3 -0.989,4.93 0.989,-4.93"
         style="fill:#1d2a30;fill-opacity:1;fill-rule:nonzero;stroke:none"
         id="path80" />
      <path
         d="M 779.141,2238.51 449.859,2346 l -29.296,77.42 -66.965,2.09 -121.371,23.02 14.652,-25.11 152.758,-110.9 37.668,-18.84 344.488,-179.85 -2.652,124.68"
         style="fill:#ffffff;fill-opacity:1;fill-rule:nonzero;stroke:none"
         id="path82" />
      <g
         id="g84">
        <g
           id="g86"
           clip-path="url(#clipPath90)">
          <path
             d="m 727.309,2170.86 -145.188,52.88 -142.531,74.41 -36.828,18.42 -12,78.56 -30.032,11.21 56.641,11.33 28.645,-75.7 273.929,-89.42 c 2.399,-27.15 5.176,-55.08 7.364,-81.69 m -405.645,250.05 -3.18,1.18 -9.765,6.83 19.445,-3.69 -3.496,-1.28 c -1.406,-0.52 -2.508,-1.64 -3.004,-3.04 m -43.891,3.2 -17.375,13.97 24.668,-4.68 -7.293,-9.29"
             style="fill:#cfe757;fill-opacity:1;fill-rule:nonzero;stroke:none"
             id="path92" />
        </g>
      </g>
      <path
         d="m 779.141,2238.51 1.558,4.77 -326.996,106.74 -29.633,78.32 -69.922,2.18 -131.808,25 20.738,-35.54 153.945,-111.77 38,-19 351.969,-183.76 -2.906,136.73 -3.387,1.1 -1.558,-4.77 -5.02,-0.11 2.473,-116.19 -337.004,175.94 -37.336,18.67 -151.57,110.05 -8.571,14.68 110.938,-21.04 64.004,-2 28.961,-76.54 331.566,-108.23 1.559,4.77 -5.02,-0.11 5.02,0.11"
         style="fill:#1d2a30;fill-opacity:1;fill-rule:nonzero;stroke:none"
         id="path94" />
      <path
         d="m 420.563,2423.42 -31.387,18.84 -62.781,-23.03 10.464,-12.55 83.704,16.74"
         style="fill:#ffffff;fill-opacity:1;fill-rule:nonzero;stroke:none"
         id="path96" />
      <g
         id="g98">
        <g
           id="g100"
           clip-path="url(#clipPath104)">
          <path
             d="m 342.863,2413 -6.875,2.56 -1.175,1.41 53.835,19.75 18.2,-10.92 -63.985,-12.8"
             style="fill:#cfe757;fill-opacity:1;fill-rule:nonzero;stroke:none"
             id="path106" />
        </g>
      </g>
      <path
         d="m 420.563,2423.42 2.582,4.31 -31.387,18.83 c -1.309,0.79 -2.879,0.93 -4.313,0.41 l -62.777,-23.02 c -1.527,-0.56 -2.699,-1.84 -3.121,-3.41 -0.422,-1.58 -0.051,-3.27 0.992,-4.52 l 10.465,-12.55 c 1.18,-1.42 3.035,-2.07 4.84,-1.71 l 83.703,16.74 c 2.035,0.41 3.605,2.02 3.961,4.07 0.355,2.04 -0.582,4.09 -2.363,5.16 l -2.582,-4.31 -0.989,4.93 -80.769,-16.16 -3.992,4.78 53.835,19.75 29.332,-17.6 2.583,4.3 -0.989,4.93 0.989,-4.93"
         style="fill:#1d2a30;fill-opacity:1;fill-rule:nonzero;stroke:none"
         id="path108" />
      <path
         d="m 849.047,2936.26 c 0,0 -5.094,-45 7.598,-73.93 12.691,-28.93 83.242,-126.78 83.242,-126.78 L 808.188,2629.97 c 0,0 -54.551,110.3 -64.985,127.8 -10.433,17.49 -22.855,94.44 11.02,149.31 33.879,54.88 82.699,69.4 94.824,29.18"
         style="fill:#ffffff;fill-opacity:1;fill-rule:nonzero;stroke:none"
         id="path110" />
      <g
         id="g112">
        <g
           id="g114"
           clip-path="url(#clipPath118)">
          <path
             d="m 802.602,2652.51 c -5.11,10.27 -11.672,23.43 -18.508,37.05 -6.606,13.16 -13.465,26.74 -19.524,38.58 5.895,7.29 11.274,14.66 15.86,21.65 0.093,0.14 0.183,0.28 0.277,0.42 v 0 0.01 0 c 0.043,0.06 0.086,0.13 0.133,0.2 v 0 c 0,0 0.004,0.01 0.008,0.01 v 0 c 0.043,0.07 0.082,0.13 0.121,0.19 v 0 c 0.008,0.02 0.015,0.03 0.027,0.04 v 0 c 0.031,0.06 0.067,0.11 0.102,0.16 v 0 c 0.019,0.04 0.035,0.06 0.054,0.09 v 0 c 0.012,0.02 0.028,0.05 0.039,0.06 v 0 c 4.547,7.22 7.469,14.6 9.239,21.92 l 40.289,-83.46 c -9.688,-12.15 -19.309,-24.68 -28.117,-36.92"
             style="fill:#cfe757;fill-opacity:1;fill-rule:nonzero;stroke:none"
             id="path120" />
        </g>
      </g>
      <path
         d="m 849.047,2936.26 -4.988,0.57 c -0.012,-0.14 -1.039,-9.22 -1.039,-21.94 0.031,-15.87 1.503,-37.32 9.031,-54.58 3.422,-7.78 10.258,-19.33 18.715,-32.68 25.332,-39.94 65.023,-94.97 65.05,-95.01 l 4.071,2.93 -3.141,3.92 -131.695,-105.59 3.137,-3.91 4.5,2.22 c -0.004,0.01 -13.641,27.59 -28.594,57.37 -7.477,14.89 -15.278,30.33 -21.871,43.15 -6.61,12.85 -11.942,22.98 -14.707,27.63 -2.118,3.47 -4.918,11.49 -6.93,21.89 -2.051,10.44 -3.477,23.42 -3.477,37.51 -0.011,27.35 5.387,58.83 21.383,84.7 10.098,16.36 21.52,28.94 32.625,37.3 11.102,8.4 21.856,12.47 30.356,12.43 5.386,-0.02 9.851,-1.5 13.644,-4.52 3.781,-3.04 6.992,-7.79 9.125,-14.84 l 4.805,1.45 -4.988,0.57 4.988,-0.57 4.808,1.45 c -2.566,8.52 -6.792,15.23 -12.453,19.77 -5.648,4.55 -12.625,6.75 -19.929,6.73 -11.61,-0.03 -24.094,-5.2 -36.399,-14.45 -12.301,-9.28 -24.453,-22.77 -35.125,-40.04 -17.344,-28.15 -22.863,-61.36 -22.875,-89.98 0,-14.77 1.481,-28.34 3.66,-39.45 2.219,-11.14 4.977,-19.68 8.157,-25.09 2.453,-4.11 7.847,-14.32 14.406,-27.08 9.851,-19.17 22.457,-44.27 32.59,-64.57 10.133,-20.31 17.785,-35.77 17.801,-35.81 l 2.769,-5.6 140.289,112.48 -2.785,3.87 c -0.012,0.01 -4.395,6.09 -11.199,15.7 -10.199,14.42 -25.805,36.72 -40.024,58.09 -14.191,21.31 -27.093,41.96 -31.496,52.07 -6.558,14.83 -8.219,35.37 -8.183,50.54 0,6.09 0.246,11.32 0.492,15.02 0.125,1.85 0.246,3.31 0.34,4.3 0.089,1 0.144,1.48 0.144,1.49 l 0.117,1.02 -0.297,0.99 -4.808,-1.45"
         style="fill:#1d2a30;fill-opacity:1;fill-rule:nonzero;stroke:none"
         id="path122" />
      <path
         d="m 889.789,3018.59 c -8.086,49.85 -65.348,151.77 -156.258,147.79 -59.019,-2.59 -86.558,-14.51 -112.23,-28.97 -13.082,-7.36 -48.309,-31.93 -57.934,-43.44 -44.476,-53.23 -59.746,-67.89 -51.453,-108.65 -1.848,-12.44 2.953,-35.54 7.551,-47.79 13.625,-36.34 22.879,-60.06 34.637,-77.33 -3.61,-16.93 -12.946,-61.49 -13.457,-71.7 -0.473,-9.44 29.843,-3.09 45.367,0.77 28.621,-63.96 81,-108.35 97.347,-113.46 28.364,-8.86 73.317,37.81 97.071,73.98 23.754,36.17 5.84,76.95 5.91,93.12 0.07,16.17 53.539,51.78 73.25,63.06 19.719,11.28 38.289,62.76 30.199,112.62"
         style="fill:#ffffff;fill-opacity:1;fill-rule:nonzero;stroke:none"
         id="path124" />
      <g
         id="g126">
        <g
           id="g128"
           clip-path="url(#clipPath132)">
          <path
             d="m 690.836,2674.71 c -2.594,0 -5.094,0.36 -7.477,1.1 -16.347,5.11 -68.726,49.5 -97.347,113.46 -9.559,-2.38 -24.719,-5.7 -34.852,-5.7 -6.207,0 -10.527,1.25 -10.519,4.72 0,0.07 0,0.14 0.004,0.21 0.511,10.21 9.847,54.77 13.457,71.7 v 0 0 0 0 c -11.758,17.27 -21.012,40.99 -34.637,77.33 -3.899,10.38 -7.938,28.56 -7.957,41.43 0,2.32 0.125,4.46 0.406,6.36 v 0 0 0 0 c -1.426,7 -2.152,13.24 -2.16,19.03 -0.02,27.91 16.781,45.54 53.613,89.62 l 60.36,25.07 51.531,-42.58 -24.649,-121 c 0,0 -0.488,-0.03 -1.379,-0.03 -6.218,0 -31.949,1.71 -45.675,29.16 -15.684,31.37 -11.973,60.1 -6.719,73.95 0.891,2.34 0.898,3.31 0.305,3.31 -2.926,0 -20.469,-23.48 -20.469,-23.48 0,0 -15.688,-64.98 -11.207,-80.66 4.48,-15.69 71.703,-40.34 76.183,-67.23 4.481,-26.89 -4.48,-51.53 17.926,-69.46 22.406,-17.92 62.742,-71.7 89.629,-78.42 1.649,-0.41 3.242,-0.61 4.789,-0.61 23.692,0.01 35.543,45.42 35.543,45.42 0,0 0.879,-2.92 2.168,-7.65 -1.433,-9.54 -4.543,-19.31 -10.512,-28.79 -0.011,-0.01 -0.027,-0.04 -0.039,-0.06 -0.015,-0.03 -0.035,-0.06 -0.054,-0.09 -0.035,-0.05 -0.071,-0.1 -0.102,-0.16 -0.012,-0.01 -0.019,-0.02 -0.027,-0.04 -0.039,-0.06 -0.078,-0.12 -0.121,-0.19 -0.004,0 -0.004,-0.01 -0.008,-0.01 -0.047,-0.07 -0.09,-0.14 -0.133,-0.2 v -0.01 c -0.094,-0.14 -0.184,-0.28 -0.277,-0.42 -4.586,-6.99 -9.965,-14.36 -15.86,-21.65 -2.265,-2.8 -4.609,-5.6 -7.011,-8.35 -21.012,-24.04 -46.688,-45.08 -66.723,-45.08"
             style="fill:#cfe757;fill-opacity:1;fill-rule:nonzero;stroke:none"
             id="path134" />
        </g>
      </g>
      <path
         d="m 889.789,3018.59 4.938,0.8 c -4.207,25.64 -20.266,63.04 -46.657,94.7 -26.34,31.54 -63.429,57.38 -109.379,57.4 -1.781,0 -3.574,-0.04 -5.378,-0.11 -59.547,-2.55 -88.469,-14.91 -114.465,-29.61 -6.879,-3.88 -18.965,-11.88 -30.758,-20.48 -5.887,-4.3 -11.668,-8.73 -16.645,-12.86 -4.98,-4.15 -9.117,-7.93 -11.914,-11.25 v 0 c -18.375,-22 -31.828,-37.45 -40.953,-51.32 -9.117,-13.8 -13.867,-26.47 -13.824,-41.46 0.004,-6.22 0.781,-12.81 2.262,-20.08 l 4.898,1 -4.945,0.73 c -0.324,-2.19 -0.457,-4.53 -0.461,-7 0.047,-13.87 4.148,-32.17 8.273,-43.28 13.653,-36.35 22.926,-60.33 35.188,-78.38 l 4.133,2.81 -4.891,1.04 c -1.809,-8.48 -5.047,-23.87 -7.906,-38.45 -1.43,-7.29 -2.762,-14.38 -3.778,-20.32 -1.015,-5.98 -1.714,-10.67 -1.875,-13.72 v 0 l -0.011,-0.47 c -0.032,-1.9 0.699,-3.96 1.925,-5.39 1.864,-2.18 4.153,-3.04 6.372,-3.6 2.25,-0.54 4.64,-0.71 7.222,-0.72 11.113,0.04 26.305,3.45 36.055,5.85 l -1.203,4.85 -4.567,-2.04 c 14.61,-32.63 35.172,-60.12 54.215,-80.2 9.528,-10.04 18.672,-18.23 26.57,-24.3 7.961,-6.07 14.422,-10.01 19.637,-11.69 2.906,-0.91 5.922,-1.33 8.969,-1.33 8.32,0.02 16.805,3.01 25.297,7.7 25.363,14.16 51.75,44.28 68.476,69.64 10.129,15.4 13.157,31.68 13.141,46.38 0,11.05 -1.672,21.28 -3.293,29.88 -1.637,8.54 -3.16,15.66 -3.121,19.51 v 0.04 l 0.004,0.02 v 0.01 c -0.031,0.63 0.39,2.26 1.66,4.36 2.172,3.7 6.582,8.63 12.188,13.77 16.832,15.51 44.273,33.41 56.886,40.61 10.012,5.87 18.145,18.4 24.434,34.68 6.207,16.31 10.219,36.49 10.222,57.7 0,8.37 -0.625,16.88 -2.003,25.38 l -4.938,-0.8 -4.934,-0.8 c 1.286,-7.93 1.875,-15.91 1.875,-23.78 0.008,-19.93 -3.816,-39.06 -9.566,-54.13 -5.66,-15.1 -13.601,-26.03 -20.059,-29.57 -10.101,-5.79 -28.472,-17.56 -44.578,-30.09 -8.054,-6.28 -15.523,-12.71 -21.164,-18.83 -2.82,-3.07 -5.191,-6.06 -6.965,-9.04 -1.75,-2.99 -3.015,-6 -3.058,-9.42 v 0.03 l -0.004,-0.14 c 0.043,-5.9 1.727,-12.93 3.297,-21.37 1.586,-8.39 3.121,-17.98 3.121,-28.02 -0.016,-13.39 -2.68,-27.44 -11.504,-40.89 -10.645,-16.23 -25.785,-34.75 -41.527,-49.01 -7.864,-7.13 -15.879,-13.18 -23.438,-17.37 -7.562,-4.21 -14.629,-6.47 -20.449,-6.45 -2.145,0.01 -4.125,0.29 -5.984,0.87 -2.961,0.88 -9.176,4.4 -16.532,10.09 -22.3,17.09 -56.754,53.65 -77.746,100.64 l -1.711,3.82 -4.058,-1.01 c -9.36,-2.35 -24.489,-5.58 -33.645,-5.55 -2.758,-0.02 -4.933,0.35 -5.726,0.7 l -0.325,0.16 -0.281,-0.42 0.36,0.35 -0.079,0.07 -0.281,-0.42 0.36,0.35 -1.102,-1.08 h 1.555 l -0.453,1.08 -1.102,-1.08 h 1.555 -0.735 l 0.731,-0.04 0.004,0.04 h -0.735 l 0.731,-0.04 0.004,0.08 -0.004,-0.07 c 0.093,2.05 0.754,6.76 1.75,12.54 2.976,17.46 8.906,45.71 11.605,58.37 l 0.446,2.09 -1.204,1.76 c -11.254,16.49 -20.484,39.95 -34.089,76.27 -3.68,9.7 -7.68,27.88 -7.637,39.77 0,2.09 0.121,3.98 0.351,5.54 l 0.129,0.86 -0.175,0.87 c -1.379,6.78 -2.059,12.7 -2.059,18.08 0.047,12.89 3.699,22.98 12.184,35.98 8.484,12.93 21.832,28.33 40.269,50.39 h -0.004 c 2.02,2.42 5.895,6.04 10.633,9.96 14.223,11.84 36.57,27.08 45.914,32.32 25.352,14.21 51.508,25.7 110,28.33 1.66,0.08 3.305,0.11 4.941,0.11 41.965,0.02 76.461,-23.64 101.707,-53.82 25.196,-30.07 40.731,-66.62 44.457,-89.88 l 4.934,0.8"
         style="fill:#1d2a30;fill-opacity:1;fill-rule:nonzero;stroke:none"
         id="path136" />
      <path
         d="m 561.754,2888.87 10.328,-30.99 2.371,-0.79 c 0.41,-0.13 3.324,-1.05 8.117,-1.05 9.598,-0.06 26.61,3.89 44.852,23.88 1.863,2.04 1.726,5.2 -0.309,7.07 -2.035,1.86 -5.195,1.73 -7.062,-0.31 -16.742,-18.17 -30.473,-20.58 -37.481,-20.64 -1.757,0 -3.097,0.17 -3.949,0.32 l -0.898,0.19 -0.157,0.05 -0.441,-1.49 0.492,1.47 -0.051,0.02 -0.441,-1.49 0.492,1.47 -1.582,-4.74 4.742,1.58 -9.535,28.62 c -0.875,2.62 -3.703,4.03 -6.324,3.16 -2.621,-0.87 -4.035,-3.71 -3.164,-6.33"
         style="fill:#1d2a30;fill-opacity:1;fill-rule:nonzero;stroke:none"
         id="path138" />
      <path
         d="m 640.926,2751.92 c 0.547,0.06 7.312,0.81 15.394,6.19 8.082,5.35 17.274,15.46 22.305,33.19 0.758,2.66 -0.777,5.43 -3.434,6.18 -2.656,0.76 -5.421,-0.77 -6.179,-3.43 -4.508,-15.66 -12.012,-23.43 -18.239,-27.62 -3.125,-2.09 -5.957,-3.24 -7.96,-3.86 -1,-0.32 -1.79,-0.5 -2.293,-0.59 l -0.536,-0.1 -0.089,-0.01 0.214,-1.77 -0.175,1.78 -0.039,-0.01 0.214,-1.77 -0.175,1.78 c -2.75,-0.28 -4.754,-2.73 -4.481,-5.48 0.277,-2.74 2.727,-4.75 5.473,-4.48"
         style="fill:#1d2a30;fill-opacity:1;fill-rule:nonzero;stroke:none"
         id="path140" />
      <path
         d="m 554.543,2912.73 -2.586,0.86 2.559,-0.94 0.027,0.08 -2.586,0.86 2.559,-0.94 c 0.004,0 0.379,1.05 1.55,2.7 3.555,4.85 13.801,15.32 43.821,15.42 2.761,0 5,2.24 5,5 0,2.76 -2.239,5 -5,5 -22.278,0.02 -36.012,-5.62 -44.141,-11.73 -8.141,-6.1 -10.469,-12.46 -10.691,-13.15 -0.871,-2.62 0.543,-5.45 3.164,-6.33 2.617,-0.87 5.449,0.55 6.324,3.17"
         style="fill:#1d2a30;fill-opacity:1;fill-rule:nonzero;stroke:none"
         id="path142" />
      <path
         d="m 769.73,3206.2 c -41.351,6.87 -94.128,7.24 -94.128,7.24 0,0 -94.129,54.31 -184.641,-3.62 -90.508,-57.93 -47.059,-159.3 -47.059,-184.64 0,-25.34 -28.964,-25.34 -10.867,-57.92 18.102,-32.59 78.879,-14.64 78.879,-14.64 0,0 0.141,38.15 32.723,63.49 32.586,25.35 58.554,30.8 69.422,23.55 0,0 -7.243,-54.3 3.617,-76.03 0,0 36.207,-18.09 47.066,-18.09 10.86,0 -7.09,-15.36 28.965,-28.97 15.57,-5.88 28.488,-1.27 39.613,4.7 5.27,22.01 16.938,55.11 38.516,47.43 31.75,-11.29 60.586,-89.33 17.723,-115.87 51.617,-9.38 114.129,81.84 117.746,165.11 3.617,83.27 -84.004,179.36 -137.575,188.26"
         style="fill:#1d2a30;fill-opacity:1;fill-rule:nonzero;stroke:none"
         id="path144" />
      <path
         d="m 617.258,3073.1 0.187,0.1 c 1.082,0.52 6.559,2.94 14.883,2.93 10.195,-0.02 24.719,-3.53 41.227,-18.98 26.367,-24.72 72.554,-56.11 133.449,-56.13 15.297,0 31.5,1.99 48.516,6.56 1.335,0.35 2.125,1.72 1.765,3.06 -0.355,1.33 -1.726,2.12 -3.058,1.77 -16.602,-4.46 -32.36,-6.39 -47.223,-6.39 -59.094,-0.01 -104.203,30.56 -130.031,54.78 -17.278,16.22 -33.258,20.35 -44.645,20.33 -10.629,0 -17.195,-3.5 -17.437,-3.63 -1.219,-0.65 -1.672,-2.16 -1.02,-3.38 0.656,-1.22 2.172,-1.67 3.387,-1.02"
         style="fill:#ffffff;fill-opacity:1;fill-rule:nonzero;stroke:none"
         id="path146" />
      <path
         d="m 614.094,3098.45 0.777,1.11 c 1.867,2.6 7.067,9.26 14.969,15.19 7.914,5.94 18.441,11.12 31.137,11.12 14.285,0.09 39.964,-10.51 68.777,-21.27 28.902,-10.73 61.23,-21.57 90.422,-21.59 1.379,0 2.5,1.12 2.5,2.5 0,1.38 -1.121,2.5 -2.5,2.5 -27.957,-0.02 -59.918,10.57 -88.68,21.27 -28.848,10.67 -54.187,21.51 -70.519,21.59 -16.118,-0.01 -28.907,-7.51 -37.59,-14.88 -8.699,-7.39 -13.41,-14.71 -13.496,-14.84 -0.75,-1.17 -0.411,-2.71 0.75,-3.46 1.16,-0.74 2.707,-0.41 3.453,0.76"
         style="fill:#ffffff;fill-opacity:1;fill-rule:nonzero;stroke:none"
         id="path148" />
      <path
         d="m 593.523,3046.26 c -0.082,0.1 -4.582,5.66 -11.957,11.28 -7.375,5.59 -17.671,11.35 -29.48,11.37 -9.555,0.02 -19.918,-3.93 -29.68,-14.34 -14.957,-15.87 -19.273,-31.69 -19.254,-44.23 0.016,-15.63 6.504,-26.11 6.637,-26.34 0.727,-1.17 2.27,-1.54 3.441,-0.81 1.172,0.73 1.536,2.27 0.809,3.45 l -0.215,0.36 c -1.07,1.91 -5.679,10.91 -5.672,23.34 0.024,11.42 3.774,25.76 17.899,40.8 9.058,9.58 17.851,12.74 26.035,12.77 10.105,0.02 19.555,-5.09 26.449,-10.35 3.445,-2.62 6.246,-5.26 8.168,-7.22 0.965,-0.99 1.707,-1.8 2.203,-2.37 l 0.735,-0.85 c 0.867,-1.08 2.441,-1.24 3.515,-0.37 1.071,0.86 1.239,2.44 0.367,3.51"
         style="fill:#ffffff;fill-opacity:1;fill-rule:nonzero;stroke:none"
         id="path150" />
      <path
         d="m 454.355,3014.16 c 0.227,0.2 31.403,25.13 35.625,71.12 1.387,15.42 9.942,30.31 22.149,41.29 12.199,11 27.973,18.02 43.48,18 12.008,-0.01 23.871,-4.12 34.254,-13.93 1,-0.95 2.582,-0.91 3.535,0.09 0.95,1 0.907,2.59 -0.097,3.54 -11.258,10.68 -24.531,15.32 -37.692,15.3 -17.019,-0.01 -33.832,-7.59 -46.828,-19.28 -12.98,-11.7 -22.226,-27.59 -23.781,-44.56 -1.992,-21.92 -10.461,-38.85 -18.441,-50.33 -3.989,-5.73 -7.856,-10.1 -10.707,-13.01 -1.422,-1.46 -2.598,-2.55 -3.403,-3.27 l -1.219,-1.05 c -1.078,-0.87 -1.253,-2.44 -0.39,-3.52 0.863,-1.08 2.437,-1.25 3.515,-0.39"
         style="fill:#ffffff;fill-opacity:1;fill-rule:nonzero;stroke:none"
         id="path152" />
      <path
         d="m 517.801,3177.6 0.957,0.87 c 4.555,4.08 24.926,20.55 49.519,20.49 17.911,-0.05 38.371,-8.38 57.973,-37.29 0.773,-1.15 2.324,-1.45 3.469,-0.67 1.144,0.77 1.445,2.32 0.672,3.47 -20.145,29.92 -42.524,39.54 -62.114,39.49 -30.668,-0.09 -53.738,-22.63 -53.949,-22.77 -0.992,-0.96 -1.019,-2.54 -0.062,-3.53 0.961,-1 2.543,-1.02 3.535,-0.06"
         style="fill:#ffffff;fill-opacity:1;fill-rule:nonzero;stroke:none"
         id="path154" />
      <path
         d="m 1014.97,268.711 c 0,0 37.7,-58.641 33.51,-96.332 -4.19,-37.707 -4.19,-37.707 -4.19,-37.707 0,0 -138.22,-37.6915 -167.544,-37.6915 -29.32,0 -184.246,14.5585 -184.246,14.5585 l -6.633,26.531 c -1.008,4.051 0.988,8.25 4.774,10.02 l 138.293,64.492 43.625,47.758 142.411,8.371"
         style="fill:#ffffff;fill-opacity:1;fill-rule:nonzero;stroke:none"
         id="path156" />
      <path
         d="m 1014.97,268.711 -4.22,-2.723 c 0,0 0.49,-0.758 1.39,-2.238 3.16,-5.16 11.16,-18.75 18.31,-34.98 7.17,-16.188 13.37,-35.122 13.33,-50.282 0,-1.918 -0.09,-3.769 -0.29,-5.558 -4.19,-37.7 -4.19,-37.7 -4.19,-37.7 l 4.99,-0.558 -1.32,4.848 c -0.02,-0.008 -8.61,-2.348 -22.01,-5.879 -20.1,-5.301 -50.94,-13.243 -79.448,-19.84 -14.25,-3.309 -27.922,-6.281 -39.336,-8.41 -11.371,-2.141 -20.656,-3.411 -25.43,-3.391 -14.125,-0.012 -60.387,3.621 -102.687,7.262 -21.188,1.82 -41.461,3.636 -56.438,5 -14.976,1.367 -24.629,2.269 -24.652,2.277 l -0.469,-5 4.871,1.223 -6.633,26.527 -0.109,0.902 c 0,1.411 0.809,2.739 2.133,3.348 l 139.203,64.922 42.926,46.988 140.369,8.25 -0.29,5.012 -4.22,-2.723 4.22,2.723 -0.29,5.008 -144.453,-8.489 -44.321,-48.519 -137.386,-64.07 c -4.926,-2.301 -7.934,-7.211 -7.93,-12.45 0,-1.109 0.133,-2.23 0.406,-3.332 l 7.496,-29.988 3.539,-0.332 c 0.008,0 38.746,-3.641 81.168,-7.2773 42.492,-3.6406 88.352,-7.2929 103.547,-7.3008 8.246,0.0274 22.317,2.4375 39.567,5.9883 51.511,10.6598 129.247,31.8708 129.297,31.8828 l 3.29,0.898 0.38,3.391 c 0,0 0,0 4.19,37.699 0.24,2.192 0.35,4.418 0.35,6.668 -0.06,20.262 -8.82,43.16 -17.4,61.364 -8.6,18.148 -17.15,31.449 -17.23,31.57 l -1.58,2.469 -2.93,-0.172 0.29,-5.008"
         style="fill:#1d2a30;fill-opacity:1;fill-rule:nonzero;stroke:none"
         id="path158" />
      <path
         d="m 897.691,126.301 c 37.5,-2.891 108.769,20.058 149.519,34.621 -2.91,-26.192 -2.92,-26.25 -2.92,-26.25 0,0 -138.22,-37.6915 -167.544,-37.6915 -29.32,0 -184.246,14.5585 -184.246,14.5585 l -4.73,18.941 c 24.043,-0.031 160.351,-0.371 209.921,-4.179"
         style="fill:#a0d61e;fill-opacity:1;fill-rule:nonzero;stroke:none"
         id="path160" />
      <path
         d="m 897.691,126.301 -0.386,-5 c 2.328,-0.18 4.75,-0.262 7.261,-0.262 20.278,0.02 46.551,5.41 72.789,12.461 26.215,7.059 52.275,15.809 71.545,22.699 l -1.69,4.723 -4.99,0.558 c -1.46,-13.101 -2.19,-19.66 -2.55,-22.949 -0.18,-1.64 -0.28,-2.472 -0.32,-2.89 l -0.04,-0.36 -0.01,-0.051 v -0.019 -0.012 l -0.01,-0.109 5,-0.418 -1.32,4.848 c -0.02,-0.008 -8.61,-2.348 -22.01,-5.879 -20.1,-5.301 -50.94,-13.243 -79.448,-19.84 -14.25,-3.309 -27.922,-6.281 -39.336,-8.41 -11.371,-2.141 -20.656,-3.411 -25.43,-3.391 -14.125,-0.012 -60.387,3.621 -102.687,7.262 -21.188,1.82 -41.461,3.636 -56.438,5 -14.976,1.367 -24.629,2.269 -24.652,2.277 l -0.469,-5 4.871,1.223 -4.734,18.937 -4.867,-1.219 -0.008,-5.019 c 23.961,-0.02 160.429,-0.379 209.543,-4.16 l 0.386,5 0.383,5.008 c -50.023,3.832 -186.176,4.16 -210.301,4.191 l -6.433,0.012 7.152,-28.641 3.539,-0.332 c 0.008,0 38.746,-3.641 81.168,-7.2773 42.492,-3.6406 88.352,-7.2929 103.547,-7.3008 8.246,0.0274 22.317,2.4375 39.567,5.9883 51.511,10.6598 129.247,31.8708 129.297,31.8828 l 3.39,0.918 0.29,3.512 -4.98,0.41 4.98,-0.5 v 0.09 l -4.98,0.41 4.98,-0.5 v 0.019 c 0.04,0.399 0.38,3.438 2.91,26.18 l 0.88,7.981 -7.56,-2.704 c -19.11,-6.828 -44.96,-15.507 -70.774,-22.457 -25.785,-6.953 -51.644,-12.14 -70.18,-12.109 -2.285,0 -4.457,0.066 -6.492,0.227 l -0.383,-5.008"
         style="fill:#1d2a30;fill-opacity:1;fill-rule:nonzero;stroke:none"
         id="path162" />
      <path
         d="M 828.934,212.582 627.633,125.031 c 0,0 -17.238,-43.0896 0,-51.7107 17.238,-8.6211 392.187,0 392.187,0 0,0 25.97,68.1097 -15.03,113.7887 -40.997,45.672 -175.856,25.473 -175.856,25.473"
         style="fill:#ffffff;fill-opacity:1;fill-rule:nonzero;stroke:none"
         id="path164" />
      <path
         d="m 828.934,212.582 -2,4.609 -203.196,-88.371 -0.765,-1.922 c -0.063,-0.296 -7.938,-19.5 -8.024,-36.3394 0.012,-4.25 0.504,-8.4297 2.035,-12.2773 1.5,-3.8321 4.286,-7.4219 8.403,-9.4493 l 0.449,-0.2304 -0.449,0.2304 c 1.785,-0.8398 3.281,-1.0898 5.429,-1.4609 7.266,-1.1328 20.856,-1.8125 39.289,-2.2695 18.387,-0.4532 41.422,-0.6328 66.868,-0.6328 116.3,0 282.937,3.832 282.957,3.832 l 3.38,0.0781 1.2,3.1524 c 0.11,0.3281 8.42,22.0507 8.44,49.8007 0.01,21.859 -5.26,47.77 -24.42,69.129 -12.046,13.34 -30.483,21 -50.827,25.598 -20.379,4.57 -42.844,5.992 -63.301,5.992 -36.172,0 -66.058,-4.481 -66.211,-4.5 l -0.656,-0.102 -0.601,-0.258 2,-4.609 0.746,-4.961 c 0.004,0 1.777,0.27 5.078,0.68 9.89,1.23 33.129,3.711 59.644,3.711 19.981,0.008 41.832,-1.422 61.102,-5.75 19.297,-4.301 35.836,-11.614 45.546,-22.512 17.01,-18.93 21.85,-42.059 21.86,-62.418 0,-12.863 -1.96,-24.5117 -3.92,-32.8906 -0.98,-4.1914 -1.96,-7.5703 -2.69,-9.8711 -0.36,-1.1601 -0.67,-2.039 -0.87,-2.6289 l -0.3,-0.8398 4.69,-1.7813 -0.12,5.0117 c -0.02,0 -10.4,-0.2304 -27.837,-0.5898 -52.3,-1.082 -167.812,-3.2305 -254.89,-3.2305 -29.024,0 -54.887,0.2383 -74.149,0.8281 -9.625,0.3008 -17.609,0.6915 -23.441,1.1719 -2.91,0.2383 -5.293,0.5 -7.004,0.7774 l -2,0.3828 -0.496,0.1367 h -0.008 0.004 c -1.629,0.8398 -2.68,2.043 -3.57,4.2031 -0.864,2.1172 -1.325,5.1289 -1.317,8.5469 -0.015,6.8398 1.781,15.1604 3.637,21.6014 0.922,3.231 1.848,6.012 2.539,7.969 0.348,0.98 0.633,1.75 0.828,2.281 l 0.297,0.762 -4.66,1.859 2,-4.601 201.305,87.55 -2.004,4.602 0.746,-4.961 -0.746,4.961"
         style="fill:#1d2a30;fill-opacity:1;fill-rule:nonzero;stroke:none"
         id="path166" />
      <path
         d="m 1019.82,73.3203 c 0,0 -374.949,-8.6211 -392.187,0 -8.301,4.1485 -8.586,16.2891 -6.672,27.7697 h 405.459 c -2.34,-16.4298 -6.6,-27.7697 -6.6,-27.7697"
         style="fill:#a0d61e;fill-opacity:1;fill-rule:nonzero;stroke:none"
         id="path168" />
      <path
         d="m 1019.82,73.3203 -0.11,5.0117 c -0.03,0 -10.41,-0.2304 -27.843,-0.5898 -52.301,-1.082 -167.816,-3.2305 -254.894,-3.2305 -29.02,0 -54.887,0.2383 -74.149,0.8281 -9.625,0.3008 -17.609,0.6915 -23.441,1.1719 -2.91,0.2383 -5.293,0.5078 -7.004,0.7774 l -2,0.3828 -0.496,0.1367 h -0.008 0.004 c -1.629,0.832 -2.668,2.0312 -3.559,4.1797 -0.859,2.1211 -1.32,5.1133 -1.312,8.5234 0,3.0469 0.347,6.4102 0.906,9.7503 l -4.953,0.828 v -5.0197 h 405.459 v 5.0197 l -4.97,0.711 c -1.14,-7.9612 -2.74,-14.6994 -4.04,-19.4221 -0.66,-2.3594 -1.24,-4.207 -1.65,-5.457 l -0.48,-1.4102 -0.16,-0.4297 4.7,-1.7617 -0.11,5.0117 0.11,-5.0117 4.7,-1.7695 c 0.09,0.2383 4.45,11.8906 6.87,28.8282 l 0.81,5.73 H 616.711 l -0.699,-4.187 c -0.625,-3.7501 -1.043,-7.6212 -1.043,-11.4103 0.008,-4.2422 0.5,-8.4023 2.031,-12.25 1.496,-3.832 4.277,-7.4023 8.387,-9.4297 h 0.004 c 1.781,-0.8398 3.277,-1.0898 5.425,-1.4609 7.266,-1.1328 20.856,-1.8125 39.289,-2.2695 18.387,-0.4532 41.422,-0.6328 66.868,-0.6328 116.3,0 282.947,3.832 282.967,3.832 l 3.39,0.0781 1.19,3.1719 -4.7,1.7695"
         style="fill:#1d2a30;fill-opacity:1;fill-rule:nonzero;stroke:none"
         id="path170" />
      <path
         d="m 733.777,1734.75 c 0,0 -52.648,-233.1 -72.558,-378.89 -19.91,-145.79 -31.594,-437.919 -27.41,-471.43 4.187,-33.508 213.617,-594.782 213.617,-594.782 l 20.941,-50.257 146.603,29.32 c 0,0 -67.017,213.621 -92.15,330.898 -25.129,117.282 -79.582,309.961 -79.582,343.461 0,33.512 130.418,673.29 139.344,715.37 8.93,42.07 51.488,106.45 51.488,106.45 l -280.707,5.72 -19.586,-35.86"
         style="fill:#a0d61e;fill-opacity:1;fill-rule:nonzero;stroke:none"
         id="path172" />
      <path
         d="m 733.777,1734.75 -4.894,1.11 c -0.012,-0.08 -52.668,-233.15 -72.637,-379.32 -17.25,-126.39 -28.293,-361.321 -28.305,-445.009 0.008,-13.269 0.258,-22.609 0.887,-27.722 0.371,-2.821 1.469,-6.918 3.258,-13.008 13.352,-45.02 65.941,-190.512 115.285,-325.063 49.332,-134.5 95.352,-257.84 95.352,-257.84 l 0.035,-0.089 22.558,-54.149 156.114,31.219 -1.67,5.332 c -0.01,0.031 -4.18,13.328 -10.85,35.168 -20.012,65.512 -62.414,207.68 -81.18,295.281 -12.601,58.801 -32.503,136.309 -49.253,203.309 -8.375,33.5 -15.961,64.363 -21.442,88.89 -2.738,12.262 -4.949,22.93 -6.465,31.52 -1.523,8.562 -2.328,15.141 -2.312,18.691 -0.02,1.418 0.461,5.961 1.414,12.371 7.125,48.689 39.523,214.529 71.141,372.859 31.625,158.35 62.511,309.44 66.679,329.1 4.219,20.03 16.918,46.5 28.578,67.62 5.83,10.58 11.39,19.88 15.48,26.52 2.05,3.32 3.73,5.97 4.9,7.79 1.16,1.82 1.8,2.79 1.8,2.79 l 5.03,7.6 -292.862,5.97 -21.383,-39.15 -0.152,-0.68 4.894,-1.11 4.407,-2.4 18.125,33.18 277.651,-5.66 0.11,5.02 -4.19,2.77 c -0.05,-0.08 -10.75,-16.26 -22.6,-37.8 -11.854,-21.58 -24.893,-48.33 -29.608,-70.37 -4.477,-21.11 -39.305,-191.54 -73.031,-360.97 -16.864,-84.7 -33.446,-169.14 -45.821,-234.52 -6.183,-32.69 -11.316,-60.61 -14.91,-81.441 -1.797,-10.418 -3.207,-19.059 -4.172,-25.668 -0.965,-6.661 -1.504,-11.051 -1.519,-13.821 0.011,-4.82 0.91,-11.59 2.465,-20.441 5.453,-30.82 19.254,-86.098 34.461,-146.66 15.207,-60.528 31.804,-126.25 42.769,-177.418 25.238,-117.719 92.246,-331.27 92.266,-331.352 l 4.79,1.512 -0.98,4.918 -142.568,-28.508 -19.363,46.461 -4.633,-1.934 4.703,1.762 c -0.008,0.02 -3.27,8.77 -9.004,24.18 -20.07,53.941 -70.305,189.25 -115.973,314.719 -22.836,62.742 -44.527,123.023 -60.734,169.421 -8.102,23.2 -14.832,42.93 -19.637,57.739 -2.402,7.402 -4.324,13.57 -5.687,18.301 -1.364,4.679 -2.172,8.101 -2.305,9.281 -0.516,4.031 -0.812,13.429 -0.809,26.48 -0.007,82.989 11.071,318.219 28.215,443.659 9.922,72.67 28.047,167.34 43.688,243.78 7.82,38.22 15.019,71.9 20.262,96.01 5.246,24.12 8.523,38.63 8.531,38.67 l -4.899,1.1 4.407,-2.4 -4.407,2.4"
         style="fill:#1d2a30;fill-opacity:1;fill-rule:nonzero;stroke:none"
         id="path174" />
      <path
         d="m 733.777,1734.75 c 0,0 -30.804,-212.9 -18.144,-360.97 12.66,-148.07 40.234,-463.1 40.234,-509.96 0,-46.84 75.692,-327.058 80.321,-414.968 6.695,-127.161 -2.79,-190.172 -2.79,-190.172 l -4.46,-46.098 c 0,0 88.343,-12.531 107.644,-18.062 32.422,-9.301 68.208,-7.411 68.208,-7.411 0,0 32.19,141.27 32.19,261.743 0,120.48 -26.77,368.128 -40.16,468.519 -13.386,100.399 28.66,487.739 52.41,560.269 23.75,72.52 75.84,225.41 40.81,303.56 -35.03,78.13 -356.263,-46.45 -356.263,-46.45"
         style="fill:#a0d61e;fill-opacity:1;fill-rule:nonzero;stroke:none"
         id="path176" />
      <path
         d="m 733.777,1734.75 -4.964,0.72 c -0.016,-0.12 -21.247,-146.72 -21.25,-281.69 0,-27.74 0.898,-55 3.07,-80.42 6.328,-74.05 16.387,-189.82 24.863,-292.92 4.234,-51.56 8.078,-99.94 10.859,-138.35 2.782,-38.371 4.5,-66.93 4.493,-78.27 0.015,-6.468 1.242,-16.05 3.332,-28.511 7.336,-43.43 25.582,-120.969 42.515,-197.379 16.93,-76.321 32.528,-151.711 34.477,-189.34 1.746,-33.09 2.387,-61.809 2.387,-86.192 0,-34.527 -1.293,-60.328 -2.579,-77.468 -0.64,-8.578 -1.281,-14.981 -1.761,-19.231 -0.239,-2.117 -0.438,-3.711 -0.574,-4.75 -0.137,-1.051 -0.211,-1.519 -0.211,-1.527 l -0.02,-0.133 -4.937,-51 4.753,-0.68 c 0.012,0 5.508,-0.777 14.083,-2.039 12.859,-1.89 32.605,-4.851 50.914,-7.859 18.253,-2.981 35.312,-6.09 41.972,-8.02 23.848,-6.82 48.953,-7.75 61.594,-7.761 5.127,0 8.187,0.16 8.257,0.16 l 3.79,0.199 0.84,3.699 c 0.03,0.192 32.29,141.571 32.32,262.864 -0.02,121.078 -26.8,368.578 -40.2,469.179 -1.73,12.91 -2.534,31.09 -2.534,52.918 -0.004,71.581 8.574,182.471 19.734,283.151 5.58,50.35 11.8,98.17 17.9,137.28 6.09,39.07 12.14,69.61 17.1,84.7 18.05,55.25 52.77,157.2 52.83,238.45 -0.01,25.52 -3.43,49.11 -12.21,68.72 -4.85,10.87 -14.5,18.17 -26.61,22.54 -12.15,4.4 -27,6.17 -43.72,6.18 -53.251,-0.04 -126.017,-18.22 -185.841,-36.31 -59.773,-18.11 -106.41,-36.2 -106.484,-36.23 l -2.735,-1.06 -0.417,-2.9 4.964,-0.72 1.817,-4.68 c 0.008,0 2.871,1.11 8.14,3.08 18.45,6.88 66.102,24.12 120.438,39.61 54.297,15.5 115.426,29.2 160.118,29.17 15.99,0.01 29.84,-1.77 40.29,-5.58 10.51,-3.85 17.38,-9.43 20.88,-17.21 7.96,-17.71 11.34,-39.98 11.33,-64.61 0.05,-78.59 -34.23,-180.17 -52.33,-235.33 -5.35,-16.37 -11.32,-46.91 -17.48,-86.27 -18.39,-117.94 -37.742,-313.55 -37.753,-421.981 0.003,-22.09 0.796,-40.558 2.617,-54.238 13.366,-100.18 40.126,-347.973 40.116,-467.859 0,-59.793 -8.01,-125.043 -16.03,-175.262 -4.01,-25.11 -8.03,-46.469 -11.03,-61.551 -1.51,-7.527 -2.76,-13.5 -3.64,-17.578 -0.87,-4.07 -1.365,-6.231 -1.365,-6.242 l 4.895,-1.11 -0.26,5.012 c -0.01,0 -0.67,-0.039 -2,-0.082 -1.33,-0.027 -3.28,-0.07 -5.737,-0.07 -12.105,-0.008 -36.539,0.972 -58.828,7.371 -5.254,1.5 -14.387,3.308 -25.469,5.281 -33.137,5.879 -82.828,12.93 -82.855,12.93 l -0.703,-4.969 4.992,-0.48 4.465,46.089 -4.997,0.489 4.965,-0.75 c 0.035,0.25 5.235,34.922 5.235,104.468 0,24.551 -0.649,53.454 -2.399,86.723 -2.398,44.871 -22.504,136.711 -42.008,223.719 -9.753,43.449 -19.355,85.609 -26.511,119.769 -3.575,17.082 -6.539,32.172 -8.602,44.371 -2.062,12.18 -3.203,21.61 -3.187,26.84 -0.008,12.102 -1.739,40.489 -4.524,78.989 -8.351,115.381 -26.238,320.351 -35.73,431.401 -2.145,25.06 -3.035,52.05 -3.035,79.57 0,66.98 5.285,137.09 10.574,190.42 2.644,26.66 5.289,49.14 7.273,64.93 1.981,15.8 3.293,24.88 3.297,24.9 l -4.969,0.72 1.817,-4.68 -1.817,4.68"
         style="fill:#1d2a30;fill-opacity:1;fill-rule:nonzero;stroke:none"
         id="path178" />
      <path
         d="m 1128.56,1820.32 -3.23,-95.2 c 0,0 -57.02,-11.28 -133.814,-24.61 -63.395,-11 -222.586,2.89 -276.219,8.08 -10.027,0.97 -17.481,9.71 -16.871,19.77 l 5.23,86 424.904,5.96"
         style="fill:#1d2a30;fill-opacity:1;fill-rule:nonzero;stroke:none"
         id="path180" />
      <path
         d="m 905.723,2769.34 c 0,0 -89.762,-97.33 -123.922,-157.85 -34.164,-60.52 -47.309,-153.21 -59.461,-226.15 -12.152,-72.95 21.66,-244.38 12.043,-323.11 l -30.727,-247.87 c 0,0 -6.59,-16.89 15.461,-35.23 22.043,-18.34 130.106,-25.16 227.485,-30.05 35.625,-1.8 141.968,21.15 159.308,22.22 21.01,1.31 21.77,27.99 22.65,49.02 4.18,98.73 22.01,361.78 33.63,476.43 23.69,233.68 -108.27,459.26 -256.467,472.59"
         style="fill:#ffffff;fill-opacity:1;fill-rule:nonzero;stroke:none"
         id="path182" />
      <path
         d="m 905.723,2769.34 -3.692,3.4 c -0.035,-0.04 -22.515,-24.42 -49.308,-56.41 -26.801,-32.02 -57.868,-71.53 -75.293,-102.37 -34.86,-61.91 -47.84,-154.9 -60.043,-227.8 -1.961,-11.79 -2.739,-25.77 -2.739,-41.36 0.024,-71.6 16.489,-177.86 16.461,-248.36 0,-12.5 -0.515,-23.86 -1.707,-33.6 v 0.01 l -30.726,-247.87 4.98,-0.62 -4.676,1.83 c -0.167,-0.44 -1.261,-3.4 -1.265,-8.12 -0.078,-7.89 3.375,-20.58 18.191,-32.8 6.934,-5.63 18.184,-9.35 33.266,-12.79 45.051,-10.03 124.055,-14.73 197.176,-18.42 1.441,-0.07 2.965,-0.1 4.57,-0.1 20.375,0.02 54.902,5.39 86.782,10.85 15.91,2.73 31.1,5.49 43.33,7.62 12.17,2.14 21.62,3.66 25.19,3.86 6.31,0.36 11.68,2.86 15.5,6.7 5.76,5.79 8.29,13.77 9.77,22.06 1.45,8.32 1.75,17.19 2.09,25.06 4.16,98.55 22,361.69 33.61,476.14 1.88,18.6 2.79,37.16 2.79,55.56 -0.01,107.41 -30.92,209.55 -79.2,286.66 -48.27,77.03 -114.069,129.44 -184.608,135.87 l -2.461,0.22 -1.68,-1.82 3.692,-3.4 -0.45,-5 c 65.961,-5.86 129.787,-55.76 177.007,-131.2 47.21,-75.36 77.67,-175.86 77.66,-281.33 0,-18.07 -0.89,-36.29 -2.74,-54.55 -11.64,-114.86 -29.47,-377.82 -33.65,-476.73 -0.42,-10.52 -0.91,-22.16 -3.56,-30.63 -1.31,-4.24 -3.11,-7.58 -5.34,-9.78 -2.25,-2.18 -4.85,-3.51 -9.05,-3.81 -4.77,-0.31 -13.96,-1.84 -26.3,-3.99 -18.41,-3.21 -43.34,-7.81 -67.3,-11.59 -23.926,-3.79 -47.008,-6.75 -61.082,-6.73 -1.465,0 -2.824,0.03 -4.063,0.09 -48.664,2.45 -99.96,5.37 -141.699,9.96 -20.859,2.29 -39.34,5 -53.797,8.23 -14.418,3.15 -24.941,7.17 -29.035,10.71 -12.781,10.73 -14.496,19.86 -14.57,25.08 0,1.57 0.184,2.79 0.351,3.57 l 0.208,0.82 0.042,0.14 -1.714,0.6 1.691,-0.66 0.023,0.06 -1.714,0.6 1.691,-0.66 0.231,0.58 30.804,248.49 v 0.01 c 1.258,10.32 1.781,22.04 1.781,34.82 -0.027,71.78 -16.488,178.04 -16.46,248.36 -0.004,15.25 0.777,28.77 2.601,39.71 12.109,72.99 25.414,165.39 58.883,224.51 16.738,29.68 47.629,69.09 74.25,100.86 13.312,15.9 25.57,29.93 34.496,39.97 4.461,5.02 8.09,9.05 10.598,11.81 2.511,2.77 3.89,4.27 3.894,4.27 l -3.687,3.41 -0.45,-5 0.45,5"
         style="fill:#1d2a30;fill-opacity:1;fill-rule:nonzero;stroke:none"
         id="path184" />
      <path
         d="m 1145.72,2164.04 -94.13,4.09 c -0.01,0.34 -0.01,0.68 -0.01,1.02 -0.01,6.55 0.37,12.58 1.52,17.11 1.54,6.52 7.43,14.42 13.56,25.51 6.08,11.12 12.03,25.67 13.03,46.07 0.75,14.87 0.98,28.81 0.98,40.41 0,5.48 -0.05,10.45 -0.13,14.74 l 78.8,13.28 c -0.45,-9.64 -1.16,-19.32 -2.14,-29.01 -3.46,-34.09 -7.45,-81.21 -11.48,-133.22 m -356.146,48.35 -57.351,16.05 c -3.875,41.86 -7.547,83.12 -7.535,116.36 0,3.64 0.042,7.19 0.136,10.64 l 73.254,-25.09 c -0.695,-2 -1.098,-4.16 -1.426,-6.56 -0.453,-3.51 -0.629,-7.49 -0.629,-11.78 0.012,-19.53 3.692,-45.94 4.981,-54.65 -1.469,-1.27 -3.402,-3.13 -5.383,-5.58 -3.926,-4.85 -8.109,-12.2 -8.594,-21.73 l -0.035,-1.4 c 0.016,-4.82 1.071,-10.36 2.582,-16.26"
         style="fill:#a0d61e;fill-opacity:1;fill-rule:nonzero;stroke:none"
         id="path186" />
      <path
         d="m 1150.74,2163.82 -5.02,0.22 c 4.03,52.01 8.02,99.13 11.48,133.22 0.98,9.69 1.69,19.37 2.14,29.01 l 4.97,0.84 c -0.46,-10.1 -1.09,-20.21 -2.12,-30.36 -3.44,-33.98 -7.43,-81.03 -11.45,-132.93 m -418.517,64.62 -5.176,1.45 c -4.305,46.54 -8.274,92.32 -7.168,127.24 l 4.945,-1.69 c -0.094,-3.45 -0.136,-7 -0.136,-10.64 -0.012,-33.24 3.66,-74.5 7.535,-116.36"
         style="fill:#1d2919;fill-opacity:1;fill-rule:nonzero;stroke:none"
         id="path188" />
      <path
         d="m 864.703,2646.23 -14.387,14.66 62.926,72.7 27.16,-42.77 c -8.988,-2.15 -18.089,-5.16 -27.175,-9.3 -16.59,-7.54 -33.051,-18.84 -48.524,-35.29"
         style="fill:#a0d61e;fill-opacity:1;fill-rule:nonzero;stroke:none"
         id="path190" />
      <path
         d="m 830.508,2681.09 v 0 c 4.742,6.01 9.523,11.95 14.258,17.75 -4.735,-5.79 -9.52,-11.74 -14.258,-17.76 m 14.281,17.79 c 0.039,0.05 0.078,0.09 0.117,0.14 -0.039,-0.05 -0.074,-0.09 -0.117,-0.14 m 0.195,0.24 c 0.09,0.11 0.184,0.22 0.274,0.33 -0.09,-0.11 -0.184,-0.22 -0.274,-0.33 m 0.286,0.34 c 0.097,0.12 0.199,0.25 0.296,0.37 -0.097,-0.12 -0.199,-0.25 -0.296,-0.37 m 0.324,0.4 c 0.211,0.26 0.422,0.52 0.633,0.77 -0.211,-0.25 -0.422,-0.51 -0.633,-0.77 m 0.64,0.78 c 0.161,0.2 0.317,0.39 0.473,0.58 -0.16,-0.2 -0.312,-0.38 -0.473,-0.58 m 0.508,0.62 c 0.031,0.04 0.063,0.08 0.098,0.12 -0.031,-0.04 -0.07,-0.08 -0.098,-0.12 m 0.168,0.21 c 0.031,0.04 0.07,0.08 0.106,0.12 -0.039,-0.04 -0.071,-0.08 -0.106,-0.12 m 0.168,0.2 c 0.02,0.02 0.035,0.05 0.055,0.07 -0.02,-0.03 -0.035,-0.04 -0.055,-0.07 m 25.817,30.65 c 9.675,11.23 18.035,20.65 23.898,27.18 v 0 c -5.863,-6.53 -14.223,-15.96 -23.898,-27.18"
         style="fill:#1d2919;fill-opacity:1;fill-rule:nonzero;stroke:none"
         id="path192" />
      <path
         d="m 905.723,2769.34 c 0,0 -89.762,-97.33 -123.922,-157.85 -9.645,-17.08 -17.567,-36.78 -24.313,-57.83 l 181.02,209.11 c -10.809,3.27 -21.746,5.58 -32.785,6.57"
         style="fill:#1d2a30;fill-opacity:1;fill-rule:nonzero;stroke:none"
         id="path194" />
      <path
         d="m 803.164,2400.27 -69.508,22.85 c 7.578,45.3 16.645,94.12 30.907,136.17 l 51.07,-23.14 c -7.43,-41.95 -10.406,-89.13 -12.121,-127.77 -0.121,-2.75 -0.239,-5.45 -0.348,-8.11"
         style="fill:#a0d61e;fill-opacity:1;fill-rule:nonzero;stroke:none"
         id="path196" />
      <path
         d="m 733.656,2423.12 -4.812,1.58 c 7.586,45.32 16.668,94.22 31.136,136.66 l 0.043,-0.02 c -0.863,-2.54 -1.707,-5.1 -2.535,-7.68 l 5.492,6.34 1.583,-0.71 c -14.262,-42.05 -23.329,-90.87 -30.907,-136.17"
         style="fill:#1d2919;fill-opacity:1;fill-rule:nonzero;stroke:none"
         id="path198" />
      <path
         d="m 757.488,2553.66 c 0.828,2.58 1.672,5.14 2.535,7.68 l 2.957,-1.34 -5.492,-6.34"
         style="fill:#1d2919;fill-opacity:1;fill-rule:nonzero;stroke:none"
         id="path200" />
      <path
         d="m 1091.03,2379.15 c 1.23,5.97 2.49,12.29 3.76,18.83 7.44,38.55 14.91,84.88 14.93,117.07 0,3.5 -0.09,6.83 -0.28,9.99 -0.53,8.55 -2.1,17.89 -4.52,27.66 l 15.09,6.04 c 21.06,-52.06 34.93,-110.7 38.82,-171.82 l -67.8,-7.77"
         style="fill:#a0d61e;fill-opacity:1;fill-rule:nonzero;stroke:none"
         id="path202" />
      <path
         d="m 1158.83,2386.92 c -3.89,61.12 -17.76,119.76 -38.82,171.82 l 4.61,1.84 c 21.24,-52.49 35.19,-111.52 39.14,-173.1 l -4.93,-0.56"
         style="fill:#1d2919;fill-opacity:1;fill-rule:nonzero;stroke:none"
         id="path204" />
      <path
         d="m 983.012,1793.71 c -74.774,0 -149.367,10.21 -221.664,30.45 l -49.696,13.91 14.879,120.02 43.043,-14.74 c 63.496,-21.74 129.922,-32.73 196.574,-32.73 33.672,0 67.402,2.81 100.842,8.44 l 62.49,10.53 c -2.7,-44.14 -4.81,-82.51 -5.93,-109.06 -0.21,-5.23 -0.44,-10.73 -0.94,-15.98 l -41.99,-5.02 c -32.47,-3.88 -65.05,-5.82 -97.608,-5.82"
         style="fill:#a0d61e;fill-opacity:1;fill-rule:nonzero;stroke:none"
         id="path206" />
      <path
         d="m 1122.61,1804.55 c 0.5,5.25 0.73,10.75 0.94,15.98 1.12,26.55 3.23,64.92 5.93,109.06 l 5.08,0.86 c -2.73,-44.59 -4.87,-83.41 -6,-110.13 -0.23,-5.55 -1.62,-10.77 -3.83,-15.52 l -2.12,-0.25 m -410.958,33.52 -4.886,1.37 14.914,120.31 4.851,-1.66 -14.879,-120.02"
         style="fill:#1d2919;fill-opacity:1;fill-rule:nonzero;stroke:none"
         id="path208" />
      <path
         d="m 1009.68,1957.04 c -22.258,0 -44.496,0.91 -66.668,2.71 9.941,14.61 19.941,34.06 29.715,56.49 l 3.363,-2.43 34.09,60.4 c 27.89,0.79 55.79,3.52 83.48,8.18 l 46.56,7.85 c -3.03,-42.04 -5.93,-84.75 -8.47,-124.45 l -24.47,-2.93 c -32.46,-3.88 -65.04,-5.82 -97.6,-5.82"
         style="fill:#a0d61e;fill-opacity:1;fill-rule:nonzero;stroke:none"
         id="path210" />
      <path
         d="m 1131.75,1965.79 c 2.54,39.7 5.44,82.41 8.47,124.45 l 5.1,0.86 c -3.03,-42.1 -5.95,-84.89 -8.5,-124.71 l -5.07,-0.6"
         style="fill:#1d2919;fill-opacity:1;fill-rule:nonzero;stroke:none"
         id="path212" />
      <path
         d="m 155.555,2505.32 193.375,-155.5 8.336,10.37 -193.375,155.49 -8.336,-10.36"
         style="fill:#1d2a30;fill-opacity:1;fill-rule:nonzero;stroke:none"
         id="path214" />
      <path
         d="m 998.82,2661.45 c 0,0 70.88,-48.32 72.5,-162.47 0.7,-49.58 -4.45,-96.67 -15.94,-178.61 -11.49,-81.93 -82.978,-348.52 -138.497,-380.92 -55.512,-32.39 -141.953,28.79 -141.953,28.79 l -417.442,277.09 -100.847,81.99 -49.508,94.43 14.902,29.51 123.414,-94.74 -66.269,61.24 13.004,16.58 23.949,-16.73 70.113,-26.15 15.324,-100.34 21.578,-14.83 398.868,-145.27 c 0,0 -4.953,214.85 -1.262,256.01 3.684,41.15 8.785,144.4 52.828,219.26 l 125.238,55.16"
         style="fill:#ffffff;fill-opacity:1;fill-rule:nonzero;stroke:none"
         id="path216" />
      <g
         id="g218">
        <g
           id="g220"
           clip-path="url(#clipPath224)">
          <path
             d="m 917.133,2056.3 -516.57,166.47 -40.094,26.61 -99.86,81.18 -47.832,91.24 11.008,21.78 118.606,-91.04 6.464,7.67 -62.871,58.1 7.215,9.2 20.582,-14.38 67.946,-25.34 15.211,-99.58 23.894,-16.41 398.813,-145.26 97.488,-70.24"
             style="fill:#cfe757;fill-opacity:1;fill-rule:nonzero;stroke:none"
             id="path226" />
        </g>
      </g>
      <path
         d="m 995.996,2657.3 0.133,-0.09 c 1.711,-1.21 18.911,-13.75 35.821,-39.46 16.9,-25.73 33.57,-64.56 34.35,-118.85 0.04,-2.94 0.06,-5.87 0.06,-8.81 0,-46.05 -5.16,-92.02 -15.96,-169.02 -5.65,-40.41 -26.37,-127.55 -52.533,-208.19 -13.078,-40.33 -27.531,-79.09 -42.07,-109.61 -7.266,-15.25 -14.555,-28.43 -21.621,-38.66 -7.043,-10.23 -13.949,-17.43 -19.821,-20.82 -10.699,-6.24 -22.726,-8.77 -35.32,-8.78 -23.758,-0.03 -49.254,9.22 -68.64,18.63 -9.696,4.69 -17.879,9.39 -23.614,12.91 -2.867,1.75 -5.125,3.22 -6.652,4.23 l -1.738,1.17 -0.559,0.39 -0.066,0.05 -417.297,276.99 -99.86,81.18 -47.832,91.24 11.008,21.78 118.606,-91.04 6.464,7.67 -62.871,58.1 7.215,9.2 20.582,-14.38 67.946,-25.34 15.211,-99.58 23.894,-16.41 406.371,-148.01 -0.168,7.35 c 0,0.02 -0.164,7.12 -0.41,19.02 -0.742,35.72 -2.219,114.47 -2.219,172.76 -0.008,28.9 0.375,52.92 1.344,63.66 1.852,20.7 4.039,56.55 11.227,96.55 7.168,39.98 19.367,83.99 40.933,120.62 l -8.652,5.09 c -22.481,-38.24 -34.852,-83.28 -42.164,-123.93 -7.301,-40.64 -9.508,-76.98 -11.34,-97.43 -1.035,-11.6 -1.383,-35.5 -1.391,-64.56 0.004,-77.93 2.633,-191.99 2.633,-192.01 l 5.02,0.11 1.718,4.72 -398.269,145.05 -19.258,13.24 -15.445,101.1 -72.278,26.96 -27.32,19.09 -18.793,-23.96 69.672,-64.39 3.406,3.69 3.059,3.98 -128.223,98.43 -18.797,-37.22 51.188,-97.64 101.836,-82.79 417.644,-277.22 2.774,4.18 -2.899,-4.1 c 0.153,-0.1 13.856,-9.8 33.992,-19.54 20.153,-9.72 46.707,-19.59 73.012,-19.63 13.918,0 27.84,2.83 40.379,10.15 8.008,4.71 15.481,12.92 23.02,23.79 26.175,37.98 52.828,109.79 74.576,181.51 21.7,71.7 38.23,142.91 43.34,179.25 10.8,77.07 16.05,123.56 16.05,170.42 0,2.98 -0.02,5.97 -0.06,8.96 -0.82,58.12 -19.34,99.78 -37.73,126.79 -18.39,27.03 -36.59,39.5 -36.96,39.75 l -5.654,-8.29"
         style="fill:#1d2a30;fill-opacity:1;fill-rule:nonzero;stroke:none"
         id="path228" />
      <path
         d="m 822.016,2131.02 152.461,-109.86 39.483,69.95 c 0,0 27.25,21.53 31.32,37.67 4.08,16.14 -1.13,42.56 2.96,58.71 4.08,16.14 24.47,31.47 26.44,70.61 1.96,39.14 0.34,71.92 0.34,71.92 0,0 32.98,135.67 29.41,194.71 -3.57,59.04 -60.46,163.26 -106.125,165.56 -45.664,2.3 -104.864,-4.54 -150.871,-74.16 -46.008,-69.63 -36.606,-272.83 -43.786,-285.55 -7.179,-12.72 2.754,-75.34 2.754,-75.34 0,0 -13.543,-9.14 -14.363,-25.44 -0.816,-16.31 16.785,-56.43 16.785,-56.43 l 13.192,-42.35"
         style="fill:#ffffff;fill-opacity:1;fill-rule:nonzero;stroke:none"
         id="path230" />
      <path
         d="m 822.016,2131.02 -2.934,-4.07 157.008,-113.14 42.25,74.84 -4.38,2.46 3.12,-3.93 c 0.09,0.07 7.03,5.55 14.58,13.18 3.78,3.83 7.72,8.19 11.07,12.77 3.33,4.59 6.12,9.37 7.42,14.42 1.5,5.99 1.82,12.66 1.83,19.57 -0.01,7.38 -0.4,15.01 -0.4,22.03 -0.01,6.55 0.37,12.58 1.52,17.11 1.54,6.52 7.43,14.42 13.56,25.51 6.08,11.12 12.03,25.67 13.03,46.07 0.75,14.87 0.98,28.81 0.98,40.41 0,19.16 -0.63,31.96 -0.64,32.02 l -5.01,-0.25 4.88,-1.19 c 0.01,0.05 7.44,30.64 14.89,69.15 7.44,38.55 14.91,84.88 14.93,117.07 0,3.5 -0.09,6.83 -0.28,9.99 -1.93,30.86 -17.28,71.99 -37.99,106.35 -10.38,17.15 -22.09,32.57 -34.38,44.04 -12.28,11.41 -25.2,19.14 -38.511,19.88 -4.532,0.23 -9.204,0.36 -13.993,0.36 -22.125,0.01 -46.804,-2.98 -71.339,-14.15 -24.536,-11.15 -48.786,-30.52 -69.985,-62.62 -12.125,-18.41 -20.187,-44.64 -25.976,-74.01 -8.637,-44.03 -11.918,-95.16 -13.754,-136.51 -0.914,-20.66 -1.461,-38.88 -2.114,-52.45 -0.324,-6.78 -0.679,-12.4 -1.101,-16.5 -0.211,-2.04 -0.442,-3.71 -0.668,-4.88 l -0.313,-1.32 -0.089,-0.27 0.707,-0.28 -0.657,0.37 -0.05,-0.09 0.707,-0.28 -0.657,0.37 c -1.504,-2.73 -2.144,-5.74 -2.625,-9.26 -0.453,-3.51 -0.629,-7.49 -0.629,-11.78 0.016,-23.66 5.411,-57.43 5.418,-57.56 l 4.961,0.79 -2.808,4.16 c -0.274,-0.2 -4.024,-2.74 -7.973,-7.62 -3.926,-4.85 -8.109,-12.2 -8.594,-21.73 l -0.035,-1.4 c 0.02,-5.04 1.168,-10.87 2.793,-17.07 4.895,-18.51 14.399,-40.11 14.442,-40.23 l 4.597,2.02 -4.793,-1.5 13.692,-43.94 1.359,-0.98 2.934,4.07 4.793,1.49 -13.278,42.62 -0.109,0.25 c -0.004,0.01 -1.024,2.33 -2.578,6.14 -2.332,5.71 -5.84,14.69 -8.731,23.71 -2.91,8.98 -5.125,18.21 -5.082,23.42 l 0.024,0.9 c 0.336,6.78 3.332,12.15 6.379,15.93 1.515,1.88 3.027,3.33 4.125,4.28 l 1.289,1.05 0.316,0.23 0.059,0.04 -0.758,1.1 0.742,-1.11 0.016,0.01 -0.758,1.1 0.742,-1.11 2.652,1.79 -0.5,3.16 c 0,0.01 -0.328,2.07 -0.828,5.56 -1.496,10.46 -4.48,33.73 -4.468,50.43 -0.004,4.01 0.171,7.63 0.546,10.49 0.344,2.85 1.004,4.97 1.411,5.61 1.085,2.07 1.335,3.78 1.757,6.25 1.348,8.93 1.907,26.4 2.782,49.25 1.293,34.16 3.179,79.88 8.746,123 5.508,43.08 14.965,83.67 30.312,106.75 20.324,30.72 42.957,48.62 65.77,59.02 22.812,10.39 45.941,13.25 67.179,13.25 4.594,0 9.098,-0.13 13.489,-0.35 9.515,-0.41 20.835,-6.57 32.175,-17.19 17.02,-15.85 33.86,-41.14 46.56,-67.8 12.74,-26.63 21.38,-54.75 22.63,-75.86 0.17,-2.92 0.26,-6.06 0.26,-9.38 0.02,-30.75 -7.35,-76.94 -14.75,-115.17 -3.7,-19.13 -7.4,-36.31 -10.17,-48.7 -2.78,-12.4 -4.61,-19.95 -4.62,-19.97 l -0.17,-0.71 0.04,-0.73 c 0,-0.01 0.15,-3.11 0.31,-8.63 0.15,-5.52 0.31,-13.42 0.31,-22.89 0,-11.47 -0.23,-25.25 -0.97,-39.9 -0.96,-18.73 -6.19,-31.41 -11.82,-41.78 -5.58,-10.39 -11.92,-18.22 -14.47,-27.85 -1.5,-5.99 -1.82,-12.67 -1.83,-19.57 0.01,-7.38 0.4,-15.01 0.4,-22.03 0.01,-6.55 -0.37,-12.58 -1.52,-17.11 -0.74,-3.02 -2.88,-6.99 -5.81,-10.97 -4.36,-6 -10.36,-12.08 -15.22,-16.58 -2.44,-2.26 -4.59,-4.12 -6.12,-5.42 l -1.8,-1.49 -0.62,-0.5 -0.77,-0.61 -37.217,-65.93 -147.914,106.58 -2.933,-4.07 4.793,1.49 -4.793,-1.49"
         style="fill:#1d2a30;fill-opacity:1;fill-rule:nonzero;stroke:none"
         id="path232" />
      <path
         d="m 983.652,2230.19 c -49.781,0 -108.554,6.3 -172.226,25.42 l -0.067,0.41 c 0,0.01 -0.328,2.07 -0.828,5.56 -1.496,10.46 -4.48,33.73 -4.468,50.43 -0.004,4.01 0.171,7.63 0.546,10.49 0.344,2.85 1.004,4.97 1.411,5.61 1.085,2.07 1.335,3.78 1.757,6.25 1.309,8.67 1.875,25.38 2.703,47.24 46.559,-10.22 123.016,-23.31 208.97,-23.31 18.07,0 36.58,0.58 55.3,1.88 -0.71,-3.21 -1.37,-6.22 -1.99,-8.99 -2.78,-12.4 -4.61,-19.95 -4.62,-19.97 l -0.17,-0.71 0.04,-0.73 c 0,-0.01 0.15,-3.11 0.31,-8.63 0.15,-5.52 0.31,-13.42 0.31,-22.89 0,-11.47 -0.23,-25.25 -0.97,-39.9 -0.44,-8.58 -1.77,-15.89 -3.63,-22.29 -23.21,-3.37 -51,-5.87 -82.378,-5.87"
         style="fill:#a0d61e;fill-opacity:1;fill-rule:nonzero;stroke:none"
         id="path234" />
      <path
         d="m 1066.03,2236.06 c 1.86,6.4 3.19,13.71 3.63,22.29 0.74,14.65 0.97,28.43 0.97,39.9 0,9.47 -0.16,17.37 -0.31,22.89 -0.16,5.52 -0.31,8.62 -0.31,8.63 l -0.04,0.73 0.17,0.71 c 0.01,0.02 1.84,7.57 4.62,19.97 0.62,2.77 1.28,5.78 1.99,8.99 1.74,0.13 3.47,0.25 5.22,0.39 -4.02,-18.46 -6.95,-30.54 -6.95,-30.54 0,0 1.62,-32.78 -0.35,-71.92 -0.4,-8.1 -1.72,-14.97 -3.4,-21.25 -1.72,-0.27 -3.47,-0.53 -5.24,-0.79 m -254.604,19.55 c -1.774,0.54 -3.555,1.08 -5.332,1.63 -1.574,10.49 -8.887,61.93 -2.446,73.34 2.102,3.73 2.786,23.86 3.852,52.13 1.621,-0.36 3.281,-0.73 4.98,-1.11 -0.828,-21.86 -1.394,-38.57 -2.703,-47.24 -0.422,-2.47 -0.672,-4.18 -1.757,-6.25 -0.407,-0.64 -1.067,-2.76 -1.411,-5.61 -0.375,-2.86 -0.55,-6.48 -0.546,-10.49 -0.012,-16.7 2.972,-39.97 4.468,-50.43 0.5,-3.49 0.828,-5.55 0.828,-5.56 l 0.067,-0.41"
         style="fill:#1d2919;fill-opacity:1;fill-rule:nonzero;stroke:none"
         id="path236" />
      <path
         d="m 1027.07,2450.17 c -58.98,0 -130.597,8.85 -207.98,37.39 0.664,6.37 1.398,12.74 2.215,19.05 4.812,37.63 12.636,73.37 24.769,97.19 45.133,-10.42 126.446,-25.52 218.736,-25.52 7.05,0 14.17,0.09 21.34,0.28 7.51,-19.58 12.36,-38.72 13.27,-54.13 0.17,-2.92 0.26,-6.06 0.26,-9.38 0.01,-16.95 -2.22,-38.59 -5.47,-61 -19.81,-2.32 -42.36,-3.88 -67.14,-3.88"
         style="fill:#a0d61e;fill-opacity:1;fill-rule:nonzero;stroke:none"
         id="path238" />
      <path
         d="m 1094.21,2454.05 c 3.25,22.41 5.48,44.05 5.47,61 0,3.32 -0.09,6.46 -0.26,9.38 -0.91,15.41 -5.76,34.55 -13.27,54.13 1.76,0.04 3.52,0.09 5.29,0.15 7.28,-19.34 12.04,-38.26 12.99,-53.98 1.1,-18.16 -1.27,-43.57 -5.06,-70.05 -1.7,-0.21 -3.42,-0.42 -5.16,-0.63 m -275.12,33.51 c -1.613,0.59 -3.231,1.19 -4.848,1.81 4.641,43.72 12.582,86.86 26.891,115.58 1.597,-0.38 3.242,-0.76 4.941,-1.15 -12.133,-23.82 -19.957,-59.56 -24.769,-97.19 -0.817,-6.31 -1.551,-12.68 -2.215,-19.05"
         style="fill:#1d2919;fill-opacity:1;fill-rule:nonzero;stroke:none"
         id="path240" />
      <path
         d="m 809.145,2172.33 12.871,-41.31 152.461,-109.86 39.483,69.95 c 0,0 27.25,21.53 31.32,37.67 0.67,2.61 1.02,5.56 1.28,8.62 -92.384,0.54 -178.38,18.62 -237.415,34.93"
         style="fill:#1d2a30;fill-opacity:1;fill-rule:nonzero;stroke:none"
         id="path242" />
      <path
         d="m 924.48,195.672 c 0,0.019 0.204,5.359 0.774,15.418 1.715,30.199 6.699,102.531 19.172,197.32 2.867,21.801 4.066,45.07 4.066,68.84 -0.012,116.012 -28.582,244.371 -34.125,269.371 -1.699,7.598 -2.301,18.461 -2.293,30.488 -0.004,19.5 1.489,42.141 1.492,60.789 -0.023,11.571 -0.515,21.524 -2.601,28.942 -2.625,9.18 -9.027,29.531 -14.82,57.91 -5.79,28.371 -10.926,64.648 -10.926,105.28 0,23.31 1.687,48.04 5.91,73.54 9.641,58.31 18.262,163.76 24.516,254.83 6.242,91.05 10.089,167.59 10.089,167.61 l 0.129,2.54 -1.972,1.61 -0.481,0.4 c -5.055,4.14 -47.484,41.31 -60.043,86.91 -5.48,19.68 -7.086,33.88 -7.086,43.71 0,7.54 0.938,12.52 1.789,15.49 0.426,1.49 0.828,2.48 1.09,3.04 l 0.27,0.54 0.023,0.04 -2.465,1.52 2.407,-1.61 0.058,0.09 -2.465,1.52 2.407,-1.61 -8.34,5.59 c -0.598,-0.87 -4.825,-7.88 -4.813,-24.61 0,-10.92 1.774,-26.01 7.453,-46.41 7.391,-26.46 23.364,-49.41 37.414,-65.87 14.067,-16.45 26.286,-26.4 26.446,-26.53 l 3.168,3.9 -5.012,0.25 c -0.004,-0.05 -0.965,-19.11 -2.703,-49.6 -5.211,-91.42 -17.492,-285.43 -31.785,-371.71 -4.321,-26.1 -6.043,-51.39 -6.043,-75.18 0,-41.479 5.238,-78.421 11.129,-107.28 5.879,-28.84 12.445,-49.719 15.004,-58.66 1.589,-5.469 2.234,-15.008 2.214,-26.192 0.004,-18.148 -1.488,-40.816 -1.492,-60.789 0.012,-12.371 0.551,-23.687 2.531,-32.668 5.516,-24.761 33.903,-152.722 33.887,-267.191 0,-23.43 -1.187,-46.281 -3.98,-67.531 -16.684,-126.797 -20.024,-213.547 -20.028,-213.66 l 10.035,-0.387"
         style="fill:#1d2a30;fill-opacity:1;fill-rule:nonzero;stroke:none"
         id="path244" />
      <path
         d="m 936.789,1679.53 -18.496,-102.47 9.879,-1.78 18.496,102.47"
         style="fill:#1d2a30;fill-opacity:1;fill-rule:nonzero;stroke:none"
         id="path246" />
    </g>
  </g>
</svg>
