<?xml version="1.0" encoding="utf-8"?>
<!-- Uploaded to: SVG Repo, www.svgrepo.com, Generator: SVG Repo Mixer Tools -->
<svg width="800px" height="800px" viewBox="-161.99 0 443.368 443.368" xmlns="http://www.w3.org/2000/svg"><defs><style>.a{fill:#ffffff;}.b{fill:#b5886a;}.c{fill:#211715;}.d{fill:#f5bbbb;}</style></defs><path class="a" d="M87.842,47.754a4.256,4.256,0,0,1,3.4-1,4.017,4.017,0,0,1,2.889,1.92,5.688,5.688,0,0,1,.595,2.285,17.019,17.019,0,0,1-1.736,9.023,10.824,10.824,0,0,1-2.8,3.672,7.164,7.164,0,0,1-3.335,1.5l-.571.088c-.274,1.026-.581,1.888-.732,2.346-1.033,2.8-7.112,12.94-14.565,15.638a36.7,36.7,0,0,0,.59,5.553,12.6,12.6,0,0,0,.54,2.63s2.39,13.927-13.832,13.927S45.633,88.79,45.633,88.79a38.455,38.455,0,0,0,.6-6.181A25.2,25.2,0,0,1,38.326,76.1a28.932,28.932,0,0,1-5.517-10.768l-1.088-.168a7.164,7.164,0,0,1-3.335-1.5,10.824,10.824,0,0,1-2.8-3.672,17.028,17.028,0,0,1-1.735-9.023,5.687,5.687,0,0,1,.594-2.285,4.019,4.019,0,0,1,2.889-1.92,4.254,4.254,0,0,1,3.4,1S28.291,20.232,57.624,20.232,87.842,47.754,87.842,47.754Z"/><path class="b" d="M26.073,68.676a14.762,14.762,0,0,1,.92-6.052,8.745,8.745,0,0,0,1.072,1.034,7.163,7.163,0,0,0,3.336,1.5l1.089.168A28.911,28.911,0,0,0,38.005,76.1a25.637,25.637,0,0,0,7.388,6.241c1.426,9.025-19.88,8.466-18.705,5.467,2.393-1.356,2.938-4.662,2.291-7.335s-1.854-5.317-2.413-8.01A23.923,23.923,0,0,1,26.073,68.676Z"/><path class="c" d="M25.066,62.092c-1.874,5.072-.782,10.4.9,15.354.713,2.1,1.686,4.406,1.079,6.653a3.373,3.373,0,0,1-1.225,1.894,2.452,2.452,0,0,0-1.1,2.627c.555,2.395,3.73,2.813,5.738,3.029A25.838,25.838,0,0,0,39.441,91c3.25-.823,6.495-2.5,7.711-5.81.888-2.421-2.976-3.464-3.857-1.064.015-.04-.273.52-.347.618a9.044,9.044,0,0,1-.776.763c.127-.1-.6.4-.78.5-.244.14-.882.452-.906.461A17.935,17.935,0,0,1,34.952,87.7a25.977,25.977,0,0,1-2.8.067q-.7-.021-1.392-.085c-.072-.007-.62-.069-.427-.043s-.4-.065-.472-.079c-.326-.06-.652-.13-.97-.222-.141-.04-.277-.09-.417-.132-.455-.135.408.16,0,.006-.1-.04-.19-.117-.292-.162-.32-.139.3.317.11.08a1.643,1.643,0,0,1,.327,1.209L27.7,89.532c4.376-2.7,3.822-8.041,2.423-12.262-1.54-4.648-2.97-9.317-1.2-14.115.893-2.418-2.971-3.461-3.858-1.063Z"/><path class="b" d="M92.557,31.252c-.2-1.523-.444-2.9-.671-4C88.927,12.736,74.314,1.216,58.989,2.058c-15.325-.842-29.939,10.678-32.9,25.189a41.3,41.3,0,0,0,.023,13.735l1.1,5.8a.7.7,0,0,1,.119-.025,4.265,4.265,0,0,1,3.023.7c5.531-5.149,16.686-13.229,22.032-18.452-.438,3.085-1.993,8.332-.034,7.793,8.177-2.151,16.014-6.489,20.754-13.257A71.034,71.034,0,0,0,76.973,35.3c1.765,3.433,6.9,11.387,11.386,12.077a4.254,4.254,0,0,1,2.887-.616,3.375,3.375,0,0,1,.425.089C93.484,42.605,93.212,36.151,92.557,31.252Z"/><path class="c" d="M28.043,40.45a34.433,34.433,0,0,1-.285-10.986,25.973,25.973,0,0,1,3.6-10.269A31.628,31.628,0,0,1,48.923,5.336,38.16,38.16,0,0,1,60.615,4.015a28.943,28.943,0,0,1,11.2,2.323,31.638,31.638,0,0,1,16.193,15.48,34.952,34.952,0,0,1,2.777,11.406c.433,4.3.633,9-1.039,13.075a2.013,2.013,0,0,0,1.4,2.461,2.051,2.051,0,0,0,2.46-1.4c1.637-3.994,1.627-8.643,1.3-12.88A44.653,44.653,0,0,0,92.673,22.69,35.05,35.05,0,0,0,76.166,4,34.482,34.482,0,0,0,63.661.178,57.623,57.623,0,0,0,57.183.016a32.758,32.758,0,0,0-6.569.74A35.7,35.7,0,0,0,29.544,14.69a30.532,30.532,0,0,0-5.518,12.772,38.025,38.025,0,0,0,.16,14.052c.558,2.512,4.415,1.449,3.857-1.064Z"/><path class="c" d="M71.3,24.56A67.88,67.88,0,0,0,74.94,35.667a36.739,36.739,0,0,0,6.5,9.485c1.752,1.894,4.576-.94,2.829-2.829a33.323,33.323,0,0,1-5.871-8.675A64.545,64.545,0,0,1,75.161,23.5c-.643-2.49-4.5-1.435-3.857,1.064Z"/><path class="c" d="M71.466,22.416A31.276,31.276,0,0,1,58.4,32.6,40.065,40.065,0,0,1,54.467,34.1q-.936.3-1.884.57-.284.08-.568.155-.771.165.8.216l.613.755q-.073-.32-.024-.016a6.316,6.316,0,0,0,.041-1.23c.051-.484.142-.963.228-1.442.215-1.188.47-2.369.648-3.564.28-1.874-1.79-3.453-3.343-1.946C44.123,34.247,36.042,39.5,29.027,45.97c-1.9,1.749.938,4.572,2.828,2.828,7.016-6.471,15.1-11.723,21.95-18.375l-3.343-1.946c-.218,1.459-.551,2.9-.785,4.355a9.194,9.194,0,0,0-.108,4.024c1.091,3.615,5.92,1.179,8.191.308,6.8-2.607,12.937-6.721,17.16-12.729,1.484-2.111-1.983-4.112-3.454-2.019Z"/><path class="c" d="M89.256,49.168a2.182,2.182,0,0,1,3.083.406,4.681,4.681,0,0,1,.447,2.381,14.362,14.362,0,0,1-.2,2.928c-.635,3.478-2.39,7.656-6.258,8.35a2.018,2.018,0,0,0-1.4,2.46,2.045,2.045,0,0,0,2.461,1.4c6.015-1.079,8.887-7.864,9.34-13.317.234-2.824-.013-6.019-2.453-7.844a6.288,6.288,0,0,0-7.852.411,2.015,2.015,0,0,0,0,2.828,2.043,2.043,0,0,0,2.828,0Z"/><path class="c" d="M84.817,61.994a15.956,15.956,0,0,1-.931,4.3c-.063.191-.49,1.312-.22.7-.134.3-.274.6-.423.9A36.615,36.615,0,0,1,80.1,72.951c-2.723,3.734-6.423,7.693-11.085,8.787-2.505.588-1.444,4.446,1.064,3.857,5.636-1.322,10-5.927,13.321-10.416,2.86-3.873,5.22-8.263,5.419-13.185.1-2.574-3.9-2.57-4,0Z"/><path class="c" d="M32.155,46.34a6.292,6.292,0,0,0-7.853-.411c-2.442,1.819-2.687,5.025-2.452,7.844.452,5.452,3.324,12.238,9.34,13.317a2.056,2.056,0,0,0,2.46-1.4,2.017,2.017,0,0,0-1.4-2.46c-3.868-.694-5.622-4.873-6.257-8.35a14.126,14.126,0,0,1-.2-2.763,5.484,5.484,0,0,1,.38-2.432,2.165,2.165,0,0,1,3.152-.52,2.055,2.055,0,0,0,2.829,0,2.016,2.016,0,0,0,0-2.828Z"/><path class="c" d="M29.964,61.776a33.183,33.183,0,0,0,7.077,15.888c3.987,4.721,9.267,8.119,15.481,8.79a2.013,2.013,0,0,0,2-2,2.047,2.047,0,0,0-2-2c-5.261-.568-9.651-3.955-12.913-7.931-3.227-3.931-4.923-8.859-5.788-13.81a2.017,2.017,0,0,0-2.46-1.4,2.046,2.046,0,0,0-1.4,2.46Z"/><path class="a" d="M20.442,236.916c2.51-33.079,5.763-64.047,6.153-70.346-.183-4.351-.72-10.064-1.277-15.922-3.75-.586-11.9-1.563-17.561-2.372v.3c.021,8.464-.225,19.594-.225,28.105,0,7.933-1.956,33.787-1.733,39.12-.106,6.3-1.6,9.2-3.019,15.332a33.8,33.8,0,0,0-.838,8.99,64.082,64.082,0,0,0,1.605,9.315,11.552,11.552,0,0,0,3.262,4.993c1.489,1.334,3.369.99,4.892-.114.429-.31.5-1.62.331-3.307-.406-3.924-.65-5.638-.866-11.543-.068-1.847.015-2.352.015-5.119.756.6,3.361,3.574,3.961,4.149,1.256,1.2,2.735.146,2.6-1.586Z"/><path class="a" d="M101.168,237.805c-3.1-33.34-6.917-65.758-7.38-71.235a124.67,124.67,0,0,1,.119-15.843l.193-.038c3.614-.58,11.808-1.579,17.522-2.407,0,.189,0,.3,0,.3-.02,8.464.225,19.594.225,28.105,0,7.933,1.956,33.787,1.734,39.12.105,6.3,1.6,9.2,3.018,15.332a33.8,33.8,0,0,1,.838,8.99,63.947,63.947,0,0,1-1.605,9.315,11.543,11.543,0,0,1-3.262,4.993c-1.488,1.334-3.369.99-4.892-.114-.429-.31-.505-1.62-.33-3.307.406-3.924.649-5.638.866-11.543.068-1.847-.016-2.352-.016-5.119-.756.6-3.361,3.574-3.961,4.149-1.023.978-2.006.459-2.26-.7"/><path class="a" d="M25.275,150.689c-4.952-.794-18.5-2.377-22.49-3.227.669-4.073,1.931-22.234,2.919-26.086.434-1.144.851-2.3,1.32-3.441l.925-1.53c2.347-3.88,6.105-6.674,9.9-9.159A106.3,106.3,0,0,1,40.026,95.6a21.576,21.576,0,0,1,4.446-6.054A45.562,45.562,0,0,0,56.835,98.2c.256.124.708.339.792.611H61.9c.084-.272.373-.416.632-.533a43.383,43.383,0,0,0,12.523-8.728,21.618,21.618,0,0,1,4.483,6.127,106.368,106.368,0,0,1,21.992,11.573c3.793,2.485,7.551,5.279,9.9,9.159l.926,1.53c.469,1.137.886,2.3,1.32,3.441.988,3.852,2.249,22.013,2.918,26.086-3.986.85-17.538,2.433-22.49,3.227Z"/><path class="a" d="M83.224,396.76a28.978,28.978,0,0,0,3.282,13.224l-21.055-.409.082-11.828Z"/><path class="a" d="M36.682,396.76A28.99,28.99,0,0,1,33.4,409.984l21.054-.409-.081-11.828Z"/><path class="c" d="M34.682,396.76a27.211,27.211,0,0,1-3.009,12.215,2.046,2.046,0,0,0,.717,2.736,2.021,2.021,0,0,0,2.737-.717,31.594,31.594,0,0,0,3.555-14.234,2,2,0,0,0-4,0Z"/><path class="c" d="M52.373,397.747l.081,11.828a2,2,0,0,0,4,0l-.081-11.828a2,2,0,0,0-4,0Z"/><path class="a" d="M15.223,437.127q-.165-.216-.312-.446a8.358,8.358,0,0,1-.554-7.006,22.942,22.942,0,0,1,3.6-6.273q5.2-7.107,11-13.756c1.506-1.727,3.209-3.528,5.461-3.953a3.388,3.388,0,0,0,1.684,3.553,7.939,7.939,0,0,0,4.061.916,22.538,22.538,0,0,0,15.778-6.278c-.026,4.745.021,6.325,0,11.073a9.945,9.945,0,0,1-.416,3.424c-.976,2.639-3.869,3.91-6.191,5.5-6.041,4.134-9.222,11.676-15.552,15.351a16.344,16.344,0,0,1-15.108.542A9.545,9.545,0,0,1,15.223,437.127Z"/><path class="c" d="M81.224,396.76a31.594,31.594,0,0,0,3.555,14.234,2,2,0,0,0,3.454-2.019,27.179,27.179,0,0,1-3.009-12.215,2,2,0,0,0-4,0Z"/><path class="c" d="M63.533,397.747l-.082,11.828a2,2,0,0,0,4,0l.082-11.828a2,2,0,0,0-4,0Z"/><path class="a" d="M104.683,437.127q.165-.216.312-.446a8.362,8.362,0,0,0,.553-7.006,22.939,22.939,0,0,0-3.595-6.273q-5.2-7.107-11-13.756c-1.507-1.727-3.209-3.528-5.462-3.953a3.388,3.388,0,0,1-1.683,3.553,7.945,7.945,0,0,1-4.062.916,22.535,22.535,0,0,1-15.777-6.278c.026,4.745-.021,6.325,0,11.073a9.945,9.945,0,0,0,.416,3.424c.976,2.639,3.87,3.91,6.192,5.5,6.04,4.134,9.222,11.676,15.552,15.351a16.342,16.342,0,0,0,15.107.542A9.54,9.54,0,0,0,104.683,437.127Z"/><path class="c" d="M16.95,436.118c-1.632-2.23-1.232-5.047-.048-7.4a52.085,52.085,0,0,1,5.49-7.931q3.032-3.954,6.267-7.746c1.712-2.014,3.553-4.809,6.287-5.423l-2.46-2.461a5.56,5.56,0,0,0,3.349,6.187c2.6,1.169,5.748.918,8.492.487A24.238,24.238,0,0,0,57.351,405.3l-3.414-1.414c-.021,4.044.156,8.12-.02,12.161-.088,2.008-1.12,3.183-2.726,4.266a56.634,56.634,0,0,0-4.73,3.255c-5.789,4.806-9.177,13.167-16.925,15.284-4.26,1.164-9.959.484-12.9-3.137a2.013,2.013,0,0,0-2.828,0,2.046,2.046,0,0,0,0,2.828c2.981,3.672,8.532,5.113,13.085,4.78a19.4,19.4,0,0,0,12.29-5.788c3.069-3.008,5.432-6.646,8.488-9.666a30.386,30.386,0,0,1,5.087-3.806,11.178,11.178,0,0,0,4.356-4.348c1.2-2.573.832-5.685.826-8.45-.006-2.46-.017-4.92,0-7.379a2.023,2.023,0,0,0-3.415-1.415,20.231,20.231,0,0,1-8.821,4.983,19.441,19.441,0,0,1-5.753.7c-.946-.028-3.926-.28-3.6-1.932a2.028,2.028,0,0,0-2.46-2.461c-3.455.778-5.719,3.713-7.9,6.271q-3.8,4.455-7.336,9.116c-3.858,5.058-9.873,12.535-5.153,18.985a2.059,2.059,0,0,0,2.736.718A2.015,2.015,0,0,0,16.95,436.118Z"/><path class="c" d="M106.41,438.136c4.721-6.451-1.3-13.928-5.153-18.985q-3.549-4.653-7.336-9.116c-2.179-2.558-4.443-5.493-7.9-6.271a2.028,2.028,0,0,0-2.46,2.461c.3,1.572-2.457,1.886-3.394,1.926a19.34,19.34,0,0,1-5.964-.7,20.235,20.235,0,0,1-8.822-4.983,2.022,2.022,0,0,0-3.414,1.415c.011,2.23,0,4.461,0,6.692a44.039,44.039,0,0,0,.183,7.082c.773,4.787,5.508,6.193,8.745,8.971,3.269,2.806,5.668,6.434,8.562,9.593,3.077,3.357,6.853,6.047,11.422,6.834,5.17.89,11.735-.225,15.218-4.515a2.059,2.059,0,0,0,0-2.828,2.014,2.014,0,0,0-2.828,0c-2.551,3.141-7.352,4.09-11.193,3.508-4-.607-7.119-2.91-9.79-5.828-2.609-2.85-4.81-6.066-7.617-8.736a29.51,29.51,0,0,0-4.739-3.567c-1.321-.826-2.968-1.735-3.616-3.241a9.937,9.937,0,0,1-.348-3.831q-.006-1.72,0-3.442c.007-2.231.013-4.462,0-6.692L62.555,405.3a24.238,24.238,0,0,0,13.023,6.537c2.665.418,5.7.667,8.253-.386a5.6,5.6,0,0,0,3.589-6.288l-2.46,2.461c2.669.6,4.457,3.275,6.133,5.242q3.307,3.883,6.421,7.927a54.253,54.253,0,0,1,5.392,7.742c1.242,2.395,1.735,5.282.05,7.585a2.015,2.015,0,0,0,.717,2.736A2.046,2.046,0,0,0,106.41,438.136Z"/><path class="a" d="M27.736,193.03c-1.391,4.88-3.111,12.983-4.233,19.343-5.485,31.083-.183,62.81,2.2,93.229,2.468,31.549,3.977,63.1,6.445,94.648a143.18,143.18,0,0,0,27.823.2,143.244,143.244,0,0,0,27.837-.2c2.468-31.55,3.977-63.1,6.445-94.648,2.38-30.419,7.682-62.146,2.2-93.229-1.123-6.36-2.843-14.463-4.234-19.343Z"/><path class="c" d="M94.632,152.617c7.467-1.186,15.086-1.676,22.49-3.227a2.048,2.048,0,0,0,1.4-2.46c-.03-.185-.11-.75-.044-.256-.041-.306-.077-.613-.113-.92-.091-.771-.171-1.544-.249-2.317-.191-1.886-.365-3.773-.541-5.66-.376-4.046-.731-8.1-1.224-12.131-.175-1.44-.322-2.908-.639-4.326a20.228,20.228,0,0,0-2.773-6.274c-3.222-5.054-8.448-8.33-13.406-11.467A110.817,110.817,0,0,0,81.479,94.3a2.013,2.013,0,0,0-2.46,1.4,2.048,2.048,0,0,0,1.4,2.46A101.1,101.1,0,0,1,95.693,105.9c4.7,2.885,10.088,5.88,13.332,10.482a17.557,17.557,0,0,1,2.8,5.873,25.954,25.954,0,0,1,.524,3.391c.475,3.887.82,7.79,1.183,11.688.33,3.55.565,7.137,1.13,10.66l1.4-2.461c-7.4,1.551-15.024,2.041-22.489,3.227a2.015,2.015,0,0,0-1.4,2.46,2.049,2.049,0,0,0,2.46,1.4Z"/><path class="c" d="M44.249,83a49.526,49.526,0,0,1-.684,6.547,10.571,10.571,0,0,1-.2,1.059c-.037.145-.086.285-.129.427-.1.341-.005-.011.03-.07-.049.083-.1.174-.143.261s-.226.276.046-.034c-.053.06-.106.119-.161.177s-.119.114-.179.171c.065-.062.315-.192-.019.008a4.032,4.032,0,0,1-.691.363q-2.929,1.157-5.862,2.3c-.885.346-1.765.717-2.663,1.03a2.049,2.049,0,0,0-1.4,2.46,2.019,2.019,0,0,0,2.461,1.4c2.148-.749,4.251-1.653,6.368-2.486l2.179-.855A6.636,6.636,0,0,0,46.092,93.9a6.006,6.006,0,0,0,1.227-2.672A48.523,48.523,0,0,0,48.249,83a2,2,0,0,0-4,0Z"/><path class="c" d="M69,83.245a50.3,50.3,0,0,0,.9,7.869,5.911,5.911,0,0,0,4.14,4.643c.268.09-.646-.274-.21-.089l.533.227,1.6.684,4.063,1.737c1.024.437,2.044.883,3.073,1.308a2.012,2.012,0,0,0,2.46-1.4,2.049,2.049,0,0,0-1.4-2.46c-.187-.078.625.265.254.107l-.465-.2-1.425-.609-3.789-1.619q-1.432-.612-2.866-1.223a11.463,11.463,0,0,1-1.219-.546c-.085-.049-.168-.1-.252-.154.259.161.038.042-.024-.019-.079-.078-.156-.159-.236-.237.014.014.191.277.068.093a4.65,4.65,0,0,1-.266-.465c.2.383-.008-.068-.054-.237a26.975,26.975,0,0,1-.506-2.912,35.007,35.007,0,0,1-.381-4.5,2,2,0,0,0-4,0Z"/><path class="c" d="M58.8,250.309c-.427,4.681-.377,9.426-.413,14.121-.053,6.863-.025,13.726.016,20.589.059,9.672.165,19.343.15,29.015q-.024,16.1-.063,32.2-.033,18.055-.034,36.112,0,6.5.03,13c.012,2.072-.067,4.179.084,6.248a2.166,2.166,0,0,0,.611,1.628,2.061,2.061,0,0,0,2.828,0,2.014,2.014,0,0,0,0-2.829,2.2,2.2,0,0,1,.566,1.281,2.266,2.266,0,0,0-.015-.3c-.005-.332-.019-.664-.026-1-.021-1.141-.029-2.282-.038-3.423q-.042-6.015-.038-12.028-.019-17.535.026-35.069.029-16.646.065-33.29c.015-8.94-.049-17.878-.114-26.817-.089-12.35-.4-24.767.209-37.107.038-.781.085-1.561.156-2.339a2.014,2.014,0,0,0-2-2,2.043,2.043,0,0,0-2,2Z"/><path class="c" d="M25.808,192.5a178.949,178.949,0,0,0-6.269,36.267c-.933,13.688-.253,27.429.882,41.083,1.131,13.588,2.638,27.138,3.661,40.736,1.054,14.023,1.94,28.058,2.825,42.093,1,15.863,2,31.726,3.238,47.573a2.068,2.068,0,0,0,2,2,154.416,154.416,0,0,0,26.484.307c2.551-.191,2.572-4.192,0-4a154.416,154.416,0,0,1-26.484-.307l2,2c-2.19-28.042-3.633-56.134-5.659-84.187C27.5,302.48,26.137,288.941,24.9,275.38s-2.163-27.19-1.666-40.814a174.826,174.826,0,0,1,6.427-41c.7-2.481-3.157-3.54-3.857-1.063Z"/><path class="c" d="M90.285,193.561a173.542,173.542,0,0,1,6.189,36.17c.844,13.533.146,27.105-.986,40.6-1.134,13.509-2.624,26.983-3.639,40.5-1.052,14.023-1.937,28.058-2.822,42.093-.994,15.78-1.991,31.56-3.222,47.324l2-2a154.426,154.426,0,0,1-26.485.307c-2.567-.192-2.555,3.809,0,4a154.426,154.426,0,0,0,26.485-.307,2.067,2.067,0,0,0,2-2c2.2-28.208,3.649-56.467,5.695-84.685.99-13.658,2.383-27.269,3.61-40.906,1.222-13.564,2.122-27.195,1.574-40.818A179.323,179.323,0,0,0,94.142,192.5c-.7-2.473-4.56-1.422-3.857,1.063Z"/><path class="c" d="M27.736,194.837H91.815c2.574,0,2.579-4,0-4H27.736c-2.574,0-2.578,4,0,4Z"/><path class="c" d="M101.935,215.275c-1.573,6.823-1.455,13.869-1.952,20.815-.115,1.613-.007,3.357,1.463,4.363a3.307,3.307,0,0,0,4.2-.537c1.4-1.3,2.492-2.922,3.961-4.149l-3.414-1.414c.008,4.34-.049,8.648-.468,12.974a28.661,28.661,0,0,0-.392,6.277c.327,2.567,3.1,3.892,5.522,3.661,2.717-.259,4.762-2.774,5.942-5.05a18.472,18.472,0,0,0,1.655-5.287,40.019,40.019,0,0,0,.66-13.037c-.84-6.142-3.394-11.827-3.536-18.085-.058-2.57-4.058-2.579-4,0,.107,4.743,1.357,9.1,2.544,13.649a32.593,32.593,0,0,1,1.062,12.865c-.463,3.164-.753,6.828-2.806,9.433-.445.565-1.116,1.454-1.882,1.546-.441.053-.737-.18-1.139-.28l-.341-.2.313.506c-.061.013-.069-.62-.07-.65a41.106,41.106,0,0,1,.481-5.481c.409-4.283.463-8.546.455-12.842a2.025,2.025,0,0,0-3.414-1.415,39.1,39.1,0,0,0-3.36,3.521c-.095.1-.544.441-.559.586.05-.484,1.168.292,1.09.411.066-.1-.024-.577-.014-.746.078-1.34.179-2.679.248-4.02.278-5.465.373-11,1.607-16.352.578-2.5-3.278-3.575-3.857-1.063Z"/><path class="c" d="M93.342,205.219q.459,1.8.8,3.626.168.914.3,1.832c.021.141.041.282.061.424.07.493-.057-.461,0,.034.041.331.081.662.118.993a2.171,2.171,0,0,0,.586,1.414,2,2,0,0,0,3.414-1.414,58.028,58.028,0,0,0-1.424-7.972,2,2,0,1,0-3.857,1.063Z"/><path class="c" d="M22.346,204.156a58.028,58.028,0,0,0-1.424,7.972,1.993,1.993,0,0,0,.586,1.414,2,2,0,0,0,2.828,0,2.3,2.3,0,0,0,.586-1.414c.037-.331.077-.662.118-.993.051-.417-.06.418,0-.034.02-.142.04-.283.061-.424q.135-.919.3-1.832.334-1.827.8-3.626a2,2,0,0,0-3.857-1.063Z"/><path class="a" d="M69.793,109.115c4.021-4,6.655-8.837,9.626-13.672a21.427,21.427,0,0,0-4.365-5.9,43.383,43.383,0,0,1-12.523,8.728c-.259.117-.548.261-.632.533a1.5,1.5,0,0,0,.271.914c.261.4,1.119,1.492,2.464,3.138C66.4,105.015,68.609,107.658,69.793,109.115Z"/><path class="a" d="M49.734,109.115c-4.022-4-6.656-8.837-9.626-13.672a21.4,21.4,0,0,1,4.364-5.9A45.562,45.562,0,0,0,56.835,98.2c.256.124.708.339.792.611.072.236-.244.839-.38,1.044-.327.491-1.01,1.362-2.355,3.008C53.13,105.015,50.917,107.658,49.734,109.115Z"/><path class="c" d="M109.618,148.581c-.012,6.21.09,12.419.159,18.628.05,4.443-.007,8.891.154,13.331.307,8.459.907,16.906,1.339,25.358.168,3.287.432,6.616.307,9.908-.1,2.575,3.9,2.571,4,0,.108-2.841-.1-5.71-.239-8.547-.21-4.286-.462-8.57-.7-12.855-.473-8.359-.75-16.671-.833-25.042-.069-6.927-.195-13.854-.182-20.781.006-2.574-3.994-2.578-4,0Z"/><path class="c" d="M25.807,148.76c-7.466-1.186-15.087-1.676-22.49-3.227l1.4,2.461c1.119-6.972,1.369-14.095,2.167-21.108.368-3.233.818-6.236,2.705-9.322,2.874-4.7,7.729-7.655,12.279-10.531a105.424,105.424,0,0,1,17.1-8.881,2.061,2.061,0,0,0,1.4-2.46,2.013,2.013,0,0,0-2.46-1.4,106.776,106.776,0,0,0-16.052,8.041c-5.026,3.074-10.468,6.258-14.15,10.963a24.726,24.726,0,0,0-3.757,7.116,19.646,19.646,0,0,0-.765,4.092c-.51,3.866-.855,7.754-1.217,11.636-.208,2.231-.411,4.462-.632,6.692-.087.88-.177,1.761-.277,2.639q-.06.524-.126,1.047c-.014.108-.061.4.012-.09-.024.167-.048.333-.075.5a2.037,2.037,0,0,0,1.4,2.46c7.4,1.551,15.023,2.041,22.489,3.227a2.064,2.064,0,0,0,2.461-1.4,2.016,2.016,0,0,0-1.4-2.46Z"/><path class="c" d="M14.228,217.009c1.241,5.416,1.09,11,1.314,16.521.028.681.06,1.361.1,2.04a7.477,7.477,0,0,0,.117,1.662c.005.006.73-.089.71-.229s-.508-.537-.6-.633a37.306,37.306,0,0,0-3.278-3.432,2.027,2.027,0,0,0-3.414,1.415c-.007,3.89.022,7.751.347,11.633.136,1.625.326,3.245.487,4.868.054.543.1,1.086.1,1.633a3.159,3.159,0,0,0-.011.6l-.03.121q-.132.462.284-.386a5.24,5.24,0,0,1-1.118.473,1.547,1.547,0,0,1-1.308-.539c-2.621-2.377-3.04-5.977-3.564-9.272a31.162,31.162,0,0,1,.393-12.045c1.222-5.244,2.912-10.188,3.036-15.631.058-2.575-3.942-2.574-4,0-.124,5.478-2.08,10.425-3.15,15.735a37.329,37.329,0,0,0,.012,13.906c.69,4.106,1.855,8.946,5.8,11.188,2.076,1.18,5.821.734,7.122-1.49,1.079-1.844.41-4.49.2-6.489a135.007,135.007,0,0,1-.6-14.3l-3.414,1.414c1.439,1.2,2.521,2.779,3.876,4.065,2.52,2.389,6.053.627,6.1-2.736.023-1.709-.2-3.453-.255-5.165-.056-1.765-.091-3.53-.16-5.294a57.936,57.936,0,0,0-1.241-10.691c-.575-2.508-4.433-1.447-3.857,1.063Z"/><path class="c" d="M5.757,148.581c.012,6.21-.089,12.419-.159,18.628-.049,4.443.008,8.891-.154,13.331C5.137,189,4.538,197.446,4.106,205.9c-.168,3.287-.433,6.616-.307,9.908.1,2.566,4.1,2.579,4,0-.109-2.841.1-5.71.239-8.547.209-4.286.461-8.57.7-12.855.474-8.359.75-16.671.833-25.042.069-6.927.2-13.854.182-20.781,0-2.573-4-2.578-4,0Z"/><path class="c" d="M57.887,99.636c0,4.123-.287,8.269-.111,12.39a2,2,0,0,0,4,0c-.176-4.121.107-8.267.111-12.39a2,2,0,0,0-4,0Z"/><path class="d" d="M36.647,118.482c2.427.76,41.265.3,46.173-.507.589-3.478,1.442-17.885,2.309-21.274a31.491,31.491,0,0,1,10.757,5.966c.4,3.847-.686,21.909-.686,24.847,0,9.142-2.306,28.473-1.412,39.056.849,10.052,13.014,110.831,11.231,141.537a1.051,1.051,0,0,1-.95.931c-7.635,1.371-32.7,1.815-42.749,1.815,0,0-37.33-.741-42.7-1.851a1.086,1.086,0,0,1-.964-1C16.049,267.964,25.9,177.832,26.6,166.57c-.446-10.611-3-29.321-3-38.463,0-2.939-.95-21.716-.449-25.481,2.25-2,8.694-5.874,10.975-6.4C34.649,98.345,35.9,114.362,36.647,118.482Z"/><path class="c" d="M36.116,120.411a22.163,22.163,0,0,0,5.471.381c3.424.08,6.85.085,10.274.075,7.881-.022,15.767-.126,23.643-.422a65.55,65.55,0,0,0,7.848-.541,1.929,1.929,0,0,0,1.4-1.4c.59-3.595.774-7.27,1.094-10.9.186-2.107.375-4.215.606-6.319a27.456,27.456,0,0,1,.609-4.061l-2.461,1.4a26.944,26.944,0,0,1,9.875,5.452l-.586-1.414a82.7,82.7,0,0,1-.127,11.141c-.159,4.076-.381,8.149-.523,12.225-.352,10.1-1.255,20.175-1.576,30.278-.364,11.445,1.471,22.869,2.7,34.222,1.95,18.011,3.816,36.032,5.427,54.076,1.548,17.33,3.051,34.728,3.369,52.132.057,3.1.068,6.208-.042,9.309a6.932,6.932,0,0,0-.079,1.753c.145.5.765-.528.348-.667a1.735,1.735,0,0,0-.489.08c-.176.028-.352.053-.528.078.436-.062-.357.044-.432.053-1.946.235-3.9.387-5.858.52-10.17.69-20.386.879-30.577.966-4.959.043-9.912-.1-14.869-.235-8.154-.218-16.314-.447-24.458-.915-1.508-.086-3.016-.182-4.521-.312-.56-.048-1.119-.106-1.678-.166-.691-.075.235.057-.234-.029-.093-.017-.517-.148-.592-.1.84-.506.348,1.377.482.379a3.5,3.5,0,0,0-.02-.56q-.023-.685-.042-1.37-.042-1.543-.063-3.086-.043-3.043-.025-6.087c.051-9.509.436-19.016.936-28.511,1.079-20.484,2.735-40.937,4.553-61.368,1.155-12.986,2.589-25.959,3.561-38.961a29.768,29.768,0,0,0-.119-4.221c-.185-2.76-.43-5.516-.687-8.27-.55-5.9-1.182-11.784-1.654-17.686-.648-8.109-.75-16.3-.966-24.437a68.745,68.745,0,0,1,.045-10.269l-.586,1.414a33.749,33.749,0,0,1,5.071-3.44,20.465,20.465,0,0,1,5.022-2.448l-2.461-1.4c.043.181.075.364.106.547.025.149.135.959.07.461.1.808.2,1.618.283,2.428.242,2.235.458,4.472.679,6.708.4,4.033.681,8.121,1.386,12.115a2.017,2.017,0,0,0,2.46,1.4,2.046,2.046,0,0,0,1.4-2.461c-.053-.3-.1-.6-.144-.895-.016-.106-.076-.542-.03-.2-.027-.2-.053-.407-.078-.611-.121-.958-.228-1.918-.332-2.879-.255-2.352-.485-4.706-.717-7.059-.345-3.487-.418-7.2-1.223-10.616a2.031,2.031,0,0,0-2.46-1.4,25.041,25.041,0,0,0-6.4,3.105c-1.168.7-2.318,1.437-3.425,2.231s-2.445,1.542-2.616,3a79.063,79.063,0,0,0-.013,11.435c.258,8.876.429,17.774,1.219,26.62.56,6.268,1.242,12.524,1.766,18.795a56.821,56.821,0,0,1,.292,9.49c-.489,5.872-1.072,11.738-1.621,17.6q-1.291,13.8-2.5,27.613-1.413,16.372-2.584,32.766c-.756,10.825-1.409,21.66-1.827,32.5-.353,9.136-.583,18.3-.272,27.437.05,1.455.164,2.855,1.565,3.669a5.372,5.372,0,0,0,2.075.551c1.306.175,2.619.285,3.933.38,3.905.283,7.82.447,11.732.6,7.892.311,15.789.525,23.685.7,7.206.161,14.424-.03,21.627-.232,5.425-.153,10.853-.346,16.267-.725,2.014-.141,4.028-.306,6.031-.565a7.727,7.727,0,0,0,3.1-.728c1.2-.749,1.38-2,1.442-3.286.339-7.042.06-14.122-.269-21.159-.439-9.364-1.11-18.716-1.863-28.06q-1.237-15.35-2.758-30.676-1.388-14.239-2.914-28.466-1.172-10.989-2.384-21.974c-.47-4.3-1.08-8.619-1.24-12.943C95.205,152.3,96.929,140.664,97.182,129c.178-8.16.906-16.328.787-24.491-.008-.595-.018-1.194-.078-1.786-.167-1.662-2-2.683-3.273-3.561a32.377,32.377,0,0,0-8.957-4.389,2.024,2.024,0,0,0-2.461,1.4A72.4,72.4,0,0,0,81.9,107c-.188,2.111-.366,4.223-.56,6.334-.081.88-.164,1.76-.26,2.639-.035.322-.072.643-.111.965-.061.512-.058-.343-.014.11a1.735,1.735,0,0,1-.061.4l1.4-1.4c-.545.088.5-.034,0,0-.161.011-.322.034-.483.049-.5.048-.994.083-1.492.116-1.3.085-2.592.144-3.889.2-3.616.147-7.236.235-10.854.3-7.559.146-15.125.236-22.685.105-1.351-.024-2.7-.052-4.053-.12-.46-.023-.917-.062-1.375-.092-.531-.035-.05-.017.034.013-.1-.035-.213-.036-.314-.065C34.7,115.83,33.646,119.689,36.116,120.411Z"/><path class="c" d="M99.373,216.827c-7.549.017-15.143.161-22.685.49a3.485,3.485,0,0,0-3.079,1.61c-.608,1.055-.435,2.408-.442,3.582-.014,2.612-.019,5.226.137,7.835a24.829,24.829,0,0,0,1.211,7.376c.981,2.553,3.014,3.674,5.57,4.4a27.928,27.928,0,0,0,21.976-3.068c2.162-1.382.158-4.845-2.019-3.454a23.968,23.968,0,0,1-16.787,3.146,15.46,15.46,0,0,1-3.632-1,4.685,4.685,0,0,1-.94-.57c-.348-.317.169.322-.088-.122-.093-.162-.185-.324-.264-.494a19.829,19.829,0,0,1-1-5.741c-.164-2.419-.18-4.845-.171-7.268a14.481,14.481,0,0,0,.011-2.6v-.194q.061-.781-.739.571c.029.021.118-.012.151,0a1.937,1.937,0,0,0,.51-.009c3.541-.069,7.081-.167,10.621-.251,3.884-.091,7.771-.222,11.657-.231,2.573-.006,2.578-4.006,0-4Z"/><path class="a" d="M86.115,131.033c-1.592,0-15.55-.022-20.666-.022-.009,4.5-.018,7.588-.027,12.091,2.977,0,16.7-.045,20.693-.045Z"/><path class="c" d="M71.207,110.529a56,56,0,0,0,7.88-10.683c.567-.933,1.128-1.87,1.7-2.8a2.833,2.833,0,0,0,.6-1.867,5.006,5.006,0,0,0-.782-1.739,22.933,22.933,0,0,0-4.132-5.306,2.035,2.035,0,0,0-2.829,0,40.624,40.624,0,0,1-6.854,5.532,42.557,42.557,0,0,1-3.8,2.181c-1.269.642-2.782,1.085-3.049,2.7a3.751,3.751,0,0,0,1,2.864c.8,1.055,1.64,2.084,2.48,3.11,1.646,2.01,3.32,4,4.96,6.014a2.014,2.014,0,0,0,2.829,0,2.046,2.046,0,0,0,0-2.828c-1.4-1.725-2.833-3.429-4.247-5.145-.75-.911-1.5-1.823-2.233-2.748-.13-.164-.261-.327-.389-.492.16.207-.156-.207-.159-.21-.072-.1-.273-.5-.28-.3l-.273,1.01q-.537.441-.085.184l.291-.134c.294-.138.587-.277.878-.421q.891-.442,1.761-.928,1.792-1,3.484-2.165a45.643,45.643,0,0,0,6.514-5.393H73.64a20.42,20.42,0,0,1,4.052,5.492V94.433c-2.83,4.616-5.464,9.4-9.314,13.268C66.561,109.528,69.388,112.357,71.207,110.529Z"/><path class="c" d="M51.148,107.7c-3.849-3.869-6.484-8.652-9.313-13.268v2.019a20.4,20.4,0,0,1,4.051-5.492H43.058a44.724,44.724,0,0,0,6.619,5.423q1.671,1.131,3.432,2.121.851.478,1.721.924c.283.145.569.284.853.426l.315.154q.452.284-.1-.191l-.273-1.01c-.014-.32.156-.28-.027-.1a2.671,2.671,0,0,0-.211.322c-.082.119-.171.235-.258.352a1.666,1.666,0,0,1-.162.211c-.719.914-1.458,1.812-2.2,2.71-1.482,1.8-2.982,3.587-4.454,5.4a2.059,2.059,0,0,0,0,2.828,2.015,2.015,0,0,0,2.829,0c1.706-2.1,3.448-4.163,5.158-6.256.773-.945,1.55-1.891,2.279-2.87a4.248,4.248,0,0,0,1.042-2.6c-.057-1.668-1.668-2.26-2.921-2.906q-1.911-.985-3.731-2.135a40.433,40.433,0,0,1-7.089-5.634,2.036,2.036,0,0,0-2.828,0A22.864,22.864,0,0,0,39.006,93.3a7.379,7.379,0,0,0-.827,1.615,2.629,2.629,0,0,0,.564,2.133c.568.932,1.129,1.869,1.7,2.8a56.09,56.09,0,0,0,7.88,10.683C50.138,112.357,52.966,109.529,51.148,107.7Z"/><path class="c" d="M86.115,129.033c-6.888,0-13.777-.022-20.666-.022a2.03,2.03,0,0,0-2,2q-.012,6.045-.027,12.091a2.029,2.029,0,0,0,2,2c6.9,0,13.8-.044,20.693-.045a2.029,2.029,0,0,0,2-2V131.033c0-2.574-4-2.578-4,0v12.024l2-2c-6.9,0-13.8.044-20.693.045l2,2q.012-6.045.027-12.091l-2,2c6.889,0,13.778.021,20.666.022C88.689,133.033,88.693,129.033,86.115,129.033Z"/><path class="c" d="M54.381,71.22a12.021,12.021,0,0,0,5.784,1.35,9.536,9.536,0,0,0,5.95-1.8,2,2,0,0,0,0-2.829,2.062,2.062,0,0,0-2.828,0c.692-.538-.02-.015-.239.1-.169.089-.619.229.012.014-.157.054-.31.12-.468.17-.424.137-.9.154-1.312.3.212-.075.327-.039.027-.01-.128.013-.257.024-.386.032-.31.02-.622.028-.932.026-.279,0-.557-.011-.835-.03-.128-.009-.255-.019-.383-.032-.072-.007-.145-.015-.217-.024-.157-.019-.1-.011.185.025a4.756,4.756,0,0,1-1.225-.272c-.172-.052-.339-.113-.509-.171-.447-.153.423.2.017.011-.21-.1-.417-.2-.622-.311a2,2,0,1,0-2.019,3.454Z"/><path class="c" d="M58.887,57.932a25.593,25.593,0,0,1,.607,2.777l-.071-.532a1.692,1.692,0,0,1,.01.383l.072-.531a.938.938,0,0,1-.042.172l.2-.478a.707.707,0,0,1-.061.111l.313-.405a.517.517,0,0,1-.091.09l.4-.313a1.773,1.773,0,0,1-.22.116l.478-.2a1.645,1.645,0,0,1-.371.108l.532-.072a1.5,1.5,0,0,1-.348,0l.532.071c-.131-.018-.26-.05-.391-.068a1.515,1.515,0,0,0-.8-.035,1.486,1.486,0,0,0-.743.237,2,2,0,0,0-.718,2.736l.313.405a1.99,1.99,0,0,0,.882.514c.35.048.689.135,1.046.151a3.436,3.436,0,0,0,1.605-.392,2.442,2.442,0,0,0,1.317-1.6,3.754,3.754,0,0,0-.013-1.654c-.152-.894-.358-1.781-.588-2.658a2.064,2.064,0,0,0-.92-1.2,2,2,0,0,0-2.736.718,2.108,2.108,0,0,0-.2,1.541Z"/><path class="c" d="M44.761,49.915c-.463,1.507-.161,4.974,2.694,5.269,3.773-.023,3.974-4.214,2.7-6.184C49.119,47.386,46.061,46.715,44.761,49.915Z"/><path class="c" d="M74.976,49.915c.464,1.507.162,4.974-2.693,5.269-3.773-.023-3.974-4.214-2.7-6.185C70.619,47.386,73.677,46.715,74.976,49.915Z"/></svg>