<?xml version="1.0" encoding="iso-8859-1"?>
<!-- Uploaded to: SVG Repo, www.svgrepo.com, Generator: SVG Repo Mixer Tools -->
<!DOCTYPE svg PUBLIC "-//W3C//DTD SVG 1.1//EN" "http://www.w3.org/Graphics/SVG/1.1/DTD/svg11.dtd">
<svg fill="#000000" height="800px" width="800px" version="1.1" id="Capa_1" xmlns="http://www.w3.org/2000/svg" xmlns:xlink="http://www.w3.org/1999/xlink" 
	 viewBox="0 0 496.968 496.968" xml:space="preserve">
<g>
	<path d="M489.985,220.36c0,0-61.891-59.957-81.202-81.201c-5.469-6.016-13.005-10.272-21.751-10.272H363.36
		c-2.172,0-3.994,1.637-4.226,3.796c-0.661,6.15-6.893,10.968-14.189,10.968s-13.527-4.817-14.189-10.968
		c-0.231-2.159-2.054-3.796-4.226-3.796H302.86c-8.224,0-15.372,3.791-20.792,9.174c-0.029,0.028-0.064,0.046-0.093,0.075
		C263.762,156.658,208.5,211.61,208.5,211.61l-84.407-43.612c-9.753-21.157-31.49-36.081-52.24-34.158l-7.5,0.692
		c-24.041,2.22-40.714,24.962-39.647,54.077c1.171,31.943,11.751,127.517,11.858,128.479c0.241,2.17,2.078,3.781,4.219,3.781
		c0.131,0,0.263-0.006,0.395-0.018l8.282-0.765L3.611,448.912c-6.004,16.79,2.772,35.334,19.563,41.339
		c3.587,1.282,7.251,1.891,10.858,1.89c13.28-0.001,25.758-8.245,30.473-21.434l14.109-38.857l5.354,35.455
		c2.217,16.185,16.117,27.951,32.017,27.951c1.456,0,2.93-0.099,4.412-0.302c17.667-2.422,30.07-18.764,27.647-36.446
		l-20.507-145.632l14.265-1.317c1.158-0.107,2.221-0.684,2.943-1.596c0.721-0.912,1.037-2.08,0.874-3.231l-10.235-72.48
		l49.062,25.349c3.798,1.963,8.052,3.001,12.303,3.001c0.001,0,0,0,0.001,0c3.733,0,7.335-0.766,10.628-2.18
		c2.731,1.029,5.581,1.542,8.414,1.542c6.2,0,12.313-2.408,16.883-6.98l41.989-41.988v74.021c0,2.348,1.902,4.25,4.25,4.25h2.523
		v168.071c0,17.122,13.931,31.052,31.053,31.052c17.122,0,31.053-13.93,31.053-31.052V347.23h2.807v112.108
		c0,17.122,13.931,31.052,31.053,31.052c17.122,0,31.053-13.93,31.053-31.052V291.267h2.523c2.348,0,4.25-1.902,4.25-4.25v-73.658
		l40.982,40.777c4.656,4.655,10.772,6.982,16.888,6.982c6.116,0,12.232-2.328,16.889-6.983
		C499.296,244.823,499.296,229.672,489.985,220.36z M415.228,157.623l19.568,19.568l-19.568,19.568V157.623z M323.11,137.386
		c2.771,8.637,11.521,14.764,21.836,14.764c10.314,0,19.064-6.127,21.836-14.764h20.25c10.86,0,19.696,8.835,19.696,19.695v125.686
		H283.164v-21.191h52.588c2.348,0,4.25-1.902,4.25-4.25c0-2.348-1.902-4.25-4.25-4.25h-52.588v-95.994
		c0-10.86,8.836-19.695,19.696-19.695H323.11z M274.664,198.42l-20.478-20.477l20.478-20.478V198.42z M69.954,430.797l-7.167-2.559
		c-2.21-0.787-4.642,0.363-5.431,2.574c-0.79,2.21,0.363,4.643,2.574,5.432l7.123,2.543l-4.129,11.372l-44.717-16.907
		l40.583-114.027l9.913-0.916l-17.546,48.983c-0.792,2.21,0.358,4.644,2.568,5.435c0.474,0.17,0.957,0.25,1.433,0.25
		c1.744,0,3.379-1.082,4.001-2.817l18.882-52.712l34.22-3.16L69.954,430.797z M26.035,482.247
		c-12.377-4.426-18.847-18.097-14.419-30.479l3.739-10.506l44.667,16.889l-3.514,9.676
		C52.082,480.203,38.411,486.674,26.035,482.247z M119.753,318.552l14.4,102.265l-7.136,0.832c-2.331,0.272-4.001,2.382-3.729,4.714
		c0.252,2.164,2.089,3.758,4.216,3.758c0.164,0,0.33-0.009,0.498-0.028l7.337-0.855l1.55,11.008l-47.206,7.978l-4.997-33.093
		L119.753,318.552z M119.243,486.532c-13.031,1.788-25.07-7.359-26.863-20.439l-1.429-9.465l47.123-7.964l1.551,11.014
		C141.409,472.7,132.266,484.748,119.243,486.532z M131.028,264.19l-13.277,1.189c-2.338,0.21-4.063,2.274-3.854,4.612
		c0.198,2.209,2.052,3.871,4.228,3.871c0.127,0,0.255-0.006,0.384-0.017l13.709-1.229l1.418,10.041l-54.674,5.048
		c-2.337,0.216-4.057,2.286-3.841,4.623c0.204,2.204,2.056,3.859,4.227,3.859c0.131,0,0.263-0.006,0.396-0.018l55.083-5.085
		l1.754,12.418l-92.023,8.498C42.509,293.244,34.22,216.134,33.2,188.298c-0.911-24.854,12.221-43.482,31.934-45.302l7.501-0.692
		c13.81-1.276,28.328,6.199,37.632,18.55l-18.822-9.725c-3.798-1.963-8.052-3.001-12.302-3.001c-10.09,0-19.234,5.565-23.864,14.524
		c-6.792,13.148-1.623,29.371,11.525,36.166l59.322,30.649L131.028,264.19z M196.749,254.102c-2.939,0-5.766-0.69-8.4-2.052
		L70.704,191.267c-8.984-4.643-12.517-15.73-7.875-24.713c3.165-6.123,9.416-9.927,16.313-9.927c2.939,0,5.766,0.69,8.4,2.052
		l117.644,60.786c4.352,2.248,7.568,6.057,9.055,10.724c1.488,4.668,1.068,9.636-1.181,13.987
		C209.897,250.299,203.647,254.102,196.749,254.102z M226.664,248.974c-2.652,2.651-6.111,4.165-9.692,4.438
		c1.399-1.605,2.631-3.384,3.639-5.334c3.292-6.369,3.906-13.639,1.729-20.471c-1.353-4.246-3.684-8.005-6.785-11.033l32.622-32.621
		l21.755,21.754L226.664,248.974z M399.955,311.243l-14.97-14.971c-1.658-1.66-4.352-1.66-6.01,0c-1.66,1.659-1.66,4.351,0,6.01
		l20.98,20.98v110.813h-7.218c-2.348,0-4.25,1.902-4.25,4.25c0,2.348,1.902,4.25,4.25,4.25h7.218v7.186h-30.274
		c-2.348,0-4.25,1.902-4.25,4.25c0,2.348,1.902,4.25,4.25,4.25h30.274v1.076c0,12.436-10.117,22.552-22.553,22.552
		c-12.435,0-22.553-10.116-22.553-22.552V342.98c0-2.348-1.902-4.25-4.25-4.25h-11.307c-2.348,0-4.25,1.902-4.25,4.25v116.358
		c0,12.436-10.117,22.552-22.553,22.552c-12.436,0-22.553-10.116-22.553-22.552v-1.076h30.385c2.348,0,4.25-1.902,4.25-4.25
		c0-2.348-1.902-4.25-4.25-4.25h-30.385V323.019l20.735-20.736c1.66-1.659,1.66-4.351,0-6.01c-1.66-1.66-4.352-1.66-6.01,0
		l-14.726,14.727v-19.733h110.018V311.243z M483.975,248.124c-5.998,5.997-15.759,5.997-21.763-0.007l-43.269-43.054l21.862-21.862
		l43.168,43.168C489.971,232.367,489.971,242.127,483.975,248.124z"/>
	<path d="M359.158,196.231l14.375,10c0.729,0.507,1.578,0.761,2.427,0.761c0.848,0,1.695-0.253,2.424-0.759l14.403-10
		c1.144-0.794,1.826-2.099,1.826-3.491v-18.75c0-2.348-1.902-4.25-4.25-4.25h-28.778c-2.348,0-4.25,1.902-4.25,4.25v18.75
		C357.335,194.133,358.015,195.436,359.158,196.231z M365.835,178.241h20.278v12.276l-10.151,7.048l-10.127-7.045V178.241z"/>
	<path d="M369.418,167.908h20.945c2.348,0,4.25-1.902,4.25-4.25c0-2.348-1.902-4.25-4.25-4.25h-20.945
		c-2.348,0-4.25,1.902-4.25,4.25C365.168,166.006,367.07,167.908,369.418,167.908z"/>
	<path d="M56.548,126.142c4.028,1.128,8.178,1.698,12.441,1.698c7.547,0,15.437-1.767,23.584-5.291
		c13.386-5.791,23.716-16.448,29.086-30.009c5.371-13.561,5.139-28.4-0.652-41.786c-5.688-13.147-14.829-22.438-27.182-27.695
		c0.634-2.658,0.577-5.076-0.152-7.314C91.198,8.157,81.887,5.716,75.098,4.539c-3.845-0.666-7.69-1.004-11.43-1.004
		c-15.625,0-29.88,5.688-42.368,16.903C11.541,29.201,0.834,45.29,0.047,64.166c-0.633,15.177,5.113,29.31,17.08,42.007
		C34.016,124.094,52.932,125.949,56.548,126.142z M113.206,54.129c1.511,3.492,2.571,7.102,3.184,10.761l-10.639,4.602
		c-4.462,1.93-7.905,5.481-9.694,10.001c-1.79,4.52-1.712,9.466,0.218,13.928l2.146,4.96c0.694,1.604,2.259,2.563,3.903,2.563
		c0.563,0,1.136-0.112,1.686-0.351c2.154-0.932,3.145-3.434,2.213-5.588l-2.146-4.96c-1.029-2.378-1.07-5.015-0.116-7.423
		c0.954-2.408,2.788-4.301,5.167-5.33l7.869-3.404c-0.093,2.89-0.467,5.773-1.112,8.622l-5.85,2.529
		c-2.154,0.932-3.146,3.434-2.214,5.588c0.694,1.605,2.259,2.564,3.903,2.564c0.116,0,0.232-0.025,0.348-0.035
		c-4.842,9.662-12.835,17.25-22.872,21.592c-9.69,4.191-18.829,5.512-27.224,3.944c-0.167-9.118-8.9-18.97-10.927-21.134
		c-0.903-0.964-2.204-1.453-3.516-1.324c-3.707,0.356-7.221-1.736-8.687-5.125c-1.874-4.331,0.126-9.38,4.458-11.254
		c1.084-0.469,2.225-0.706,3.392-0.706c3.419,0,6.505,2.026,7.861,5.163l7.542,17.433c0.448,1.034,1.288,1.849,2.336,2.264
		c1.047,0.415,2.219,0.397,3.252-0.051l11.351-4.911c2.054-0.889,3.066-3.217,2.317-5.324c-0.515-1.449-1.487-3.097-2.832-5.377
		c-7.598-12.883-14.491-27.881-0.018-42.842c5.376-5.558,9.303-10.387,11.903-14.668C100.855,35.237,108.339,42.879,113.206,54.129z
		 M8.54,64.521c0.677-16.239,9.969-30.152,18.439-37.758C37.86,16.99,50.204,12.035,63.668,12.035c3.255,0,6.613,0.296,9.98,0.879
		c6.946,1.204,11.188,3.145,11.944,5.466c0.555,1.703,0.381,7.179-13.197,21.214C52.209,60.461,65.517,83.028,71.2,92.663
		c0.08,0.137,0.161,0.272,0.241,0.409l-3.229,1.397l-5.854-13.532c-2.704-6.25-8.852-10.288-15.663-10.288
		c-2.334,0-4.611,0.473-6.768,1.405c-8.632,3.735-12.618,13.797-8.884,22.43c2.621,6.06,8.479,10.04,15.037,10.278
		c3.046,3.592,6.346,8.651,7.206,12.409c-6.211-1.131-18.661-4.823-29.975-16.829C12.976,89.375,8.006,77.322,8.54,64.521z"/>
	<path d="M325.78,124.939c5.202,1.219,10.198,1.827,14.972,1.827c7.626,0,14.679-1.566,21.089-4.666
		c3.443-0.806,21.804-5.951,35.291-26.646c9.527-14.616,12.679-29.544,9.367-44.368c-4.12-18.438-17.509-32.375-28.665-39.269
		c-10.846-6.704-22.246-10.104-33.886-10.104c-7.261,0-14.622,1.342-21.879,3.987c-6.474,2.361-15.205,6.414-16.296,14.32
		c-0.321,2.331,0.051,4.721,1.146,7.225c-11.228,7.362-18.577,18.126-21.845,32.072c-3.328,14.2-0.927,28.847,6.763,41.241
		C299.526,112.953,311.58,121.612,325.78,124.939z M314.193,21.181c0.334-2.418,4.165-5.08,10.788-7.495
		c6.321-2.305,12.702-3.474,18.967-3.474c10.037,0,19.934,2.972,29.417,8.834c9.684,5.984,21.294,18.031,24.838,33.893
		c2.794,12.505,0.037,25.248-8.192,37.874c-9.008,13.82-20.606,19.66-26.52,21.873c0.181-3.85,2.532-9.414,4.892-13.485
		c6.38-1.377,11.46-6.287,12.98-12.784c2.147-9.156-3.559-18.354-12.718-20.501c-1.281-0.301-2.594-0.453-3.901-0.453
		c-7.958,0-14.783,5.416-16.599,13.17l-3.364,14.355l-3.425-0.803c0.055-0.148,0.109-0.297,0.164-0.445
		c3.886-10.49,12.985-35.059-10.579-52.019C315.091,28.314,313.949,22.955,314.193,21.181z M311.662,34.293
		c3.317,3.752,8.038,7.81,14.315,12.326c16.896,12.161,12.768,28.143,7.573,42.168c-0.919,2.482-1.584,4.276-1.834,5.793
		c-0.364,2.208,1.045,4.319,3.224,4.83l12.04,2.822c1.097,0.258,2.251,0.068,3.21-0.526c0.958-0.594,1.641-1.544,1.897-2.642
		l4.334-18.494c0.911-3.891,4.334-6.608,8.323-6.608c0.655,0,1.317,0.077,1.962,0.229c4.596,1.078,7.458,5.692,6.382,10.287
		c-0.852,3.637-3.923,6.281-7.643,6.582c-1.315,0.106-2.507,0.818-3.225,1.927c-1.612,2.489-8.462,13.732-7.01,22.735
		c-7.983,3.03-17.21,3.349-27.491,0.941c-10.645-2.494-19.855-8.544-26.332-17.191c1.764-0.171,3.306-1.427,3.731-3.248
		c0.535-2.285-0.884-4.571-3.169-5.106l-6.206-1.453c-1.14-2.689-2.018-5.462-2.622-8.289l8.349,1.956
		c2.522,0.591,4.663,2.129,6.028,4.33c1.365,2.201,1.792,4.804,1.201,7.327l-1.232,5.262c-0.535,2.285,0.883,4.571,3.169,5.106
		c0.325,0.077,0.651,0.113,0.973,0.113c1.929,0,3.675-1.322,4.134-3.282l1.232-5.261c1.109-4.733,0.31-9.615-2.253-13.746
		s-6.58-7.017-11.313-8.125l-11.286-2.645c-0.045-3.709,0.358-7.45,1.227-11.154C296.147,49.323,302.159,40.477,311.662,34.293z"/>
	<path d="M48.662,200.409c-2.336,0.228-4.045,2.306-3.817,4.643l4,41c0.214,2.195,2.063,3.837,4.225,3.837
		c0.138,0,0.277-0.007,0.417-0.021c2.336-0.227,4.045-2.306,3.817-4.643l-4-41C53.077,201.89,50.999,200.187,48.662,200.409z"/>
</g>
</svg>