<?xml version="1.0" encoding="utf-8"?>
<!-- Uploaded to: SVG Repo, www.svgrepo.com, Generator: SVG Repo Mixer Tools -->
<svg width="800px" height="800px" viewBox="-50.73 0 311.02 311.02" xmlns="http://www.w3.org/2000/svg"><defs><style>.a{fill:#3f88c9;}.b{fill:#211715;}.c{fill:#ffffff;}.d{fill:#a0a0a0;}</style></defs><path class="a" d="M36.349,172.094A50.7,50.7,0,0,1,46.532,166.1c8.474-3.46,20.14-7.421,27.839-10.941,6.825,5.355,18.224,9.588,30.213,9.588,13.126,0,23.968-3.182,31.015-9.42,7.69,3.471,19.134,7.365,27.481,10.773,6.5,2.93,10.329,5.88,15.249,10.162a61.16,61.16,0,0,1,11.593,14.21,68.157,68.157,0,0,1,7.36,18.072,327.332,327.332,0,0,1,9.878,67.649c.422,11.5-2.1,24.7-12.132,30.311-4.582,2.562-10.132,2.664-15.212,1.138-25.535,0-127.623.013-150.1.02-5.058,1.5-10.575,1.391-15.134-1.158C4.549,300.89,2.03,287.689,2.451,276.194a327.266,327.266,0,0,1,9.879-67.649,68.09,68.09,0,0,1,7.36-18.072,61.16,61.16,0,0,1,11.593-14.21C33.054,174.721,34.685,173.352,36.349,172.094Z"/><path class="a" d="M48.869,82.826c-.087,13.408-1.657,20.936-.645,26.64,2.63,14.831,12.169,20,22.688,22.017h69.124c10.52-2.014,20.059-7.186,22.689-22.017,1.011-5.7-1.421-15.106-1.508-28.513Z"/><path class="b" d="M46.469,82.826c-.041,5.2-.35,10.382-.693,15.569a54.565,54.565,0,0,0-.1,10.1c1.028,8.519,5.27,16.5,12.731,21.007A36.281,36.281,0,0,0,70.274,133.8a2.464,2.464,0,0,0,2.953-1.676,2.422,2.422,0,0,0-1.677-2.952c-6.62-1.287-13.028-3.871-16.923-9.61a26.849,26.849,0,0,1-4.191-11.372c.067.484-.026-.308-.04-.468-.031-.346-.054-.692-.071-1.039-.038-.782-.046-1.564-.036-2.347.022-1.715.125-3.429.235-5.14.351-5.454.7-10.9.745-16.367.024-3.089-4.776-3.092-4.8,0Z"/><path class="b" d="M158.817,80.953c.045,5.2.463,10.378,1,15.55a71.593,71.593,0,0,1,.724,10.951,7.951,7.951,0,0,1-.2,1.776c-.214,1.148-.483,2.287-.81,3.408a24.808,24.808,0,0,1-2.367,5.589,20.2,20.2,0,0,1-7.044,7.133,32.176,32.176,0,0,1-10.718,3.809,2.423,2.423,0,0,0-1.676,2.952,2.45,2.45,0,0,0,2.952,1.676c7.695-1.5,14.9-4.9,19.529-11.434a30.006,30.006,0,0,0,4.872-12.469c.582-3.628.167-7.312-.2-10.94-.612-5.992-1.2-11.971-1.254-18-.027-3.087-4.827-3.095-4.8,0Z"/><path class="a" d="M50.95,25.583a27.64,27.64,0,0,0-8.172,8.9c-3.085,5.848-2.872,12.892-2.247,19.511.853,9.039,2.523,18.494,8.5,25.312a7.028,7.028,0,0,1,1.854-.548,7.19,7.19,0,0,1,5.77,1.7q2.523-9.034,5.04-18.072c10.264-2.337,25.211-4.571,35.41-4.871,4.816-.142,9.642-.048,14.461.046a196.321,196.321,0,0,1,36.786,4.121q2.67,9.581,5.348,19.158a7.1,7.1,0,0,1,6.15-2.079,6.715,6.715,0,0,1,1.3.327c5.821-6.8,7.464-16.149,8.308-25.091.625-6.619.837-13.663-2.247-19.511-2.761-5.234-7.765-8.751-12.607-12.025q-7.809-5.283-15.7-10.434a68.293,68.293,0,0,0-9.315-5.388C121.913,3.205,112.75,2.4,104.992,2.4c-7.268,0-16.921.8-24.59,4.232a68.293,68.293,0,0,0-9.315,5.388q-7.892,5.151-15.7,10.434C53.9,23.462,52.4,24.49,50.95,25.583Z"/><path class="c" d="M76.257,59.651a180.118,180.118,0,0,1,20.848-2.14c4.816-.142,9.642-.048,14.461.046a196.179,196.179,0,0,1,36.783,4.122L153.7,80.835a7.1,7.1,0,0,1,6.15-2.078A6.793,6.793,0,0,1,164.734,82a9.61,9.61,0,0,1,1,3.863,28.776,28.776,0,0,1-2.934,15.256,18.313,18.313,0,0,1-4.73,6.207,5.558,5.558,0,0,1-6.257,1.032c-.77,2.3-1.773,4.373-2.1,5.378-1.681,4.563-11.3,21.065-23.265,26.414.172,1.822.423,3.635.74,5.445.57,3.253.391,6.161,4.914,7.794.1.037,1.673.776,3.712,1.74-7.039,6.366-17.969,9.615-31.231,9.615-11.738,0-22.912-4.058-29.783-9.251,2.5-1.155,4.456-2.065,4.565-2.1,4.523-1.633,4.344-4.541,4.914-7.794.31-1.766.556-3.4.723-5.1a47,47,0,0,1-15.146-12.385A56.511,56.511,0,0,1,59.5,109.135l-.61.165c-2.627.708-4.633-.693-6.233-1.97a18.288,18.288,0,0,1-4.73-6.207A28.786,28.786,0,0,1,45,85.867,9.611,9.611,0,0,1,46,82a6.793,6.793,0,0,1,4.884-3.247,7.19,7.19,0,0,1,5.77,1.7q2.523-9.034,5.047-18.07C65.968,61.411,71.046,60.456,76.257,59.651Z"/><path class="b" d="M82.768,138.54A61.419,61.419,0,0,1,82,144.748a36.13,36.13,0,0,1-.672,3.76c-.043.151-.311.848-.144.487a5.406,5.406,0,0,1-.388.693c-.209.323.208-.226-.052.075-.08.092-.164.182-.251.268a2.32,2.32,0,0,1-.695.525,22.5,22.5,0,0,1-2.068.954c-3.584,1.63-7.144,3.314-10.722,4.959-.924.425-1.848.85-2.775,1.268-.33.149-.661.3-.992.444-.611.274.551-.2.008-.006a2.464,2.464,0,0,0-1.677,2.953,2.423,2.423,0,0,0,2.953,1.676c1.423-.509,2.8-1.223,4.172-1.853q3.3-1.513,6.591-3.045l4.865-2.252a1.907,1.907,0,0,0,.39-.176c-.016.013-.906.362-.373.165.263-.1.52-.208.777-.318a9.9,9.9,0,0,0,1.4-.7,8.144,8.144,0,0,0,3.313-3.986,19.741,19.741,0,0,0,.888-4.152c.436-2.639.834-5.275,1.016-7.946a2.4,2.4,0,1,0-4.8,0Z"/><path class="b" d="M123.847,137.341a83.569,83.569,0,0,0,1.444,11.493,8.806,8.806,0,0,0,5.827,6.742c.912.362-.612-.306.034.006.239.115.481.224.721.336q1.134.532,2.267,1.068,3.069,1.451,6.136,2.9c1.4.66,2.78,1.369,4.2,1.975A2.48,2.48,0,0,0,147.76,161a2.417,2.417,0,0,0-.861-3.284c-3.013-1.284-5.944-2.8-8.905-4.2-1.437-.68-2.868-1.375-4.315-2.033a16.852,16.852,0,0,1-2.177-1.031,2.88,2.88,0,0,1-1.339-1.86,36.208,36.208,0,0,1-.77-4.283,62.229,62.229,0,0,1-.746-6.971,2.451,2.451,0,0,0-2.4-2.4,2.423,2.423,0,0,0-2.4,2.4Z"/><path class="d" d="M148.172,77.087c-12.721-1.593-28.148-3.182-42.942-3.149-16.006.036-29.759,1.358-47.79,3.7l2.177-7.793c16.975-2.173,30.257-3.391,45.613-3.425C121,66.39,137.486,68.2,150.643,69.889q1.089,3.9,2.181,7.794Q150.568,77.388,148.172,77.087Z"/><path class="b" d="M59.937,65.265A195.932,195.932,0,0,1,91.865,60.2c6.225-.473,12.468-.38,18.7-.261,6.413.123,12.814.492,19.191,1.18a166.3,166.3,0,0,1,21.158,3.613c3,.723,4.282-3.9,1.276-4.629a188.953,188.953,0,0,0-38.849-4.9c-6.544-.185-13.128-.335-19.666.073-5.7.355-11.38,1.06-17.026,1.907-6.038.906-12.062,2-17.992,3.458-3,.739-1.728,5.369,1.276,4.628Z"/><path class="b" d="M50.186,76.985c-4.265-5.559-6-12.463-6.855-19.309-.861-6.872-1.906-14.953,1.235-21.419,3.13-6.441,9.8-10.244,15.528-14.084q5.355-3.594,10.751-7.128A77.642,77.642,0,0,1,81.613,8.707c6.346-2.82,13.58-3.651,20.456-3.86a71.19,71.19,0,0,1,21.2,2.08c7.877,2.19,14.527,7.208,21.253,11.667,3.463,2.3,6.93,4.592,10.352,6.949a41.22,41.22,0,0,1,7.791,6.557c4.919,5.608,5.1,13.132,4.535,20.2-.546,6.849-1.446,14.077-4.61,20.274a28.617,28.617,0,0,1-2.794,4.416,2.413,2.413,0,0,0,.861,3.284,2.459,2.459,0,0,0,3.283-.861c4.745-6.184,6.52-13.943,7.485-21.527.981-7.7,1.677-15.985-1.514-23.284-3.173-7.257-10.259-11.632-16.571-15.877q-5.661-3.807-11.366-7.548A79.96,79.96,0,0,0,130.6,4.477C123.252,1.243,115.165.19,107.2.025A75.12,75.12,0,0,0,84.809,2.493c-8.276,2.4-15.3,7.66-22.392,12.367C58.772,17.28,55.1,19.675,51.531,22.2a39.737,39.737,0,0,0-8.372,7.417c-5.185,6.526-5.818,14.642-5.177,22.675.608,7.613,1.665,15.416,5.084,22.338a28.857,28.857,0,0,0,2.976,4.775,2.478,2.478,0,0,0,3.283.861,2.416,2.416,0,0,0,.861-3.284Z"/><path class="b" d="M69.472,153.9a35.452,35.452,0,0,0,11.245,7.9,56.068,56.068,0,0,0,16.117,4.774c10.516,1.455,21.955.376,31.713-3.959a31.958,31.958,0,0,0,11.748-8.714,2.468,2.468,0,0,0,0-3.394,2.418,2.418,0,0,0-3.394,0c-5.418,6.589-13.58,9.726-21.8,11.069A55.637,55.637,0,0,1,84.561,158.3a33.083,33.083,0,0,1-11.7-7.788c-2.083-2.29-5.47,1.112-3.394,3.394Z"/><path class="b" d="M150.31,104.632a24.227,24.227,0,0,1-1.848,5.847c-.281.683-.581,1.359-.849,2.047-.088.226-.17.455-.253.683-.028.076-.062.15-.089.227-.153.44.183-.411.06-.138a51.581,51.581,0,0,1-3.183,5.918,59.111,59.111,0,0,1-12.734,15.036,23.538,23.538,0,0,1-9.447,4.885c-3.009.694-1.735,5.323,1.276,4.628,7.256-1.675,13.292-6.984,18.024-12.495a64.626,64.626,0,0,0,10.059-15.21c1.637-3.639,3.258-7.457,3.784-11.428a2.411,2.411,0,0,0-2.4-2.4,2.462,2.462,0,0,0-2.4,2.4Z"/><path class="b" d="M55.453,102.937c2.9,15.252,12.114,30.1,25.592,38.148A33.818,33.818,0,0,0,93.31,145.6a2.478,2.478,0,0,0,2.952-1.677,2.418,2.418,0,0,0-1.676-2.952c-7.26-1.08-13.583-4.955-18.8-9.995A53.826,53.826,0,0,1,62.909,111.6a58.091,58.091,0,0,1-2.827-9.941,2.423,2.423,0,0,0-2.952-1.676,2.451,2.451,0,0,0-1.677,2.952Z"/><path class="b" d="M155.791,82.138a4.724,4.724,0,0,1,6.663.71,7.487,7.487,0,0,1,.948,3.913,26.033,26.033,0,0,1-3.762,15.122c-1.336,2.16-3.587,5.206-6.457,4.426-2.985-.81-4.259,3.819-1.276,4.629,7.709,2.093,12.741-6.87,14.765-12.937a30.546,30.546,0,0,0,1.516-11.464c-.225-3.616-1.291-6.993-4.571-8.938a9.692,9.692,0,0,0-11.22,1.145,2.42,2.42,0,0,0,0,3.394,2.45,2.45,0,0,0,3.394,0Z"/><path class="b" d="M58.338,78.744a9.685,9.685,0,0,0-10.131-1.678c-3.558,1.522-5.17,4.7-5.572,8.4a29.6,29.6,0,0,0,6.252,21.5c2.627,3.14,6.429,5.605,10.644,4.642,3.01-.688,1.736-5.317-1.276-4.629-2.769.633-5.486-2.549-6.829-4.582a26.007,26.007,0,0,1-3.784-9.815,25.449,25.449,0,0,1-.33-5.381,8.25,8.25,0,0,1,.937-4.287,4.692,4.692,0,0,1,6.7-.783,2.464,2.464,0,0,0,3.394,0,2.421,2.421,0,0,0,0-3.394Z"/><path class="b" d="M80.852,84.256c-.753,2.447-.262,8.075,4.373,8.555,6.127-.037,6.453-6.842,4.39-10.042C87.927,80.15,82.962,79.06,80.852,84.256Z"/><path class="b" d="M131.852,84.257c.753,2.446.263,8.075-4.373,8.554-6.126-.037-6.453-6.842-4.39-10.042C124.777,80.15,129.742,79.06,131.852,84.257Z"/><path class="b" d="M136.575,158.354c7.8,3.313,15.822,6.08,23.705,9.194a55.232,55.232,0,0,1,19.2,13.134,61.033,61.033,0,0,1,13.228,21.184,111.315,111.315,0,0,1,3.715,13.272q1.629,6.94,2.956,13.946,2.657,14,4.082,28.2.7,7.087,1.086,14.2a88.579,88.579,0,0,1,.077,11.737c-.513,6.455-2.27,13.462-6.92,18.229-5.413,5.549-13.579,5.945-20.358,2.692a46.569,46.569,0,0,1-18.294-15.968,105.7,105.7,0,0,1-11.925-23.392c-.74-2.024-1.427-4.067-2.078-6.122-.928-2.935-5.564-1.681-4.628,1.276a120.567,120.567,0,0,0,11.059,25.29,74.6,74.6,0,0,0,8.286,11.741,48.917,48.917,0,0,0,9.853,8.252,34.218,34.218,0,0,0,11.877,5.313,22.091,22.091,0,0,0,13.012-1.12c7.06-3.024,11.388-9.871,13.379-17.04,2.236-8.056,1.777-16.422,1.235-24.666-.66-10.05-1.815-20.068-3.393-30.015q-2.346-14.788-6.017-29.329a69.338,69.338,0,0,0-11.279-24.458,64.615,64.615,0,0,0-18.946-17.218,80.581,80.581,0,0,0-12.154-5.4c-4.242-1.613-8.5-3.178-12.733-4.822-1.876-.729-3.75-1.468-5.6-2.255a2.481,2.481,0,0,0-3.283.861,2.417,2.417,0,0,0,.861,3.284Z"/><path class="c" d="M109.156,95.7c-1.41-.06-2.74-.09-3.98-.09-.96,0-2,.02-3.1.07l-32.92,6.83c-.4,2.13-.12,4.73-.28,6.44a64.272,64.272,0,0,0,.35,11.99c.55,5.28.82,10.89,4.43,15.01,6.68,7.6,22.16,11.65,32.33,11.65a61.372,61.372,0,0,0,19.9-3.61c5.55-1.99,10.73-5.32,13.63-10.12,2.74-4.52,2.63-9.05,3.22-14.2a53.685,53.685,0,0,0,.21-10.92c-.18-1.75.09-4.27-.38-6.34Z"/><path class="b" d="M66.842,101.875c-.416,2.5-.215,5-.4,7.509a54.149,54.149,0,0,0,.067,7.964c.338,4.681.546,9.733,2.038,14.212,2.864,8.6,11.767,12.979,19.849,15.549a57.81,57.81,0,0,0,26.8,2.092c9.589-1.53,20.358-4.988,25.995-13.486,3.2-4.816,3.349-10.49,3.948-16.042a57.538,57.538,0,0,0,.338-9.223,60.042,60.042,0,0,0-.594-8.675,2.4,2.4,0,1,0-4.628,1.276c.429,2.117.2,4.385.367,6.539a50.609,50.609,0,0,1-.044,7.51c-.174,2.381-.44,4.763-.685,7.137a23.416,23.416,0,0,1-1.387,6.355c-3.325,8.266-13.091,11.579-21.049,13.312a52.422,52.422,0,0,1-24.469-.473,48.356,48.356,0,0,1-10.934-4.113c-3.04-1.636-6.162-3.735-7.9-6.808-2.244-3.973-2.32-9.062-2.713-13.5a63.194,63.194,0,0,1-.283-8.311c.052-1.193.174-2.374.174-3.57a24.355,24.355,0,0,1,.139-3.979,2.473,2.473,0,0,0-1.676-2.953,2.42,2.42,0,0,0-2.952,1.677Z"/><path class="b" d="M102.076,98.083c2.359-.105,4.72-.079,7.08.02a2.419,2.419,0,0,0,2.4-2.4,2.45,2.45,0,0,0-2.4-2.4c-2.36-.1-4.721-.125-7.08-.02a2.4,2.4,0,0,0,0,4.8Z"/><path class="b" d="M58.039,79.964c12.253-1.584,24.543-2.945,36.9-3.419A284.9,284.9,0,0,1,133.043,77.8c6.652.637,13.287,1.438,19.912,2.3a2.411,2.411,0,0,0,2.4-2.4,2.461,2.461,0,0,0-2.4-2.4c-12.373-1.618-24.791-3-37.264-3.539a275.273,275.273,0,0,0-36.311,1c-7.131.639-14.241,1.491-21.341,2.408a2.48,2.48,0,0,0-2.4,2.4,2.413,2.413,0,0,0,2.4,2.4Z"/><path class="b" d="M58.039,72.451c12.253-1.584,24.543-2.945,36.9-3.419a284.569,284.569,0,0,1,38.108,1.251c6.652.637,13.287,1.438,19.912,2.3a2.412,2.412,0,0,0,2.4-2.4,2.461,2.461,0,0,0-2.4-2.4c-12.373-1.618-24.791-3.005-37.264-3.539a275.1,275.1,0,0,0-36.311.995c-7.131.639-14.241,1.49-21.341,2.408a2.478,2.478,0,0,0-2.4,2.4,2.413,2.413,0,0,0,2.4,2.4Z"/><path class="b" d="M52.594,79.008l5.67.856a2.627,2.627,0,0,0,1.849-.241,2.4,2.4,0,0,0,.861-3.284,2.316,2.316,0,0,0-1.434-1.1l-5.67-.857a2.627,2.627,0,0,0-1.849.242,2.4,2.4,0,0,0-.861,3.284,2.316,2.316,0,0,0,1.434,1.1Z"/><path class="b" d="M52.594,71.73l5.67.857a2.627,2.627,0,0,0,1.849-.242,2.4,2.4,0,0,0,.861-3.283,2.313,2.313,0,0,0-1.434-1.1L53.87,67.1a2.627,2.627,0,0,0-1.849.242,2.4,2.4,0,0,0-.861,3.284,2.315,2.315,0,0,0,1.434,1.1Z"/><path class="b" d="M157.437,74.631l-5.662.907a2.4,2.4,0,0,0-1.434,1.1,2.4,2.4,0,0,0,.861,3.283l.573.242a2.4,2.4,0,0,0,1.276,0l5.662-.907a2.4,2.4,0,0,0,1.434-1.1,2.451,2.451,0,0,0,.242-1.85,2.426,2.426,0,0,0-1.1-1.434l-.573-.242a2.423,2.423,0,0,0-1.276,0Z"/><path class="b" d="M157.437,67.075l-5.662.907a2.4,2.4,0,0,0-1.434,1.1,2.4,2.4,0,0,0,.861,3.283l.573.242a2.423,2.423,0,0,0,1.276,0l5.662-.907a2.4,2.4,0,0,0,1.434-1.1,2.4,2.4,0,0,0-.861-3.283l-.573-.242a2.4,2.4,0,0,0-1.276,0Z"/><path class="b" d="M102.334,178.863a22.61,22.61,0,0,0,4.941-.007,2.672,2.672,0,0,0,1.7-.7,2.4,2.4,0,0,0,0-3.394,2.315,2.315,0,0,0-1.7-.7,22.61,22.61,0,0,1-4.941.007,2.394,2.394,0,0,0-1.7.7,2.4,2.4,0,0,0,0,3.394l.485.375a2.4,2.4,0,0,0,1.212.328Z"/><path class="c" d="M123.93,155.135a6.784,6.784,0,0,1,1.1.9c-.817-3.25-.76-6.839,3.016-8.128a4.7,4.7,0,0,1,5.853,2.255c.336.65,1.294,2.625,1.294,2.625l.456.937a4.557,4.557,0,0,1,2.927-5.1c3.386-1.174,5.9.734,7.746,4.595,1.057,2.206,2.636,6.209,4.7,11.316,2.579,6.37,5.588,12.443,7.9,16.828.961-3.455.963-7.625,1.7-11.249a11.341,11.341,0,0,1,2.089-5.356,4.348,4.348,0,0,1,5.175-.879,4.813,4.813,0,0,1,2.423,3.1,121.161,121.161,0,0,1,.815,32.266c-.274,2.782-1.432,5.407-2.435,8.016-.479,1.248-.949,2.029-.713,3.3a16.23,16.23,0,0,0,1.7,4.127c2.844,5.444,6.638,11.284,10.052,17.387-13.291,8.824-26.287,13.933-37.745,18.381-1.876.728-1.856-.118-2.47-2.035-2.768-8.651-2.086-22.954-3.029-26.018-.883-2.871-6.294-9.826-7.508-11.651a102.164,102.164,0,0,1-6.859-12.245c-2.113-4.583-6.535-14.154-7.826-18.5a7.018,7.018,0,0,1,.218-5.265,4.448,4.448,0,0,1,2.173-2.168,4.524,4.524,0,0,1,3.621.058l.535.162c-1.28-3.768-2.462-7.472-3.552-10.831-.269-.831-.92-5.215,2.522-6.91A3.881,3.881,0,0,1,123.93,155.135Z"/><path class="b" d="M161.579,180.576c.575-2.963.688-5.986,1.2-8.956.274-1.595.571-5.164,2.478-5.735a2.1,2.1,0,0,1,2.133.59c.841.886.8,2.316.966,3.461.43,3,.711,6.017.883,9.039a128.889,128.889,0,0,1-.331,18.328,29.881,29.881,0,0,1-2.208,8.5,13.354,13.354,0,0,0-1.146,3.618,9.1,9.1,0,0,0,1.059,4.468c2.692,6.039,6.554,11.6,9.858,17.309,1.547,2.673,5.7.259,4.145-2.422-3.21-5.549-6.832-10.94-9.594-16.735a3.582,3.582,0,0,1-.4-3.187c.575-1.492,1.2-2.966,1.726-4.475a36.965,36.965,0,0,0,1.576-9.965,122.4,122.4,0,0,0-.246-20.044c-.157-1.6-.352-3.194-.569-4.786a14.478,14.478,0,0,0-1.062-4.775,7.078,7.078,0,0,0-7.735-3.633c-3.507.745-5.1,4.164-5.805,7.347-.79,3.555-.867,7.209-1.559,10.777a2.462,2.462,0,0,0,1.676,2.952,2.422,2.422,0,0,0,2.952-1.676Z"/><path class="b" d="M161,180.158c-2.636-5.02-5.129-10.13-7.293-15.372-1.093-2.649-2.14-5.317-3.23-7.967a50.927,50.927,0,0,0-2.634-5.874,9.784,9.784,0,0,0-5.341-4.769,7.5,7.5,0,0,0-6.792,1.392,6.991,6.991,0,0,0-2.347,6.953,36.246,36.246,0,0,0,1.437,4.164q.783,2.187,1.575,4.369c2.148,5.909,4.429,11.761,6.942,17.526a2.417,2.417,0,0,0,3.284.861,2.463,2.463,0,0,0,.861-3.284c-1.929-4.425-3.7-8.912-5.38-13.438-.874-2.358-1.727-4.725-2.576-7.093-.452-1.258-.956-2.511-1.351-3.788a2.3,2.3,0,0,1,.216-2.171,2.561,2.561,0,0,1,3.123-.77c1.3.584,2.3,2.554,2.952,3.943,1.844,3.955,3.312,8.083,5,12.1,2.234,5.322,4.726,10.527,7.41,15.636,1.437,2.736,5.581.312,4.144-2.422Z"/><path class="b" d="M137.776,181.821a146.917,146.917,0,0,1-6.721-16.067c-.993-2.587-1.974-5.181-2.9-7.794a20.526,20.526,0,0,1-1.082-3.874,13.541,13.541,0,0,1-.062-1.618,3.164,3.164,0,0,1,.446-1.381,2.755,2.755,0,0,1,3.743-.551c.932.779,1.4,2.389,1.925,3.463a2.422,2.422,0,0,0,3.284.861,2.451,2.451,0,0,0,.861-3.284,18.08,18.08,0,0,0-2.223-3.953,7.113,7.113,0,0,0-6.714-2.255c-4.617.827-6.559,5.058-5.978,9.356.417,3.084,1.7,6.029,2.788,8.926q2,5.342,4.133,10.633a108.6,108.6,0,0,0,4.354,9.961c1.44,2.734,5.584.311,4.145-2.423Z"/><path class="b" d="M128.459,186.083a206.732,206.732,0,0,1-7.471-20.468c-.468-1.444-1.037-2.893-1.41-4.364-.035-.14-.058-.282-.092-.422-.024-.1.019.5,0-.051a9.433,9.433,0,0,1,.008-1.446c-.045.391.247-.943.182-.782a2.283,2.283,0,0,1,.78-1.092,1.993,1.993,0,0,1,2.762.107,2.415,2.415,0,0,0,3.283-.861,2.458,2.458,0,0,0-.861-3.284,6.872,6.872,0,0,0-9.99,2.464,9.977,9.977,0,0,0-.306,7.863,247.08,247.08,0,0,0,8.972,24.758,2.416,2.416,0,0,0,3.283.861,2.458,2.458,0,0,0,.861-3.283Z"/><path class="b" d="M120.943,170.326a6.71,6.71,0,0,0-7.91,2.282,9.234,9.234,0,0,0-.992,8.253A105.413,105.413,0,0,0,116.982,193c1.937,4.33,3.877,8.662,6.2,12.805a110.142,110.142,0,0,0,6.606,10.174c1.2,1.682,2.392,3.381,3.436,5.167.2.34.391.683.572,1.032.074.144.439,1.023.262.524a6.682,6.682,0,0,1,.21.694c.027.116.04.235.067.351.145.606-.039-.428.022.114.421,3.773.423,7.592.686,11.378a61.6,61.6,0,0,0,2.163,13.823c.7,2.288,1.732,4.512,4.592,3.952a19.637,19.637,0,0,0,3.3-1.205q1.8-.708,3.594-1.434a192.024,192.024,0,0,0,35.366-18.3c2.549-1.716.149-5.876-2.423-4.144a178.521,178.521,0,0,1-29.259,15.745c-2.182.939-4.381,1.839-6.587,2.721q-1.6.639-3.205,1.265c-.5.2-1.054.354-1.54.591-.384.187-.1-.025-.092.061-.038-.412,1.395.485,1.328.869a4.314,4.314,0,0,0-.39-1.238c-.141-.458-.283-.914-.408-1.377-.277-1.024-.5-2.062-.692-3.106-.38-2.074-.613-4.168-.792-6.268-.33-3.877-.409-7.766-.685-11.646a18.181,18.181,0,0,0-.488-3.73,17.539,17.539,0,0,0-2.217-4.347c-1.788-2.813-3.883-5.408-5.718-8.186a95.667,95.667,0,0,1-7-12.667c-1.872-4.059-3.749-8.123-5.437-12.263a32.085,32.085,0,0,1-2.043-5.791c-.453-2.323.687-4.619,3.267-3.613a2.417,2.417,0,0,0,2.952-1.677,2.455,2.455,0,0,0-1.676-2.952Z"/><path class="b" d="M70.614,154.209c-8.019,3.4-16.3,6.142-24.368,9.434a58.807,58.807,0,0,0-20.687,14.9A67.478,67.478,0,0,0,11.842,201.8a130.707,130.707,0,0,0-3.709,13.909q-1.669,7.307-3.008,14.683-2.722,15-4.087,30.216c-.775,8.737-1.665,17.7-.414,26.432C1.643,294.15,4.387,301.614,10.1,306.3c7.032,5.77,16.391,5.852,24.408,2.076a50.463,50.463,0,0,0,19.673-17.017,110.076,110.076,0,0,0,12.86-25.1c.769-2.09,1.481-4.2,2.153-6.324.934-2.952-3.7-4.215-4.629-1.276a115.131,115.131,0,0,1-10.347,23.756,69.618,69.618,0,0,1-7.629,11.006,44.07,44.07,0,0,1-9.016,7.653,30.408,30.408,0,0,1-10.931,4.866,16.3,16.3,0,0,1-10.993-1.594C9.776,301,6.933,294.57,5.667,288.2c-1.549-7.8-.743-15.951-.142-23.806q1.086-14.2,3.448-28.259c1.577-9.414,3.474-18.826,5.958-28.046A63.708,63.708,0,0,1,25.92,185.541a58.555,58.555,0,0,1,18-15.482,89.962,89.962,0,0,1,11.227-4.748c4.042-1.527,8.1-3.022,12.119-4.6q2.9-1.139,5.769-2.356a2.415,2.415,0,0,0,.861-3.284,2.465,2.465,0,0,0-3.284-.861Z"/><path class="c" d="M85.673,155.135a6.748,6.748,0,0,0-1.106.9c.817-3.25.76-6.839-3.015-8.128a4.7,4.7,0,0,0-5.854,2.255c-.336.65-1.294,2.625-1.294,2.625l-.455.937a4.559,4.559,0,0,0-2.928-5.1c-3.386-1.174-5.895.734-7.746,4.595-1.056,2.206-2.636,6.209-4.7,11.316-2.579,6.37-5.588,12.443-7.9,16.828-.961-3.455-.963-7.625-1.7-11.249a11.341,11.341,0,0,0-2.089-5.356,4.348,4.348,0,0,0-5.175-.879,4.816,4.816,0,0,0-2.423,3.1,121.2,121.2,0,0,0-.815,32.266c.274,2.782,1.432,5.407,2.435,8.016.479,1.248.949,2.029.713,3.3a16.23,16.23,0,0,1-1.7,4.127c-2.844,5.444-7.554,12.351-10.968,18.454,13.291,8.824,27.2,12.866,38.661,17.314,1.876.728,1.857-.118,2.47-2.035,2.768-8.651,2.087-22.954,3.029-26.018.883-2.871,6.294-9.826,7.509-11.651a102.308,102.308,0,0,0,6.858-12.245c2.114-4.583,6.535-14.154,7.827-18.5a7.018,7.018,0,0,0-.219-5.265,4.444,4.444,0,0,0-2.173-2.168,4.524,4.524,0,0,0-3.621.058l-.535.162c1.281-3.768,2.462-7.472,3.552-10.831.269-.831.921-5.215-2.521-6.91A3.881,3.881,0,0,0,85.673,155.135Z"/><path class="b" d="M52.652,179.3c-.655-3.376-.737-6.833-1.437-10.2-.6-2.868-1.676-6.085-4.528-7.431a6.944,6.944,0,0,0-8.366,2.013,8.617,8.617,0,0,0-1.634,4.519c-.269,1.822-.5,3.649-.7,5.481a122.2,122.2,0,0,0-.315,20.735,36.984,36.984,0,0,0,1.649,10.175c.534,1.5,1.185,2.948,1.722,4.442.489,1.359-.21,2.524-.834,3.751-3,5.9-6.826,11.341-10.141,17.061-1.551,2.678,2.6,5.1,4.145,2.423,2.767-4.776,5.845-9.364,8.573-14.162,1.352-2.377,3.17-5.144,3.288-7.947a9.682,9.682,0,0,0-1.012-3.942c-.566-1.445-1.153-2.887-1.6-4.374-.9-2.99-.939-6.234-1.1-9.334-.169-3.2-.226-6.4-.153-9.605q.109-4.735.606-9.453c.158-1.484.345-2.963.57-4.438.175-1.148.227-2.362,1.383-2.97,2.584-1.361,3.418,2.441,3.778,4.141.727,3.43.81,6.953,1.477,10.394a2.423,2.423,0,0,0,2.952,1.676,2.45,2.45,0,0,0,1.677-2.952Z"/><path class="b" d="M52.747,182.58c2.328-4.433,4.525-8.937,6.514-13.532,1.885-4.354,3.52-8.812,5.423-13.157a12.046,12.046,0,0,1,2.746-4.513,2.645,2.645,0,0,1,3.325-.2c1.47,1.073.6,2.931.052,4.468-.875,2.444-1.75,4.889-2.642,7.327-1.873,5.116-3.847,10.193-6.024,15.188A2.478,2.478,0,0,0,63,181.441a2.417,2.417,0,0,0,3.283-.861c2.233-5.121,4.292-10.31,6.221-15.552,1.02-2.773,2.015-5.554,3.01-8.336.961-2.683,1.4-5.365-.407-7.82a7.389,7.389,0,0,0-6.25-2.983,8.149,8.149,0,0,0-6.088,3.541,26.2,26.2,0,0,0-3,5.835c-1.021,2.425-1.994,4.869-2.979,7.308-2.425,6-5.181,11.853-8.192,17.585-1.435,2.732,2.706,5.161,4.145,2.422Z"/><path class="b" d="M75.971,184.244c3.237-6.148,5.573-12.88,8.025-19.368,2.115-5.595,6.842-15.494-.905-18.919a7.349,7.349,0,0,0-7.834.97c-1.432,1.206-2.128,3.007-2.926,4.649a2.464,2.464,0,0,0,.861,3.284A2.422,2.422,0,0,0,76.476,154a15.642,15.642,0,0,1,1.645-3.2,2.559,2.559,0,0,1,3.28-.34,2.607,2.607,0,0,1,1.188,2.637,13.352,13.352,0,0,1-.881,4.119c-1.922,5.627-4.128,11.175-6.371,16.68-1.087,2.669-2.135,5.314-3.511,7.928-1.438,2.731,2.7,5.16,4.145,2.423Z"/><path class="b" d="M85.288,188.505a247.322,247.322,0,0,0,8.971-24.758,9.977,9.977,0,0,0-.305-7.863,6.872,6.872,0,0,0-9.991-2.464A2.477,2.477,0,0,0,83.1,156.7a2.416,2.416,0,0,0,3.284.861,2,2,0,0,1,2.762-.107,2.313,2.313,0,0,1,.779,1.092c-.1-.25.1.442.1.426,0,.013.128.775.081.356a8.666,8.666,0,0,1,.016,1.348c-.014.325-.079.488,0,.076-.03.148-.049.3-.092.445-.432,1.482-.947,2.945-1.423,4.414a206.732,206.732,0,0,1-7.471,20.468A2.475,2.475,0,0,0,82,189.366a2.418,2.418,0,0,0,3.284-.861Z"/><path class="b" d="M89.935,174.955c2.241-.874,3.57.767,3.359,3.007a19.131,19.131,0,0,1-1.539,4.908c-1.507,3.855-3.226,7.629-4.948,11.392a121.227,121.227,0,0,1-6.392,12.331c-1.814,3-3.935,5.764-5.924,8.648-1.825,2.647-3.642,5.278-4.029,8.53-.411,3.449-.41,6.951-.628,10.415a61.562,61.562,0,0,1-1.747,12.541c-.129.465-.275.925-.416,1.386-.091.293-.29.991-.3.981-.233-.174,1.038-.664.749-.537.74-.326.732-.088.451-.3a7.548,7.548,0,0,0-1.707-.65c-2.23-.854-4.467-1.687-6.7-2.53C48.628,240.731,37.328,235.9,27.061,229c-2.571-1.728-4.976,2.428-2.423,4.145,9.983,6.709,20.977,11.514,32.182,15.778,2.447.931,4.9,1.843,7.349,2.771,2.068.784,4.857,2.422,6.8.494,1.378-1.368,1.779-4.118,2.181-5.942a64.546,64.546,0,0,0,1.1-7.254c.446-4.309.543-8.636.821-12.956.047-.727.1-1.453.184-2.177.044-.387-.111.415.048-.26.058-.245.119-.482.187-.724.162-.57-.143.291.022-.075.079-.174.162-.345.248-.515.2-.388.41-.766.629-1.141.509-.871,1.058-1.718,1.621-2.556,2.087-3.109,4.4-6.044,6.354-9.244a124.62,124.62,0,0,0,6.858-13.241c2.113-4.633,4.284-9.291,5.966-14.1.969-2.775,1.4-5.752-.019-8.465a6.768,6.768,0,0,0-8.5-3.213,2.471,2.471,0,0,0-1.676,2.952,2.418,2.418,0,0,0,2.952,1.677Z"/><path class="b" d="M59.072,62.875l-3.539,12.67a2.4,2.4,0,1,0,4.629,1.276L63.7,64.151a2.4,2.4,0,0,0-4.629-1.276Z"/><path class="b" d="M146.091,62.518l3.539,12.67a2.4,2.4,0,0,0,4.629-1.276l-3.539-12.67a2.4,2.4,0,0,0-4.629,1.276Z"/><path class="b" d="M179.836,305.243H157.45l-33.141,0-36.6,0-33.35,0q-11.428,0-22.855.006h-1.79c-3.089,0-3.094,4.8,0,4.8q10.59,0,21.182-.006l32.463,0,36.559,0,33.951,0h25.965c3.088,0,3.093-4.8,0-4.8Z"/><path class="b" d="M55.411,77.222c1.071,4.354,1.876,8.769,2.912,13.132.514,2.164,1.066,4.323,1.748,6.44.669,2.078,1.36,4.522,3.067,5.991,2.21,1.9,5.639,2.144,8.406,2.644,2.949.532,5.925.941,8.908,1.232s6,.45,9.01.5c2.773.043,5.58-.036,7.818-1.888a35.255,35.255,0,0,0,4.693-5.553c1.056-1.348,2.24-3.117,3.256-4.224.506-.552.263-.548.765,0,.367.4.864,1.115,1.307,1.7,1.424,1.872,2.875,3.724,4.373,5.537,1.573,1.9,2.982,3.541,5.491,4.137,2.941.7,6.28.3,9.271.126a108.325,108.325,0,0,0,17.691-2.466,8.187,8.187,0,0,0,4.231-1.986,9.436,9.436,0,0,0,1.978-3.446,56.666,56.666,0,0,0,2.173-7.136c1.223-4.885,2.1-9.848,3.3-14.736.738-3-3.89-4.279-4.628-1.276-1.012,4.114-1.783,8.285-2.743,12.412-.5,2.14-1.03,4.275-1.672,6.377-.431,1.414-.8,3.6-1.881,4.5-.825.687-2.351.742-3.372.958q-2.214.47-4.446.843c-2.689.449-5.395.772-8.113.989-2.868.229-5.75.354-8.627.351a6.217,6.217,0,0,1-2.814-.446,8.492,8.492,0,0,1-2.025-2.083q-2.077-2.492-4.044-5.074c-1.156-1.52-2.2-3.3-4.012-4.1-4.415-1.94-7.147,3.5-9.4,6.341q-1.134,1.429-2.3,2.83c-.4.479-.784.975-1.208,1.432-.394.425-.321.4-.7.582-2.087,1-4.93.513-7.186.424a100.7,100.7,0,0,1-16.933-2.092c-1.041-.221-2.651-.273-3.449-1.043a5.3,5.3,0,0,1-1.107-2.293,67.836,67.836,0,0,1-1.985-6.881c-1.136-4.654-1.983-9.374-3.127-14.026-.737-3-5.368-1.729-4.629,1.276Z"/></svg>