<!DOCTYPE svg PUBLIC "-//W3C//DTD SVG 1.1//EN" "http://www.w3.org/Graphics/SVG/1.1/DTD/svg11.dtd">
<!-- Uploaded to: SVG Repo, www.svgrepo.com, Transformed by: SVG Repo Mixer Tools -->
<svg width="256px" height="256px" viewBox="0 0 32.00 32.00" xmlns="http://www.w3.org/2000/svg" fill="#ffffff" stroke="#ffffff" stroke-width="0.00032">
<g id="SVGRepo_bgCarrier" stroke-width="0"/>
<g id="SVGRepo_tracerCarrier" stroke-linecap="round" stroke-linejoin="round" stroke="#CCCCCC" stroke-width="0.44800000000000006"/>
<g id="SVGRepo_iconCarrier"> <defs> <style>.cls-1{fill:#92c7e2;}.cls-2{fill:#27a0dd;}</style> </defs> <title/> <g data-name="Layer 22" id="Layer_22"> <path class="cls-1" d="M27.31,7.54a8,8,0,0,0-5.64-2.3h-.09A8,8,0,0,0,16,7.58a8.2,8.2,0,0,0-5.71-2.26,8.17,8.17,0,0,0-5.62,14l.43.39a1.07,1.07,0,0,0,.14.16l10.22,10a1,1,0,0,0,.7.29,1,1,0,0,0,.71-.3l10-10.23a1.06,1.06,0,0,0,.24-.39l.32-.31a8.08,8.08,0,0,0-.12-11.39Z"/> <path class="cls-2" d="M29,15.13,18.26,15h0a1,1,0,0,0-.92.61L17,14.28a1,1,0,0,0-.61-.67,1,1,0,0,0-.91.11l-1.26.85-1.4-4a1,1,0,0,0-.8-.66,1,1,0,0,0-1,.4L7.57,15,3,15.13a1,1,0,0,0,.06,2L8.11,17a1,1,0,0,0,.78-.41L11.52,13l1.2,3.45a1,1,0,0,0,.63.62,1,1,0,0,0,.88-.12l1.18-.8.79,2.9a1,1,0,0,0,.92.74h.05a1,1,0,0,0,.93-.64L18.93,17,29,17.13h0a1,1,0,0,0,0-2Z"/> </g> </g>
</svg>