<?xml version="1.0" encoding="utf-8"?>
<!-- Uploaded to: SVG Repo, www.svgrepo.com, Generator: SVG Repo Mixer Tools -->
<svg width="800px" height="800px" viewBox="-153.25 0 443.19 443.19" xmlns="http://www.w3.org/2000/svg"><defs><style>.a{fill:#ffffff;}.b{fill:#b5886a;}.c{fill:#211715;}.d{fill:#94d1e6;}.e{fill:#645d5c;}</style></defs><path class="a" d="M35.031,402.594a28.03,28.03,0,0,1-1.454,4.678,3.888,3.888,0,0,0,1.542,1.8,7.93,7.93,0,0,0,4.061.917,22.708,22.708,0,0,0,14.27-4.931q-.023-2.224-.035-4.449a136.23,136.23,0,0,1-18.012-.1Q35.256,401.555,35.031,402.594Z"/><path class="a" d="M64.506,404.239q.015-1.773.026-3.546a137.08,137.08,0,0,0,17.991-.313,28.867,28.867,0,0,0,1.836,6.9,3.815,3.815,0,0,1-1.53,1.79,7.936,7.936,0,0,1-4.062.917A22.708,22.708,0,0,1,64.5,405.054C64.5,404.782,64.5,404.511,64.506,404.239Z"/><path class="a" d="M77.811,95.387c-2.734-.988-5.342-3.8-5.687-5.769a38.72,38.72,0,0,1-.606-6.252C78.847,80.437,84.781,70.525,85.8,67.749c.151-.461.461-1.33.737-2.36.367-.06.576-.092.576-.092a7.231,7.231,0,0,0,3.36-1.515,10.894,10.894,0,0,0,2.819-3.7,17.153,17.153,0,0,0,1.749-9.091,5.739,5.739,0,0,0-.6-2.3,4.051,4.051,0,0,0-2.911-1.935,4.283,4.283,0,0,0-3.43,1s.188-26.291-29.145-26.291S30.572,47.758,30.572,47.758a4.282,4.282,0,0,0-3.43-1,4.047,4.047,0,0,0-2.91,1.935,5.724,5.724,0,0,0-.6,2.3,17.153,17.153,0,0,0,1.749,9.091,10.907,10.907,0,0,0,2.819,3.7A7.231,7.231,0,0,0,31.561,65.3l1.095.169a29.165,29.165,0,0,0,5.559,10.849,24.941,24.941,0,0,0,8.57,6.851,38.409,38.409,0,0,1-.607,6.452c-.344,1.967-.236,3.725-2.971,4.713-.181.065-1.454.484-1.981.663,0,0,.928,15.962,16.631,16.7S77.811,95.387,77.811,95.387Z"/><path class="b" d="M39.6,88.6a14.69,14.69,0,0,0,7.2-5.423,24.924,24.924,0,0,1-8.583-6.857,29.165,29.165,0,0,1-5.559-10.849L31.561,65.3A7.231,7.231,0,0,1,28.2,63.782q-.255-.207-.491-.43a14.4,14.4,0,0,0-1.619,5.14,23.481,23.481,0,0,0-.16,3.25c.04,2.58.69,5.22.82,7.8s-.95,5.53-3.4,6.36C22.235,87.7,31.563,91.449,39.6,88.6Z"/><path class="c" d="M25.983,62.342a18.02,18.02,0,0,0-2,7.3,45.118,45.118,0,0,0,.628,8.268c.206,1.809.357,3.893-.894,5.393-.608.729-1.635.8-2.123,1.651a2.633,2.633,0,0,0-.238,1.969c.581,2.191,3.474,3.218,5.382,3.79a22.7,22.7,0,0,0,9.3.741,17.765,17.765,0,0,0,11.381-5.833c1.674-1.941-1.143-4.782-2.828-2.828-3.278,3.8-8.051,5.141-12.9,4.785A19.175,19.175,0,0,1,26.5,86.4c.234.1-.3-.14-.347-.165-.154-.076-.306-.155-.454-.24-.254-.144-.81-.56-.417-.246-.057-.045-.243-.171-.257-.243-.061-.305.281.421.083.1a1.459,1.459,0,0,1-.029,1.3l-1.2.919c4.227-1.605,5.188-6.062,4.7-10.13-.538-4.506-1.381-9.126.852-13.339,1.2-2.273-2.247-4.3-3.454-2.019Z"/><path class="b" d="M92.107,26.373c-3.379-14.1-17.821-25.14-32.952-24.315-15.44-.842-30.164,10.676-33.146,25.187a40.948,40.948,0,0,0,.024,13.733l1.239,5.787a4.424,4.424,0,0,1,2.914.688C35.753,43.042,47,36.111,52.386,31.631c-.441,2.645-2.008,7.144-.034,6.682,8.243-1.846,16.143-5.568,20.9-11.387a54.95,54.95,0,0,0,3.9,10.1c1.778,2.943,6.951,9.761,11.469,10.355a4.416,4.416,0,0,1,2.912-.6,3.461,3.461,0,0,1,.527.116c2.425-5.553,1.2-14.96.239-19.648C92.241,26.953,92.177,26.662,92.107,26.373Z"/><path class="c" d="M27.961,40.447a34.1,34.1,0,0,1-.268-11.156,25.9,25.9,0,0,1,3.66-10.181A31.811,31.811,0,0,1,49.09,5.311a38.844,38.844,0,0,1,11.691-1.3A29.467,29.467,0,0,1,71.986,6.3,31.732,31.732,0,0,1,88.359,21.707a34.478,34.478,0,0,1,2.833,11.336c.454,4.357.676,9.123-1.03,13.252a2.013,2.013,0,0,0,1.4,2.46,2.05,2.05,0,0,0,2.46-1.4c1.649-3.989,1.64-8.642,1.3-12.878a44.412,44.412,0,0,0-2.233-11.761A35.333,35.333,0,0,0,63.826.174,59.034,59.034,0,0,0,57.35.015a33.193,33.193,0,0,0-6.568.728A35.976,35.976,0,0,0,29.545,14.628a30.56,30.56,0,0,0-5.576,12.677,37.521,37.521,0,0,0,.135,14.2c.562,2.511,4.42,1.448,3.857-1.063Z"/><path class="c" d="M71.456,27.892c1.347,4.441,2.872,8.88,5.664,12.632,2.615,3.514,6.109,7.717,10.6,8.72,2.508.561,3.579-3.3,1.064-3.857-3.455-.771-6.442-4.437-8.5-7.27-2.451-3.382-3.772-7.32-4.976-11.288-.745-2.457-4.607-1.41-3.857,1.063Z"/><path class="c" d="M71.931,25.429a30.666,30.666,0,0,1-12.746,8.737q-1.935.75-3.929,1.331-1,.294-2.013.549c-.331.083-.7.134-1.016.245l-.407.093a1.387,1.387,0,0,1,1.505.747c.2-.061-.149.671.054.025a3.562,3.562,0,0,0,.035-.614c.046-.407.14-.813.224-1.213.222-1.057.489-2.1.677-3.166a2.019,2.019,0,0,0-3.343-1.946c-6.981,5.765-15,10.168-22.116,15.756a2.013,2.013,0,0,0,0,2.829,2.052,2.052,0,0,0,2.829,0c7.122-5.59,15.127-9.985,22.115-15.757L50.457,31.1c-.4,2.244-1.639,5.077-.9,7.345a2.734,2.734,0,0,0,3.322,1.8,39.653,39.653,0,0,0,5.027-1.382c6.332-2.084,12.545-5.4,16.85-10.6,1.628-1.97-1.186-4.815-2.829-2.829Z"/><path class="c" d="M89.519,49.172a2.213,2.213,0,0,1,3.13.412A4.734,4.734,0,0,1,93.1,51.99a14.32,14.32,0,0,1-.2,2.954c-.64,3.51-2.413,7.725-6.315,8.424a2.018,2.018,0,0,0-1.4,2.46,2.043,2.043,0,0,0,2.46,1.4c6.055-1.085,8.944-7.915,9.4-13.4.236-2.839-.011-6.054-2.463-7.89a6.322,6.322,0,0,0-7.894.411,2.016,2.016,0,0,0,0,2.829,2.043,2.043,0,0,0,2.828,0Z"/><path class="c" d="M85.073,62.105a16.107,16.107,0,0,1-.939,4.339c-.063.191-.491,1.317-.223.709-.135.306-.277.607-.427.906a36.655,36.655,0,0,1-3.169,5.093c-2.745,3.766-6.475,7.758-11.177,8.861-2.505.588-1.444,4.446,1.064,3.857,5.674-1.331,10.074-5.968,13.412-10.487,2.881-3.9,5.258-8.321,5.459-13.278.1-2.574-3.9-2.569-4,0Z"/><path class="c" d="M31.986,46.343a6.323,6.323,0,0,0-7.893-.411c-2.456,1.829-2.7,5.056-2.464,7.89.456,5.487,3.346,12.318,9.4,13.4a2.055,2.055,0,0,0,2.46-1.4,2.017,2.017,0,0,0-1.4-2.46c-3.9-.7-5.674-4.915-6.315-8.424a14.294,14.294,0,0,1-.2-2.787,5.514,5.514,0,0,1,.386-2.458,2.2,2.2,0,0,1,3.2-.527,2.055,2.055,0,0,0,2.828,0,2.016,2.016,0,0,0,0-2.829Z"/><path class="c" d="M29.805,61.882a33.418,33.418,0,0,0,7.126,16c4.014,4.753,9.33,8.177,15.587,8.852a2.012,2.012,0,0,0,2-2,2.046,2.046,0,0,0-2-2c-5.3-.573-9.731-3.986-13.021-8-3.253-3.964-4.964-8.93-5.835-13.921a2.017,2.017,0,0,0-2.461-1.4,2.045,2.045,0,0,0-1.4,2.46Z"/><path class="c" d="M53.983,71.388A12.087,12.087,0,0,0,59.8,72.746a9.594,9.594,0,0,0,5.984-1.812,2,2,0,0,0,0-2.829,2.062,2.062,0,0,0-2.828,0c.691-.538-.025-.012-.244.1-.169.089-.621.23.009.016-.159.054-.312.12-.472.172-.425.136-.912.149-1.322.3.211-.078.323-.039.024-.009-.13.013-.26.024-.39.032-.312.02-.626.028-.939.026q-.422,0-.841-.03c-.129-.009-.257-.019-.385-.032-.074-.007-.147-.015-.22-.024q-.235-.028.183.024c-.05.051-.552-.1-.633-.118q-.3-.067-.6-.156c-.173-.052-.341-.114-.512-.172-.449-.154.421.2.014.009q-.318-.15-.628-.313a2,2,0,0,0-2.019,3.454Z"/><path class="c" d="M58.531,58.009a26.208,26.208,0,0,1,.612,2.8l-.072-.531a1.662,1.662,0,0,1,.011.386l.071-.532a.959.959,0,0,1-.042.174l.2-.478a.674.674,0,0,1-.061.112l.313-.405a.56.56,0,0,1-.092.09l.405-.313a1.811,1.811,0,0,1-.222.118l.478-.2a1.628,1.628,0,0,1-.373.109l.531-.072a1.517,1.517,0,0,1-.35,0l.532.071c-.133-.018-.262-.05-.395-.068a1.522,1.522,0,0,0-.8-.036,1.492,1.492,0,0,0-.744.237A2,2,0,0,0,57.82,62.2a1.913,1.913,0,0,0,1.2.919c.351.047.692.135,1.049.151a3.442,3.442,0,0,0,1.61-.393,2.444,2.444,0,0,0,1.32-1.6,3.772,3.772,0,0,0-.013-1.658c-.153-.9-.361-1.8-.593-2.679a2,2,0,0,0-2.46-1.4,2.022,2.022,0,0,0-1.2.92,2.1,2.1,0,0,0-.2,1.541Z"/><path class="c" d="M44.284,49.935c-.467,1.519-.163,5.011,2.713,5.308,3.8-.022,4-4.245,2.725-6.23C48.674,47.387,45.593,46.711,44.284,49.935Z"/><path class="c" d="M74.727,49.936c.467,1.518.163,5.01-2.714,5.307-3.8-.022-4-4.245-2.724-6.23C70.337,47.387,73.418,46.711,74.727,49.936Z"/><path class="c" d="M33.7,396.582A27.208,27.208,0,0,1,30.694,408.8a2.047,2.047,0,0,0,.717,2.737,2.022,2.022,0,0,0,2.737-.718A31.588,31.588,0,0,0,37.7,396.582a2,2,0,0,0-4,0Z"/><path class="c" d="M51.394,397.57l.081,11.828a2,2,0,0,0,4,0l-.081-11.828a2,2,0,0,0-4,0Z"/><path class="c" d="M80.245,396.582A31.588,31.588,0,0,0,83.8,410.816a2,2,0,1,0,3.454-2.019,27.179,27.179,0,0,1-3.009-12.215,2,2,0,0,0-4,0Z"/><path class="c" d="M62.554,397.57,62.472,409.4a2,2,0,0,0,4,0l.082-11.828a2,2,0,0,0-4,0Z"/><path class="d" d="M25.907,192.852c-1.391,4.88-3.111,12.983-4.234,19.344-5.485,31.082-.182,62.809,2.2,93.229,2.469,31.549,3.977,63.1,6.445,94.647a143.1,143.1,0,0,0,27.823.2,143.253,143.253,0,0,0,27.838-.2c2.468-31.549,3.976-63.1,6.444-94.647,2.38-30.42,7.683-62.147,2.2-93.229-1.122-6.361-2.842-14.464-4.233-19.344"/><path class="c" d="M56.974,250.131c-.428,4.681-.377,9.426-.413,14.122-.053,6.863-.026,13.726.016,20.589.059,9.671.164,19.342.15,29.014q-.025,16.1-.063,32.2-.033,18.057-.035,36.113,0,6.5.031,13c.011,2.072-.068,4.178.083,6.247a2.173,2.173,0,0,0,.611,1.628,2.062,2.062,0,0,0,2.829,0,2.014,2.014,0,0,0,0-2.828,2.191,2.191,0,0,1,.565,1.28,1.964,1.964,0,0,0-.015-.3c0-.332-.019-.663-.025-1-.021-1.141-.03-2.283-.038-3.424-.029-4.009-.034-8.019-.039-12.028q-.019-17.533.027-35.069.028-16.644.064-33.29c.016-8.939-.049-17.877-.113-26.817-.09-12.349-.405-24.766.208-37.106.039-.781.086-1.561.157-2.34a2.016,2.016,0,0,0-2-2,2.042,2.042,0,0,0-2,2Z"/><path class="e" d="M14.244,436.949c-.11-.144-.214-.292-.312-.446a8.356,8.356,0,0,1-.554-7,22.942,22.942,0,0,1,3.6-6.273q5.2-7.109,11-13.756c1.506-1.728,3.209-3.529,5.461-3.954a3.386,3.386,0,0,0,1.684,3.553,7.93,7.93,0,0,0,4.061.917,22.543,22.543,0,0,0,15.778-6.279c-.026,4.746.021,6.326,0,11.073a9.945,9.945,0,0,1-.416,3.424c-.976,2.639-3.869,3.91-6.191,5.5-6.041,4.134-9.222,11.676-15.552,15.352a16.344,16.344,0,0,1-15.108.541A9.523,9.523,0,0,1,14.244,436.949Z"/><path class="e" d="M103.7,436.949c.11-.144.214-.292.312-.446a8.36,8.36,0,0,0,.553-7,22.939,22.939,0,0,0-3.595-6.273q-5.2-7.109-11-13.756c-1.507-1.728-3.209-3.529-5.462-3.954a3.387,3.387,0,0,1-1.683,3.553,7.936,7.936,0,0,1-4.062.917,22.54,22.54,0,0,1-15.777-6.279c.026,4.746-.021,6.326,0,11.073a9.945,9.945,0,0,0,.416,3.424c.976,2.639,3.87,3.91,6.192,5.5,6.04,4.134,9.222,11.676,15.552,15.352a16.342,16.342,0,0,0,15.107.541A9.518,9.518,0,0,0,103.7,436.949Z"/><path class="c" d="M23.978,192.321a178.869,178.869,0,0,0-6.268,36.266c-.933,13.689-.254,27.429.882,41.084,1.13,13.587,2.638,27.138,3.66,40.735,1.055,14.023,1.941,28.058,2.825,42.093,1,15.863,2,31.727,3.238,47.573a2.068,2.068,0,0,0,2,2,154.529,154.529,0,0,0,26.485.308c2.551-.191,2.572-4.193,0-4a154.529,154.529,0,0,1-26.485-.308l2,2c-2.189-28.041-3.632-56.134-5.659-84.186-.981-13.584-2.348-27.122-3.581-40.684s-2.164-27.189-1.667-40.813a174.922,174.922,0,0,1,6.427-41.005c.7-2.482-3.157-3.541-3.857-1.063Z"/><path class="c" d="M15.971,435.94c-1.632-2.229-1.232-5.047-.048-7.4a52.076,52.076,0,0,1,5.49-7.93q3.032-3.954,6.267-7.746c1.712-2.015,3.553-4.809,6.287-5.424l-2.46-2.46a5.56,5.56,0,0,0,3.349,6.187c2.6,1.169,5.748.917,8.492.486a24.231,24.231,0,0,0,13.024-6.537l-3.414-1.414c-.021,4.045.156,8.12-.02,12.161-.088,2.008-1.12,3.184-2.726,4.266a57.118,57.118,0,0,0-4.73,3.255c-5.789,4.806-9.177,13.167-16.925,15.284-4.26,1.164-9.959.484-12.9-3.137a2.013,2.013,0,0,0-2.828,0,2.047,2.047,0,0,0,0,2.829c2.981,3.672,8.532,5.113,13.085,4.78a19.408,19.408,0,0,0,12.29-5.788c3.069-3.008,5.432-6.647,8.488-9.667a30.38,30.38,0,0,1,5.087-3.805,11.184,11.184,0,0,0,4.356-4.348c1.2-2.574.832-5.686.826-8.451-.006-2.46-.017-4.919,0-7.379a2.023,2.023,0,0,0-3.415-1.414,20.229,20.229,0,0,1-8.821,4.982,19.441,19.441,0,0,1-5.753.7c-.946-.027-3.926-.28-3.605-1.932a2.027,2.027,0,0,0-2.46-2.46c-3.455.777-5.719,3.712-7.9,6.271q-3.8,4.454-7.336,9.115c-3.858,5.058-9.873,12.536-5.153,18.986a2.059,2.059,0,0,0,2.736.717A2.015,2.015,0,0,0,15.971,435.94Z"/><path class="c" d="M88.456,193.384a173.6,173.6,0,0,1,6.188,36.169c.845,13.533.147,27.105-.985,40.6-1.134,13.509-2.624,26.983-3.639,40.5-1.053,14.023-1.937,28.059-2.822,42.093-.995,15.78-1.992,31.561-3.222,47.324l2-2a154.53,154.53,0,0,1-26.485.308c-2.568-.193-2.555,3.808,0,4a154.53,154.53,0,0,0,26.485-.308,2.068,2.068,0,0,0,2-2c2.2-28.207,3.649-56.466,5.7-84.685.99-13.657,2.382-27.269,3.61-40.906,1.221-13.564,2.121-27.194,1.574-40.818a179.369,179.369,0,0,0-6.542-41.342c-.7-2.474-4.56-1.423-3.857,1.063Z"/><path class="a" d="M70.378,270.431c4.163-.291,32.075-.825,36.02-1.659.188-1.951-.692-14.861-3.254-30.791-4.131-25.7-7.552-57.486-7.583-57.877l14.358-60.889a13.7,13.7,0,0,0-2.662-5.875,18.779,18.779,0,0,0-3.082-2.993c-6.746-5.516-19.947-12.54-24.309-16.46-6.418,5.746-17.333,15.58-20.9,15.911-4.688-3.566-15.226-10.885-20.528-16.105-4.277,4.1-17.885,10.338-25.61,16.654a18.779,18.779,0,0,0-3.082,2.993,19.448,19.448,0,0,0-2.993,7.09c-1.207,4.629-3.387,20.921-4.753,41.377,6.652,1.717,15.852,1.926,20.829,1.968l-3.063,28.1c-2.16,6.952-2.68,26.656-5.494,44.968-2.489,16.2-3.855,30.636-3.793,32.317.88,1.53,53.361,3.306,59.135,2.2"/><path class="c" d="M105.431,437.959c4.721-6.451-1.3-13.928-5.153-18.986q-3.549-4.653-7.336-9.115c-2.179-2.558-4.443-5.494-7.9-6.271a2.027,2.027,0,0,0-2.46,2.46c.3,1.573-2.457,1.886-3.394,1.926a19.279,19.279,0,0,1-5.964-.7,20.233,20.233,0,0,1-8.822-4.982,2.022,2.022,0,0,0-3.414,1.414c.011,2.231,0,4.462,0,6.693a44.03,44.03,0,0,0,.183,7.081c.773,4.787,5.508,6.193,8.745,8.972,3.269,2.806,5.668,6.433,8.562,9.592,3.077,3.357,6.853,6.048,11.422,6.834,5.17.89,11.735-.224,15.218-4.514a2.061,2.061,0,0,0,0-2.829,2.014,2.014,0,0,0-2.828,0c-2.551,3.142-7.352,4.091-11.193,3.509-4-.607-7.119-2.91-9.79-5.828-2.609-2.851-4.81-6.066-7.617-8.736a29.393,29.393,0,0,0-4.739-3.567c-1.321-.827-2.968-1.735-3.616-3.241a9.942,9.942,0,0,1-.348-3.832q-.006-1.72,0-3.441c.007-2.231.013-4.462,0-6.693l-3.414,1.414A24.231,24.231,0,0,0,74.6,411.657c2.665.419,5.7.667,8.253-.385a5.6,5.6,0,0,0,3.589-6.288l-2.46,2.46c2.669.6,4.457,3.275,6.133,5.242q3.308,3.883,6.421,7.928a54.244,54.244,0,0,1,5.392,7.741c1.242,2.395,1.735,5.282.05,7.585a2.015,2.015,0,0,0,.717,2.736A2.046,2.046,0,0,0,105.431,437.959Z"/><path class="c" d="M44.784,83.5c-.016.806-.055,1.61-.122,2.414q-.045.546-.107,1.091-.03.273-.065.545c-.018.141-.018.145,0,.012l-.031.218c-.161,1.084-.282,2.214-.548,3.279-.025.1-.051.2-.082.3s-.191.361-.022.1c.219-.333-.256.382-.239.405-.031-.041.34-.362.034-.058-.079.079-.158.157-.239.234-.309.3.343-.185-.062.036-.118.065-.231.139-.35.2s-.348.157-.093.057c-.094.037-.186.069-.28.1-.166.058-.334.112-.5.168-.46.153-.922.305-1.382.462a2,2,0,1,0,1.064,3.857,20.691,20.691,0,0,0,3.285-1.231,5.524,5.524,0,0,0,2.624-3.214,21.621,21.621,0,0,0,.617-3.414,43.374,43.374,0,0,0,.5-5.561,2,2,0,0,0-4,0Z"/><path class="c" d="M69.519,83.5a42.425,42.425,0,0,0,.414,4.957,9.444,9.444,0,0,0,1.074,3.693,12.373,12.373,0,0,0,6.273,5.162,2.009,2.009,0,0,0,2.46-1.4,2.055,2.055,0,0,0-1.4-2.461c-.351-.131.117.073-.094-.032-.107-.053-.216-.1-.323-.155-.244-.123-.482-.258-.714-.4s-.462-.3-.686-.465c-.256-.185.21.175-.033-.026-.118-.1-.237-.2-.351-.3a11.054,11.054,0,0,1-1.13-1.15c-.074-.087-.147-.176-.217-.266.169.217.066.082-.034-.064-.134-.194-.261-.394-.376-.6-.094-.168-.266-.6-.114-.175a5.466,5.466,0,0,1-.18-.561c-.128-.534-.227-1.31-.28-1.716a40.007,40.007,0,0,1-.292-4.046,2,2,0,1,0-4,0Z"/><path class="c" d="M93.561,180.1c.752,8.5,1.93,16.989,3,25.453q1.457,11.489,3.118,22.952c1.192,8.122,2.58,16.211,3.517,24.369.408,3.549.764,7.106,1.014,10.67a34.157,34.157,0,0,1,.185,5.224l1.468-1.929c-.195.04-1,.139-.3.06-.376.043-.751.085-1.127.12-.959.088-1.92.153-2.881.212-2.669.165-5.341.279-8.013.384-5.822.23-11.646.394-17.47.584-1.9.061-3.8.1-5.7.228-2.555.173-2.574,4.174,0,4,10.2-.692,20.447-.562,30.652-1.164a42.086,42.086,0,0,0,5.9-.567,2.04,2.04,0,0,0,1.468-1.928,29.494,29.494,0,0,0-.127-4.357c-.184-2.885-.451-5.764-.753-8.638-.86-8.179-2.162-16.284-3.394-24.412-2.111-13.922-3.887-27.9-5.511-41.881-.363-3.123-.775-6.248-1.052-9.38a2.053,2.053,0,0,0-2-2,2.014,2.014,0,0,0-2,2Z"/><path class="c" d="M78.452,95.3c4.6,4.081,10.28,7.035,15.443,10.324,2.777,1.769,5.569,3.555,8.17,5.579a18.724,18.724,0,0,1,3.949,3.8,14.014,14.014,0,0,1,1.976,4.738c.655,2.488,4.514,1.433,3.857-1.063a18.265,18.265,0,0,0-1.967-5.073,19.1,19.1,0,0,0-4.291-4.677,92.643,92.643,0,0,0-8.425-5.96c-3.068-1.979-6.183-3.882-9.26-5.846a52.832,52.832,0,0,1-6.624-4.654c-1.92-1.7-4.759,1.116-2.828,2.829Z"/><path class="c" d="M37.228,95.3c5.682,5.477,12.3,9.98,18.634,14.655,1.292.954,2.365,2.13,4.095,1.686a12.09,12.09,0,0,0,3.2-1.5,71.5,71.5,0,0,0,8.371-6.307c3.318-2.77,6.538-5.655,9.757-8.537,1.922-1.721-.914-4.542-2.828-2.829-3.657,3.274-7.311,6.555-11.115,9.658-1.658,1.352-3.344,2.675-5.122,3.866a22.72,22.72,0,0,1-2.259,1.363c-.147.076-.3.15-.446.219-.228.1.248-.081-.1.043-.2.071-1.055.25-.439.176l1.009.273c-6.7-5.087-13.847-9.74-19.924-15.6C38.2,90.686,35.37,93.511,37.228,95.3Z"/><path class="c" d="M67.43,185.781q.141,37.894.181,75.788.006,4.357.008,8.715c0,2.574,4,2.578,4,0q0-29.652-.108-59.3-.034-12.6-.081-25.2c-.009-2.573-4.009-2.578-4,0Z"/><path class="c" d="M66.672,112.326c.351,9.729.453,19.477.532,29.212.021,2.573,4.021,2.579,4,0-.079-9.735-.181-19.483-.532-29.212-.092-2.567-4.093-2.579-4,0Z"/><path class="c" d="M37.247,92.067A27.079,27.079,0,0,1,32.3,95.673c-2.386,1.488-4.828,2.885-7.255,4.3-5.15,3.013-10.495,6.042-14.935,10.074-3.817,3.466-5.14,8.465-6,13.37-.83,4.73-1.416,9.508-1.958,14.278-.91,8.017-1.6,16.059-2.142,24.108-.172,2.57,3.828,2.559,4,0,.808-12.021,1.789-24.113,3.736-36.012.666-4.075,1.333-8.928,4.266-12.017a37.683,37.683,0,0,1,6.656-5.205c2.527-1.674,5.132-3.227,7.746-4.761,2.642-1.549,5.306-3.064,7.906-4.685A31.952,31.952,0,0,0,40.076,94.9c1.825-1.82-1-4.649-2.829-2.828Z"/><path class="c" d="M20.82,150.919c-5.655-.438-11.488-.6-16.985-2.123-2.484-.687-3.545,3.171-1.063,3.857,5.832,1.615,12.047,1.8,18.048,2.266a2.017,2.017,0,0,0,2-2,2.038,2.038,0,0,0-2-2Z"/><path class="c" d="M25.081,164.961c-1.074-8.7-2.27-17.38-3.31-26.081a2.062,2.062,0,0,0-2-2,2.012,2.012,0,0,0-2,2c1.04,8.7,2.236,17.384,3.31,26.081a2.063,2.063,0,0,0,2,2,2.012,2.012,0,0,0,2-2Z"/><path class="c" d="M69.087,269.429c-.08.015-.161.026-.241.041-.266.048.609-.049.207-.029-.219.01-.439.045-.658.063-.6.049-1.2.078-1.8.1-1.675.067-3.352.086-5.028.094-4.665.022-9.331-.06-14-.173-9.843-.238-19.7-.565-29.523-1.315-1.712-.13-3.421-.284-5.125-.489a4.342,4.342,0,1,0-.441-.068c-.225-.037-.451-.075-.673-.125a2.157,2.157,0,0,0-.479-.125c.155-.009.561.279.878.744l.273,1.009a66.31,66.31,0,0,1,.7-8.508q.894-8.524,2.1-17.012c.943-6.7,1.969-13.383,2.687-20.117.629-5.9,1.125-11.812,1.707-17.716.437-4.444.715-9.1,2.021-13.4.751-2.469-3.109-3.524-3.857-1.064-1.515,4.985-1.779,10.446-2.275,15.6-.739,7.669-1.38,15.347-2.335,22.993C12.225,238,10.89,246.022,9.924,254.1c-.571,4.776-1.229,9.6-1.428,14.412-.115,2.8,2.361,2.955,4.487,3.223,2.974.376,5.974.564,8.965.75,8.917.556,17.852.872,26.783,1.074,4.083.093,8.168.158,12.252.148,2.586-.007,5.205.026,7.781-.23.464-.047.929-.1,1.386-.186,2.528-.468,1.458-4.324-1.063-3.857Z"/><path class="c" d="M26.649,102.224a43.014,43.014,0,0,0,5.991,6.523,32.246,32.246,0,0,0,8.438,6.047c2.544,1.12,5.692,2.11,8.244.523,2.755-1.712,4.845-4,7.142-6.255,1.839-1.808-.99-4.636-2.828-2.829a38.512,38.512,0,0,1-6.193,5.535c-.144.091-.9.533-.393.279a1.515,1.515,0,0,1-.45.124c.48-.031-.377-.008-.458-.013a10.422,10.422,0,0,1-3.79-1.166,31.552,31.552,0,0,1-7.137-5.307,41.655,41.655,0,0,1-5.112-5.48,2.057,2.057,0,0,0-2.737-.717,2.016,2.016,0,0,0-.717,2.736Z"/><path class="c" d="M88.278,100.65a39.359,39.359,0,0,1-5.123,5.487,26.69,26.69,0,0,1-7.112,5.078,9.4,9.4,0,0,1-3.767.946c-.014,0-.585-.188-.249-.02-.251-.125-.469-.287-.7-.435-2.36-1.479-4.129-3.532-6.1-5.473-1.837-1.806-4.668,1.02-2.828,2.829a42.921,42.921,0,0,0,7,6.16c2.41,1.523,5.159.869,7.671-.13a29.39,29.39,0,0,0,8.527-5.77,41.945,41.945,0,0,0,6.141-6.653,2.016,2.016,0,0,0-.717-2.737,2.045,2.045,0,0,0-2.737.718Z"/><path class="a" d="M24.008,166.255c8.612-1.363,12.51-.55,20.556-3.909a33.841,33.841,0,0,0,5.738-2.905c6.041-4.011,9.781-11.205,16.464-14.019a15.258,15.258,0,0,1,16.811,3.754L76.445,162.81a61.264,61.264,0,0,0-10.451,8.7,16.889,16.889,0,0,1-3.494,3.1c-1.893,1.1-4.154,1.311-6.317,1.659-12.356,1.988-23.212,10.58-35.115,14.444-3.116,1.012-6.6,1.776-9.589.432-5.378-2.419-5.91-11.111-5.833-17.006.1-7.579-.155-10.371-.155-13.108"/><path class="c" d="M3.413,162.844c0,1.647.143,3.289.2,4.933.1,3.134-.046,6.269.064,9.4.2,5.594,1.183,13.25,7.034,15.8,3.84,1.674,8.084.654,11.87-.661a91.881,91.881,0,0,0,10.832-4.734c6.942-3.466,13.82-7.4,21.482-9.038a59.964,59.964,0,0,0,6.465-1.262,13.446,13.446,0,0,0,5.461-3.738,63.883,63.883,0,0,1,10.636-9.01c2.134-1.418.133-4.884-2.018-3.454a65.4,65.4,0,0,0-9.147,7.307,48.779,48.779,0,0,1-4.089,4.034,10.635,10.635,0,0,1-4.915,1.672,51.134,51.134,0,0,0-10.562,2.766c-3.5,1.356-6.877,2.992-10.224,4.682s-6.645,3.419-10.054,4.948c-3.232,1.45-6.863,3.071-10.433,3.345a6.207,6.207,0,0,1-6.573-3.557,20.155,20.155,0,0,1-1.7-7.817c-.21-3.39-.019-6.791-.111-10.184-.049-1.812-.207-3.621-.212-5.435-.007-2.573-4.007-2.578-4,0Z"/><path class="c" d="M84.991,147.762a17.362,17.362,0,0,0-11.91-5.422,17.989,17.989,0,0,0-12.342,4.539c-3.4,2.793-6.053,6.357-9.368,9.238-3.661,3.182-8.573,5.147-13.254,6.265-4.786,1.143-9.787,1.191-14.641,1.945a2.014,2.014,0,0,0-1.4,2.46,2.05,2.05,0,0,0,2.46,1.4c4.19-.651,8.447-.787,12.622-1.526a39.826,39.826,0,0,0,13.373-5c3.729-2.253,6.571-5.562,9.56-8.665,2.8-2.905,5.867-5.676,9.948-6.474a13.337,13.337,0,0,1,12.12,4.07c1.752,1.9,4.575-.939,2.829-2.828Z"/><path class="c" d="M69.314,153.451a33.252,33.252,0,0,1,4.527.259l-.532-.072q1.253.172,2.484.457a2,2,0,1,0,1.063-3.857,32.8,32.8,0,0,0-7.542-.787,2,2,0,0,0,0,4Z"/><path class="c" d="M70.8,160.54a13.844,13.844,0,0,1,3.3-.839l-.532.072c.853-.113,1.709-.186,2.56-.314a2,2,0,0,0,1.2-.919,2.044,2.044,0,0,0,.2-1.541A2.017,2.017,0,0,0,76.6,155.8l-.478-.2a2.018,2.018,0,0,0-1.063,0l-.184.027.532-.072c-.926.124-1.856.2-2.779.345a13.226,13.226,0,0,0-2.9.781,2.19,2.19,0,0,0-1.2.919,2.044,2.044,0,0,0-.2,1.541,2.017,2.017,0,0,0,.919,1.195,1.94,1.94,0,0,0,1.541.2Z"/><path class="c" d="M50.867,142.128c4.308,2.065,9.022,3.337,13.242,5.36a2.055,2.055,0,0,0,2.737-.718,2.018,2.018,0,0,0-.718-2.736c-4.308-2.065-9.022-3.337-13.242-5.36a2.054,2.054,0,0,0-2.736.717,2.018,2.018,0,0,0,.717,2.737Z"/><path class="c" d="M1.474,163.736c6.929,1.755,14.245,1.977,21.36,2.039,2.575.022,2.577-3.978,0-4-6.764-.059-13.708-.227-20.3-1.9-2.5-.632-3.561,3.224-1.063,3.857Z"/><path class="a" d="M109.339,157.659c8.006-13.5,23.581-36.626,25.407-40.148-6.3.593-33,3.808-36.3,4.593-1.037,1.306-32.322,55.8-36.445,63.555,8.889-1.333,27.556-6.222,33.992-7.712"/><path class="c" d="M115.931,169.659a23.2,23.2,0,0,1,0,5.353c.03-.242-.051.339-.059.39-.045.272-.1.543-.154.813-.107.509-.236,1.014-.39,1.511a11.524,11.524,0,0,1-1.183,2.672c-2.347,3.908-6.689,4.538-10.753,2.971a2.016,2.016,0,0,0-2.46,1.4,2.046,2.046,0,0,0,1.4,2.461c5.421,2.089,11.511.726,14.862-4.174,2.619-3.829,3.238-8.872,2.739-13.394a2.059,2.059,0,0,0-2-2,2.014,2.014,0,0,0-2,2Z"/><path class="a" d="M86.505,167.608a16,16,0,0,1-1.151-5.5,6.052,6.052,0,0,1,1.335-3.065,2.008,2.008,0,0,1,2.663-.707c-.673-1.021-.2-3.468.681-4.313s2.466-2.169,5.375-.637c.635-3.034,2.9-4.422,4.608-3.743,3.417,1.362,6.447,5.84,8.7,9.076,1.309-2.238,2.863-4.788,4.55-7.5.466.784.742,1.25.742,1.25.846,1.424,2.482,4.123.593,9.037-1.387,3.61-1.753,3.772-3.34,7.425-.171,1.826-.08,3.723-.762,5.427-1.042,2.6-3.7,5.3-6.452,5.826-3.124.6-5.55.037-8.914-1.869C91.277,175.177,88.117,171.657,86.505,167.608Z"/><path class="c" d="M110.473,157.761c-2.343-3.372-4.788-7.229-8.43-9.338a5.18,5.18,0,0,0-5.164-.376,7.079,7.079,0,0,0-3.4,4.811l2.938-1.195c-2.6-1.272-5.288-1.323-7.511.685a6.094,6.094,0,0,0-1.281,7l2.736-2.737c-4.007-2.264-7.26,2.948-6.95,6.441A20.161,20.161,0,0,0,87.5,173.365c2.372,3.161,5.323,6.284,8.994,7.862,3.487,1.5,7.765,1.777,11.064-.375a12.655,12.655,0,0,0,4.372-4.83c1.121-2.251,1.123-4.636,1.328-7.086l-.273,1.009c1.436-3.279,3.447-6.513,4.185-10.047a11.391,11.391,0,0,0-1.438-8.433c-1.312-2.212-4.771-.2-3.454,2.018a6.986,6.986,0,0,1,1.168,3.013,11.642,11.642,0,0,1-1.253,5.689c-.589,1.421-1.314,2.779-1.96,4.174a9.241,9.241,0,0,0-1.039,3.424,14.925,14.925,0,0,1-.423,3.45,7.393,7.393,0,0,1-8.74,4.991c-4.045-.938-7.33-4.328-9.634-7.649a17.092,17.092,0,0,1-2.706-5.86,6.578,6.578,0,0,1-.261-2.953,7.326,7.326,0,0,1,.787-1.412c.167-.312.327-.169.125-.283a2.016,2.016,0,0,0,2.737-2.736,2.251,2.251,0,0,1,.655-2.155,2.316,2.316,0,0,1,2.664-.059,2.028,2.028,0,0,0,2.938-1.2c.213-.892.613-2.1,1.561-2.4.335-.1.333-.053.694.121a7.95,7.95,0,0,1,1.712,1.145,35.882,35.882,0,0,1,5.716,7c1.459,2.1,4.928.1,3.454-2.019Z"/><path class="c" d="M93.681,154.4c1.62,2.15,3.257,4.287,4.877,6.437a2.2,2.2,0,0,0,1.195.919,2.047,2.047,0,0,0,1.541-.2,2.017,2.017,0,0,0,.919-1.195,1.939,1.939,0,0,0-.2-1.541c-1.62-2.15-3.257-4.287-4.877-6.437a2.194,2.194,0,0,0-1.2-.919,2.043,2.043,0,0,0-1.541.2,2.017,2.017,0,0,0-.919,1.195,1.939,1.939,0,0,0,.2,1.541Z"/><path class="c" d="M87.98,159.507c1.553,2.2,3.2,4.356,4.863,6.478a2,2,0,0,0,1.415.586,2.036,2.036,0,0,0,1.414-.586,2.014,2.014,0,0,0,.586-1.414,2.34,2.34,0,0,0-.586-1.414q-.246-.314-.49-.629l.313.405c-1.382-1.791-2.758-3.595-4.061-5.445a2.15,2.15,0,0,0-1.195-.919,2,2,0,0,0-2.259,2.938Z"/><path class="c" d="M111.066,158.669c7.117-11.983,14.938-23.532,22.428-35.28,1.018-1.6,2.1-3.188,2.979-4.868.642-1.225-.125-3.162-1.727-3.01-8.783.833-17.55,1.973-26.3,3.117A92.627,92.627,0,0,0,98.2,120.113c-1.567.388-2.368,2.4-3.13,3.692-3.584,6.065-7.091,12.175-10.606,18.279q-7,12.161-13.95,24.354c-3.265,5.734-6.56,11.456-9.72,17.25q-.263.48-.52.962a2.028,2.028,0,0,0,2.259,2.938c11.175-1.7,22.127-4.788,33.125-7.34,2.507-.581,1.446-4.439-1.063-3.857-11,2.552-21.95,5.643-33.125,7.34l2.258,2.938c4.4-8.271,9.175-16.359,13.823-24.492q9.034-15.813,18.171-31.568,1.524-2.619,3.064-5.228a22.137,22.137,0,0,1,1.387-2.268l-1.2.919a115.566,115.566,0,0,1,11.632-1.685q8.749-1.121,17.514-2.122c2.2-.251,4.409-.5,6.618-.714l-1.727-3.009c-2.061,3.931-4.733,7.609-7.142,11.328-4.054,6.258-8.121,12.508-12.1,18.813-2.091,3.312-4.162,6.639-6.163,10.007-1.318,2.218,2.139,4.232,3.454,2.019Z"/></svg>